<svg xmlns="http://www.w3.org/2000/svg" xmlns:xlink="http://www.w3.org/1999/xlink" width="673.965" height="470.376" viewBox="0 0 673.965 470.376">
  <defs>
    <clipPath id="clip-path">
      <path id="Path_22873" data-name="Path 22873" d="M377.878,353.191c-6.38,19.175,2.525,56.59,21.7,62.97s41.363-20.691,47.743-39.867a36.593,36.593,0,1,0-69.444-23.1Z" transform="translate(-375.832 -328.138)" fill="none"/>
    </clipPath>
  </defs>
  <g id="Group_10745" data-name="Group 10745" transform="translate(0.375)">
    <g id="Group_10733" data-name="Group 10733" transform="translate(69.56)">
      <path id="Path_22844" data-name="Path 22844" d="M705.483,340.54c-86.091-43.184-149.826,41.085-216.534-9.483s-123.448-37.327-169.617,17.5S234.161,511.945,354.516,584.9,484.4,626.781,589.845,641.988s12.215-148.135,131.621-141.667S799.95,387.922,705.483,340.54Z" transform="translate(-274.47 -263.826)" fill="#96bb7c" opacity="0.43"/>
      <ellipse id="Ellipse_5" data-name="Ellipse 5" cx="41.852" cy="28.551" rx="41.852" ry="28.551" transform="translate(258.249)" fill="#96bb7c" opacity="0.43"/>
      <path id="Path_22845" data-name="Path 22845" d="M386.58,307.654a17.562,17.562,0,1,0,17.563-17.561A17.561,17.561,0,0,0,386.58,307.654Z" transform="translate(-183.933 -278.077)" fill="#96bb7c" opacity="0.43"/>
      <path id="Path_22846" data-name="Path 22846" d="M400.541,382.534C362.627,403.462,293.65,398.927,287.7,427.721s-49.554,118.718-5.366,117.4,93.788-14.067,113.163-72.761S448.3,356.174,400.541,382.534Z" transform="translate(125.103 -147.334)" fill="#96bb7c" opacity="0.43"/>
    </g>
    <g id="Group_10742" data-name="Group 10742" transform="translate(0 93.676)">
      <g id="Group_10736" data-name="Group 10736" transform="translate(200.623 106.085)">
        <path id="Path_22847" data-name="Path 22847" d="M406.961,372.636a156.816,156.816,0,0,1,20.338,33.6l52.738-21.988s17.205-16.779,31.557-9.675.5,37.881.5,37.881l-21.441,4.559s-21.078,43.762-91.089,43.79c-29.289.01-31.257-43.358-28.257-77.552C372.891,365.232,395.815,358.4,406.961,372.636Z" transform="translate(-370.283 -363.797)" fill="#f7b59c"/>
        <path id="Path_22848" data-name="Path 22848" d="M375.613,384.961l21.718-20.447s6.534,5,0,12.008-8.164,10.247-8.164,10.247Z" transform="translate(-265.859 -364.514)" fill="#ffa083"/>
        <g id="Group_10735" data-name="Group 10735" transform="translate(118.514 7.714)">
          <g id="Group_10734" data-name="Group 10734" transform="translate(0 2.402)">
            <path id="Path_22849" data-name="Path 22849" d="M391.1,445.6a3.248,3.248,0,0,0,.964-6.35c-11.277-3.5-18.832-10.638-22.465-21.214-4.723-13.752-1.393-30.805,4.554-39.352a8.121,8.121,0,0,1,5.82-3.552c9.256-1.307,23.855,8.58,28.694,12.505a3.248,3.248,0,0,0,4.094-5.043c-.8-.646-19.7-15.868-33.694-13.893a14.493,14.493,0,0,0-10.247,6.274c-6.776,9.738-10.956,28.878-5.361,45.17,4.279,12.462,13.5,21.214,26.678,25.308A3.287,3.287,0,0,0,391.1,445.6Z" transform="translate(-360.85 -368.524)" fill="#192026"/>
          </g>
          <path id="Path_22850" data-name="Path 22850" d="M366.433,367.572,337.9,456.859l83.65,21.424,16.719-90.819Z" transform="translate(-327.269 -367.572)" fill="#dbcac5"/>
          <line id="Line_6" data-name="Line 6" x1="44.319" y1="12.772" transform="translate(46.161 16.466)" fill="none" stroke="#192026" stroke-linecap="round" stroke-linejoin="round" stroke-width="0.75"/>
          <path id="Path_22851" data-name="Path 22851" d="M315.866,425.933S351.6,401.1,382.585,413.269l3.872-11.065s-35.3-12.558-65.781-2.407Z" transform="translate(-219.87 -324.534)" fill="#dbcac5"/>
          <line id="Line_7" data-name="Line 7" x1="55.644" y1="14.252" transform="translate(38.637 96.46)" fill="none" stroke="#192026" stroke-linecap="round" stroke-linejoin="round" stroke-width="0.75"/>
          <line id="Line_8" data-name="Line 8" x1="8.901" y2="48.348" transform="translate(98.225 40.939)" fill="none" stroke="#192026" stroke-linecap="round" stroke-linejoin="round" stroke-width="0.75"/>
          <path id="Path_22852" data-name="Path 22852" d="M384.12,404.617s-26.406-12.485-66.719,12.664" transform="translate(-221.405 -315.881)" fill="none" stroke="#192026" stroke-linecap="round" stroke-linejoin="round" stroke-width="0.75"/>
          <path id="Path_22853" data-name="Path 22853" d="M405.435,377.49l-35.817-9.918-17.44,54.575" transform="translate(-330.454 -367.572)" fill="none" stroke="#192026" stroke-linecap="round" stroke-linejoin="round" stroke-width="0.75"/>
        </g>
        <path id="Path_22854" data-name="Path 22854" d="M389.137,372.551l-13.3,6.493-3.179,27.215,26.476-5.331S399.859,374.138,389.137,372.551Z" transform="translate(-257.325 -352.276)" fill="#ffa083"/>
        <line id="Line_9" data-name="Line 9" x1="3.177" y2="27.215" transform="translate(115.337 26.769)" fill="none" stroke="#192026" stroke-linecap="round" stroke-linejoin="round" stroke-width="0.75"/>
        <line id="Line_10" data-name="Line 10" y1="6.386" x2="16.272" transform="translate(117.325 30.565)" fill="none" stroke="#192026" stroke-linecap="round" stroke-linejoin="round" stroke-width="0.75"/>
        <line id="Line_11" data-name="Line 11" y1="2.59" x2="16.672" transform="translate(116.925 40.376)" fill="none" stroke="#192026" stroke-linecap="round" stroke-linejoin="round" stroke-width="0.75"/>
        <path id="Path_22855" data-name="Path 22855" d="M311.319,408.633s12.2,17.044,3.923,24.45S311.319,408.633,311.319,408.633Z" transform="translate(-18.659 -297.332)" fill="#2d648e"/>
        <path id="Path_22856" data-name="Path 22856" d="M303.5,428.37s17.422,31.9,6.874,40.906S303.5,428.37,303.5,428.37Z" transform="translate(4.078 -267.278)" fill="#2d648e"/>
        <path id="Path_22857" data-name="Path 22857" d="M306.325,402.634s15.795,2.888,13.446,8.007S306.325,402.634,306.325,402.634Z" transform="translate(-10.837 -306.467)" fill="#2d648e"/>
        <path id="Path_22858" data-name="Path 22858" d="M324.414,407.008s-1.16,16.012-6.5,14.231S324.414,407.008,324.414,407.008Z" transform="translate(-40.977 -299.807)" fill="#2d648e"/>
        <path id="Path_22859" data-name="Path 22859" d="M301.909,415.349s14.988,16.07,6.5,22.384S301.909,415.349,301.909,415.349Z" transform="translate(9.813 -287.105)" fill="#2d648e"/>
      </g>
      <g id="Group_10737" data-name="Group 10737" transform="translate(0 16.951)">
        <path id="Path_22860" data-name="Path 22860" d="M453.873,348.224s13.325-5.848,5.961,21.363-38.449,85.859-38.449,85.859-28.928-.583-45.306-39.922S395.4,329.182,395.4,329.182Z" transform="translate(-117.389 -329.182)" fill="#192026"/>
        <path id="Path_22861" data-name="Path 22861" d="M574.075,498.291l-71.048-5.349-14.807,22.2,16.809,15.881h-56.52l17.82-76.322,133.285-23.186Z" transform="translate(-448.508 -173.357)" fill="#f7d187"/>
        <path id="Path_22862" data-name="Path 22862" d="M508.68,438.929s-14.67,18.461-17.78,34.044c0,0-15.936,3.328-17.881,11.592l29.382.083,34.753-.083-17.167-47.6Z" transform="translate(-447.883 -165.062)" fill="#ff9852"/>
        <path id="Path_22863" data-name="Path 22863" d="M525.437,402.965s115.4,62.592,115.4,112.762-34.16,58.767-67.165,58.767S396,551.59,396,551.59s-25.634-33.091-4.47-76.6c20.866-42.894,21.981-72.022,21.981-72.022Z" transform="translate(-324.873 -216.83)" fill="#184d47"/>
        <path id="Path_22864" data-name="Path 22864" d="M542.52,517.026H486L503.82,440.7" transform="translate(-486 -159.362)" fill="none" stroke="#192026" stroke-linecap="round" stroke-linejoin="round" stroke-width="0.75"/>
        <path id="Path_22865" data-name="Path 22865" d="M561.439,493.51l17.541-39.663s21.91-6.1,22.357-34c.474-29.577-13.2-62.234-71.391-64.925-77.229-3.572-130.759,164.125-130.759,164.125S489.559,532.973,561.439,493.51Z" transform="translate(-325.819 -290.071)" fill="#fad586"/>
        <path id="Path_22866" data-name="Path 22866" d="M450.167,392.666s-14.72-4.617-11.779,13.133c0,0,3.386,18.492-9.163,17.351s-31.022-25.906-33.5-45.821l35.8-35.445S467.016,345.758,450.167,392.666Z" transform="translate(-170.447 -309.837)" fill="#f7b59c"/>
        <path id="Path_22867" data-name="Path 22867" d="M395.723,344.231v.025c0,13.4.908,43.971,8.88,57.418-.126-12.866,12.16-9.006,12.16-9.006,16.852-46.9-18.668-50.783-18.668-50.783Z" transform="translate(-137.032 -309.839)" fill="#ef7760"/>
        <path id="Path_22868" data-name="Path 22868" d="M538.106,358.462s-51.1,23.451-97.388,155.111" transform="translate(-367.351 -284.596)" fill="none" stroke="#192026" stroke-linecap="round" stroke-linejoin="round" stroke-width="0.75"/>
      </g>
      <g id="Group_10738" data-name="Group 10738" transform="translate(163.398 90.819)">
        <path id="Path_22869" data-name="Path 22869" d="M413.343,381.443s-12.18-25.994-41.8-22.69-28.318,84.91,14.937,131.193,136.178,10.3,136.178,10.3l8.131,2.818c10.631,3.686,29.915,2.609,38.666-4.465l14.715-10.85L545.719,477.9c-11.337-12.255-26.133-18.762-38.9-8.007h0L439.4,457.948Z" transform="translate(-351.343 -358.463)" fill="#f7b59c"/>
        <path id="Path_22870" data-name="Path 22870" d="M460.306,409.847,392.893,397.9l-10.887,11.949" transform="translate(-304.834 -298.414)" fill="none" stroke="#192026" stroke-linecap="round" stroke-linejoin="round" stroke-width="0.75"/>
        <line id="Line_12" data-name="Line 12" y1="2.972" x2="15.138" transform="translate(72.921 99.484)" fill="none" stroke="#192026" stroke-linecap="round" stroke-linejoin="round" stroke-width="0.75"/>
        <line id="Line_13" data-name="Line 13" x1="20.868" y2="2.123" transform="translate(205.987 133.691)" fill="none" stroke="#192026" stroke-linecap="round" stroke-linejoin="round" stroke-width="0.75"/>
        <line id="Line_14" data-name="Line 14" x1="16.212" y2="2.575" transform="translate(201.9 140.139)" fill="none" stroke="#192026" stroke-linecap="round" stroke-linejoin="round" stroke-width="0.75"/>
        <path id="Path_22871" data-name="Path 22871" d="M415.807,423.755c-1.4-.361-38.452-9.849-38.452-9.849s-11.014-13.653-26.012-13.413" transform="translate(-182.979 -294.467)" fill="none" stroke="#192026" stroke-linecap="round" stroke-linejoin="round" stroke-width="0.75"/>
      </g>
      <g id="Group_10741" data-name="Group 10741" transform="translate(222.223)">
        <path id="Path_22872" data-name="Path 22872" d="M377.878,353.191c-6.38,19.175,2.525,56.59,21.7,62.97s41.363-20.691,47.743-39.867a36.593,36.593,0,1,0-69.444-23.1Z" transform="translate(-336.98 -313.82)" fill="#f7b59c"/>
        <g id="Group_10740" data-name="Group 10740" transform="translate(38.852 14.318)">
          <g id="Group_10739" data-name="Group 10739" clip-path="url(#clip-path)">
            <ellipse id="Ellipse_6" data-name="Ellipse 6" cx="21.705" cy="21.705" rx="21.705" ry="21.705" transform="translate(16.975 86.755) rotate(-154.996)" fill="#ffa083"/>
          </g>
        </g>
        <path id="Path_22874" data-name="Path 22874" d="M392.069,351.072s18.166-39.362,56.209-25.745c21.537,7.71,53,24.42,37.142,37.627,0,0-15.936,28.02-43.58,17.8l-38.689,64.774s-35.505-37.851-27.142-60.939S392.069,351.072,392.069,351.072Z" transform="translate(-374.734 -322.463)" fill="#192026"/>
        <path id="Path_22875" data-name="Path 22875" d="M399.026,348.737a16.037,16.037,0,0,0,10.157,20.28c8.4,2.8,13.242-3.161,16.037-11.567s2.492-16.072-5.913-18.868A16.038,16.038,0,0,0,399.026,348.737Z" transform="translate(-371.012 -299.172)" fill="#f7b59c"/>
        <path id="Path_22876" data-name="Path 22876" d="M387.117,353.554c-.7,2.1-.409,4.092.651,4.445s2.482-1.067,3.181-3.169.409-4.092-.651-4.443S387.816,351.452,387.117,353.554Z" transform="translate(-306.615 -280.022)" fill="#192026"/>
        <path id="Path_22877" data-name="Path 22877" d="M381.751,354.6c-1.461,1.811-1.9,3.877-.991,4.612s2.836-.136,4.3-1.948,1.9-3.878.991-4.614S383.212,352.791,381.751,354.6Z" transform="translate(-285.532 -276.888)" fill="#192026"/>
        <path id="Path_22878" data-name="Path 22878" d="M400.594,341.918s7.379-4.15,11.683.585-1,18.989-10.341,16.481" transform="translate(-364.039 -295.4)" fill="none" stroke="#192026" stroke-linecap="round" stroke-linejoin="round" stroke-width="0.75"/>
        <line id="Line_15" data-name="Line 15" y1="1.749" x2="7.977" transform="translate(41.729 52.724)" fill="none" stroke="#192026" stroke-linecap="round" stroke-linejoin="round" stroke-width="0.75"/>
        <path id="Path_22879" data-name="Path 22879" d="M393.62,351.875l-9.473-3.946S393.519,342.778,393.62,351.875Z" transform="translate(-302.374 -285.896)" fill="#192026"/>
        <path id="Path_22880" data-name="Path 22880" d="M378.188,351.307l5.515,1.269S384.054,346.14,378.188,351.307Z" transform="translate(-277.429 -281.598)" fill="#192026"/>
        <path id="Path_22881" data-name="Path 22881" d="M392.744,351.649s-2.878,11.481-4.8,14.423-4.327-.308-4.327-.308" transform="translate(-300.165 -278.019)" fill="none" stroke="#192026" stroke-linecap="round" stroke-linejoin="round" stroke-width="0.75"/>
        <path id="Path_22882" data-name="Path 22882" d="M399.34,364.659l-11.3-8.264s-.088,5.792,3.961,9.205" transform="translate(-317.922 -270.794)" fill="none" stroke="#192026" stroke-linecap="round" stroke-linejoin="round" stroke-width="0.75"/>
      </g>
    </g>
    <g id="Group_10744" data-name="Group 10744" transform="translate(387.456 197.14)">
      <g id="Group_10743" data-name="Group 10743" transform="translate(126.001)">
        <path id="Path_22883" data-name="Path 22883" d="M326.388,441.883s.275-45.23-42.98-47.96C283.408,393.923,282.618,443.4,326.388,441.883Z" transform="translate(-272.235 -317.111)" fill="#184d47"/>
        <path id="Path_22884" data-name="Path 22884" d="M258.79,439.569s16.92-22.561,43.421-12.079C302.211,427.49,282.231,458.971,258.79,439.569Z" transform="translate(-185.956 -270.227)" fill="#184d47"/>
        <path id="Path_22885" data-name="Path 22885" d="M255.318,430.665s-3.34-43.515,44.61-42.831C299.928,387.834,306.623,441.614,255.318,430.665Z" transform="translate(-175.075 -326.395)" fill="#184d47"/>
        <path id="Path_22886" data-name="Path 22886" d="M303.925,424.589S257.1,391.3,291.891,363.475C291.891,363.475,334.41,372.385,303.925,424.589Z" transform="translate(-249.734 -363.475)" fill="#184d47"/>
        <line id="Line_16" data-name="Line 16" x2="35.304" y2="34.744" transform="translate(26.375 95.096)" fill="none" stroke="#192026" stroke-linecap="round" stroke-linejoin="round" stroke-width="1"/>
        <line id="Line_17" data-name="Line 17" x1="48.684" y2="40.874" transform="translate(62.863 76.891)" fill="none" stroke="#192026" stroke-linecap="round" stroke-linejoin="round" stroke-width="1"/>
        <line id="Line_18" data-name="Line 18" x1="48.994" y2="13.9" transform="translate(50.884 160.887)" fill="none" stroke="#192026" stroke-linecap="round" stroke-linejoin="round" stroke-width="1"/>
        <path id="Path_22887" data-name="Path 22887" d="M326.724,372.525l12.079,50.79c23.527,88.523-58.984,198.916-58.984,198.916" transform="translate(-279.819 -349.694)" fill="none" stroke="#192026" stroke-linecap="round" stroke-linejoin="round" stroke-width="1"/>
      </g>
      <path id="Path_22888" data-name="Path 22888" d="M392.1,500.99s-15.989-49.754-76.192-49.754S241.6,500.99,241.6,500.99Z" transform="translate(-106.468 -229.838)" fill="#723525"/>
      <path id="Path_22889" data-name="Path 22889" d="M268.146,496.245s46.333-41.893,117.86-41.893S486.8,496.245,486.8,496.245Z" transform="translate(-268.146 -225.093)" fill="#a5664c"/>
      <line id="Line_19" data-name="Line 19" x1="285.632" transform="translate(0.001 271.152)" fill="none" stroke="#192026" stroke-linecap="round" stroke-linejoin="round" stroke-width="1"/>
    </g>
  </g>
</svg>
