<svg xmlns="http://www.w3.org/2000/svg" width="39.022" height="31.218" viewBox="0 0 39.022 31.218">
  <path id="Icon_awesome-eye-slash" data-name="Icon awesome-eye-slash" d="M19.511,24.389A8.747,8.747,0,0,1,10.8,16.273L4.4,11.33a20.321,20.321,0,0,0-2.239,3.389,1.972,1.972,0,0,0,0,1.78A19.556,19.556,0,0,0,19.511,27.315a18.939,18.939,0,0,0,4.749-.638L21.1,24.23A8.788,8.788,0,0,1,19.511,24.389Zm19.134,3.542L31.9,22.722A20.2,20.2,0,0,0,36.859,16.5a1.972,1.972,0,0,0,0-1.78A19.556,19.556,0,0,0,19.511,3.9a18.788,18.788,0,0,0-8.982,2.3l-7.757-6A.976.976,0,0,0,1.4.377L.205,1.918A.976.976,0,0,0,.377,3.286L36.25,31.012a.976.976,0,0,0,1.369-.171l1.2-1.541a.976.976,0,0,0-.172-1.369Zm-11.2-8.658-2.4-1.852a5.777,5.777,0,0,0-7.079-7.434,2.905,2.905,0,0,1,.568,1.72,2.844,2.844,0,0,1-.094.61L13.953,8.848a8.677,8.677,0,0,1,5.558-2.019,8.775,8.775,0,0,1,8.78,8.78,8.572,8.572,0,0,1-.848,3.665Z" transform="translate(0 0)" fill="#184d47" opacity="0.54"/>
</svg>
