<svg xmlns="http://www.w3.org/2000/svg" xmlns:xlink="http://www.w3.org/1999/xlink" width="234.682" height="217" viewBox="0 0 234.682 217">
  <defs>
    <linearGradient id="linear-gradient" x1="0.127" y1="0.984" x2="0.874" y2="0.016" gradientUnits="objectBoundingBox">
      <stop offset="0" stop-color="#b2b2b2"/>
      <stop offset="1" stop-color="#fff"/>
    </linearGradient>
    <linearGradient id="linear-gradient-2" x1="0.863" y1="0.011" x2="0.137" y2="0.989" xlink:href="#linear-gradient"/>
    <linearGradient id="linear-gradient-3" x1="0.126" y1="0.984" x2="0.874" y2="0.016" xlink:href="#linear-gradient"/>
    <linearGradient id="linear-gradient-4" x1="0.863" y1="0.01" x2="0.137" y2="0.989" xlink:href="#linear-gradient"/>
    <linearGradient id="linear-gradient-5" x1="0.126" y1="0.984" x2="0.874" y2="0.016" xlink:href="#linear-gradient"/>
    <linearGradient id="linear-gradient-6" x1="0.863" y1="0.011" x2="0.137" y2="0.989" xlink:href="#linear-gradient"/>
    <linearGradient id="linear-gradient-7" x1="0.126" y1="0.984" x2="0.873" y2="0.016" xlink:href="#linear-gradient"/>
    <linearGradient id="linear-gradient-8" x1="0.863" y1="0.01" x2="0.137" y2="0.99" xlink:href="#linear-gradient"/>
    <linearGradient id="linear-gradient-9" x1="0.136" y1="0.988" x2="0.864" y2="0.012" xlink:href="#linear-gradient"/>
    <linearGradient id="linear-gradient-10" x1="0.853" y1="0.008" x2="0.147" y2="0.993" xlink:href="#linear-gradient"/>
    <linearGradient id="linear-gradient-11" x1="0.136" y1="0.987" x2="0.864" y2="0.012" xlink:href="#linear-gradient"/>
    <linearGradient id="linear-gradient-12" x1="0.853" y1="0.007" x2="0.147" y2="0.993" xlink:href="#linear-gradient"/>
    <linearGradient id="linear-gradient-13" x1="0.136" y1="0.988" x2="0.864" y2="0.012" xlink:href="#linear-gradient"/>
    <linearGradient id="linear-gradient-14" x1="0.853" y1="0.007" x2="0.147" y2="0.992" xlink:href="#linear-gradient"/>
    <linearGradient id="linear-gradient-15" x1="0.136" y1="0.988" x2="0.864" y2="0.012" xlink:href="#linear-gradient"/>
    <linearGradient id="linear-gradient-16" x1="0.853" y1="0.007" x2="0.147" y2="0.993" xlink:href="#linear-gradient"/>
    <radialGradient id="radial-gradient" cx="0.5" cy="0.5" r="0.62" gradientTransform="translate(0.153) scale(0.693 1)" gradientUnits="objectBoundingBox">
      <stop offset="0" stop-color="#2ad6bc"/>
      <stop offset="1" stop-color="#023d2d"/>
    </radialGradient>
  </defs>
  <g id="Group_13800" data-name="Group 13800" transform="translate(-71.187 -27.208)">
    <g id="Group_13761" data-name="Group 13761" transform="translate(71.187 102.339)">
      <path id="Path_40813" data-name="Path 40813" d="M113.758,180.961l27.621,15.948L278.633,117.1l-27.6-15.963Z" transform="translate(-43.951 -55.039)" fill="#784010" fill-rule="evenodd"/>
      <path id="Path_40814" data-name="Path 40814" d="M252.888,122.739l-43.7-25.487-20.814,11.934-52.8-35.718a2.828,2.828,0,0,0-3.037,0l-34.6,19.417-9.183-5.31L71.187,97.687l19.2,11.087,5.306-3.055,49.021,28.5-20.423,11.711,38.645,22.516a9.855,9.855,0,0,0,10.154,0l15.363-8.8,6.412,3.727c19.435-5.623,31.131-11.36,40.519-22.393l-6.58-4.45Z" transform="translate(-71.187 -73.026)" fill="#784010" fill-rule="evenodd"/>
    </g>
    <g id="Group_13799" data-name="Group 13799" transform="translate(74.311 27.208)">
      <g id="Group_13764" data-name="Group 13764" transform="translate(110.9 64.222)">
        <path id="Path_40815" data-name="Path 40815" d="M144.5,79.855,174.653,130.2l20.066-11.278c20.13-11.387-9.873-62.445-29.887-50.85Z" transform="translate(-138.307 -66.373)" fill="#161713" fill-rule="evenodd"/>
        <g id="Group_13762" data-name="Group 13762" transform="translate(6.193 0.008)">
          <path id="Path_40816" data-name="Path 40816" d="M146.7,83.527h0L175.653,67.1a13.532,13.532,0,0,0-8.461-.09L144.5,79.852Z" transform="translate(-144.5 -66.378)" fill="#363634" fill-rule="evenodd"/>
          <path id="Path_40817" data-name="Path 40817" d="M149.346,89.418l32.9-18.662a28.756,28.756,0,0,0-4.824-3.15l-30.811,17.25Z" transform="translate(-143.147 -65.593)" fill="#363634" fill-rule="evenodd"/>
          <path id="Path_40818" data-name="Path 40818" d="M149.278,89.953l4.911,2.834L186.479,74.47a44.909,44.909,0,0,0-3.644-3.817L149.048,89.571Z" transform="translate(-141.59 -63.643)" fill="#363634" fill-rule="evenodd"/>
          <path id="Path_40819" data-name="Path 40819" d="M152,93.51l5.36,3.091,31.882-18.082c-.912-1.461-1.889-2.876-2.919-4.227Z" transform="translate(-139.702 -61.315)" fill="#363634" fill-rule="evenodd"/>
          <path id="Path_40820" data-name="Path 40820" d="M155.19,96.792l5.36,3.093,30.224-17.144c-.694-1.548-1.468-3.079-2.315-4.577Z" transform="translate(-137.661 -58.838)" fill="#363634" fill-rule="evenodd"/>
          <path id="Path_40821" data-name="Path 40821" d="M157.927,100.436l5.36,3.093,28.381-16.1a45.793,45.793,0,0,0-1.618-4.98Z" transform="translate(-135.91 -56.095)" fill="#363634" fill-rule="evenodd"/>
          <path id="Path_40822" data-name="Path 40822" d="M160.86,109.113l1.282.741,30.09-17.067a28.35,28.35,0,0,0-.28-4.283c-.031-.228-.064-.456-.1-.685l-.043-.259c-.02-.123-.046-.248-.069-.371l-32.958,18.452Z" transform="translate(-135.363 -53.064)" fill="#363634" fill-rule="evenodd"/>
          <path id="Path_40823" data-name="Path 40823" d="M163.878,113.36l22.516-12.769c.161-.149.318-.3.469-.457l.1-.107a13.9,13.9,0,0,0,3.522-7.648L161.149,108.8Z" transform="translate(-133.848 -49.744)" fill="#363634" fill-rule="evenodd"/>
        </g>
        <path id="Path_40824" data-name="Path 40824" d="M161.591,76.547c11.529,6.567,20.876,22.642,20.876,35.893s-9.347,18.687-20.876,12.12-20.868-22.637-20.868-35.9S150.07,69.985,161.591,76.547Z" transform="translate(-140.723 -61.647)" fill="#161713" fill-rule="evenodd"/>
        <path id="Path_40825" data-name="Path 40825" d="M159.147,80.618c8.066,4.595,14.606,15.842,14.606,25.113s-6.539,13.074-14.606,8.479-14.6-15.839-14.6-25.117S151.085,76.026,159.147,80.618Z" transform="translate(-138.277 -58.508)" fill="#7c7ea3" fill-rule="evenodd"/>
        <path id="Path_40826" data-name="Path 40826" d="M156.949,83.556c6.136,3.5,11.11,12.051,11.11,19.1s-4.973,9.945-11.11,6.449S145.843,97.061,145.843,90,150.818,80.063,156.949,83.556Z" transform="translate(-137.447 -56.329)" fill="#9395ba" fill-rule="evenodd"/>
        <g id="Group_13763" data-name="Group 13763" transform="translate(13.874 33.821)">
          <path id="Path_40827" data-name="Path 40827" d="M154.266,87.678a11.107,11.107,0,0,1,5.082,8.74c0,3.227-2.274,4.549-5.082,2.95a11.109,11.109,0,0,1-5.082-8.74C149.184,87.4,151.46,86.079,154.266,87.678Z" transform="translate(-149.184 -86.999)" fill="#363634" fill-rule="evenodd"/>
          <path id="Path_40828" data-name="Path 40828" d="M157.924,99.39a3.916,3.916,0,0,1-3.1-.551,11.111,11.111,0,0,1-5.082-8.74,3.9,3.9,0,0,1,1.068-2.973,3.921,3.921,0,0,1,3.1.551,11.1,11.1,0,0,1,5.083,8.738A3.91,3.91,0,0,1,157.924,99.39Z" transform="translate(-148.827 -86.998)" fill="#eda705" fill-rule="evenodd"/>
        </g>
      </g>
      <path id="Path_40829" data-name="Path 40829" d="M145.192,77.606c10.034,5.8,31.813,22.714,35.027,20.865l17.413-10.017a3.28,3.28,0,0,0,1.682-2.912V83.751h-.5a3.355,3.355,0,0,0-1.181-1.125L143.716,51.451Z" transform="translate(-27.908 -11.698)" fill="#7d870b" fill-rule="evenodd"/>
      <path id="Path_40830" data-name="Path 40830" d="M145.2,76.666c10.034,5.8,31.813,22.714,35.027,20.865l17.413-10.017a3.365,3.365,0,0,0,0-5.826L143.721,50.511Z" transform="translate(-27.905 -12.3)" fill="#9faa20" fill-rule="evenodd"/>
      <path id="Path_40831" data-name="Path 40831" d="M82.825,69.587l100.629,57.278-.031,13L82.825,82.345Z" transform="translate(-66.865 -0.095)" fill="#181914" fill-rule="evenodd"/>
      <path id="Path_40832" data-name="Path 40832" d="M78.351,65.162l77.969,44.311,10.408,14.966L80.223,74.76Z" transform="translate(-69.727 -2.926)" fill="#a39a8f" fill-rule="evenodd"/>
      <g id="Group_13767" data-name="Group 13767" transform="translate(0 77.423)">
        <path id="Path_40833" data-name="Path 40833" d="M74.792,80.491l13.574,22.665L97.4,98.08c9.061-5.126-4.444-28.111-13.453-22.89Z" transform="translate(-72.004 -74.424)" fill="#161713" fill-rule="evenodd"/>
        <g id="Group_13765" data-name="Group 13765" transform="translate(2.789 0.003)">
          <path id="Path_40834" data-name="Path 40834" d="M75.782,82.145h0l13.033-7.392a6.092,6.092,0,0,0-3.809-.041L74.793,80.49Z" transform="translate(-74.793 -74.426)" fill="#363634" fill-rule="evenodd"/>
          <path id="Path_40835" data-name="Path 40835" d="M76.974,84.8l14.812-8.4a12.976,12.976,0,0,0-2.171-1.418L75.744,82.744Z" transform="translate(-74.185 -74.072)" fill="#363634" fill-rule="evenodd"/>
          <path id="Path_40836" data-name="Path 40836" d="M76.943,85.038l2.21,1.276,14.535-8.245a19.723,19.723,0,0,0-1.64-1.719L76.84,84.865Z" transform="translate(-73.483 -73.194)" fill="#363634" fill-rule="evenodd"/>
          <path id="Path_40837" data-name="Path 40837" d="M78.168,86.639l2.414,1.391,14.351-8.14c-.41-.658-.849-1.294-1.313-1.9Z" transform="translate(-72.634 -72.146)" fill="#363634" fill-rule="evenodd"/>
          <path id="Path_40838" data-name="Path 40838" d="M79.6,88.117l2.414,1.391,13.607-7.717c-.313-.7-.662-1.386-1.043-2.06Z" transform="translate(-71.715 -71.031)" fill="#363634" fill-rule="evenodd"/>
          <path id="Path_40839" data-name="Path 40839" d="M80.837,89.757l2.412,1.392L96.026,83.9a20.491,20.491,0,0,0-.73-2.242Z" transform="translate(-70.926 -69.797)" fill="#363634" fill-rule="evenodd"/>
          <path id="Path_40840" data-name="Path 40840" d="M82.157,93.662l.577.333,13.545-7.682a12.787,12.787,0,0,0-.125-1.927c-.015-.1-.03-.207-.048-.31l-.018-.116c-.01-.056-.021-.111-.031-.166L81.222,92.1Z" transform="translate(-70.68 -68.432)" fill="#363634" fill-rule="evenodd"/>
          <path id="Path_40841" data-name="Path 40841" d="M83.515,95.575l10.135-5.749q.108-.1.212-.207l.046-.048a6.269,6.269,0,0,0,1.586-3.442L82.287,93.524Z" transform="translate(-69.998 -66.937)" fill="#363634" fill-rule="evenodd"/>
        </g>
        <path id="Path_40842" data-name="Path 40842" d="M82.486,79c5.19,2.955,9.4,10.191,9.4,16.157s-4.208,8.412-9.4,5.456-9.394-10.191-9.394-16.16S77.3,76.049,82.486,79Z" transform="translate(-73.092 -72.296)" fill="#161713" fill-rule="evenodd"/>
        <path id="Path_40843" data-name="Path 40843" d="M81.385,80.835a14.367,14.367,0,0,1,6.576,11.3c0,4.177-2.943,5.885-6.576,3.817a14.37,14.37,0,0,1-6.572-11.306C74.813,80.478,77.756,78.769,81.385,80.835Z" transform="translate(-71.991 -70.883)" fill="#bcb5ad" fill-rule="evenodd"/>
        <path id="Path_40844" data-name="Path 40844" d="M80.4,82.159a10.928,10.928,0,0,1,5,8.6c0,3.178-2.24,4.477-5,2.9a10.931,10.931,0,0,1-5-8.6C75.4,81.885,77.637,80.586,80.4,82.159Z" transform="translate(-71.617 -69.902)" fill="#7d870b" fill-rule="evenodd"/>
        <g id="Group_13766" data-name="Group 13766" transform="translate(6.246 15.224)">
          <path id="Path_40845" data-name="Path 40845" d="M79.188,84.013a5,5,0,0,1,2.288,3.934c0,1.454-1.023,2.048-2.288,1.328A5,5,0,0,1,76.9,85.341C76.9,83.888,77.926,83.295,79.188,84.013Z" transform="translate(-76.901 -83.708)" fill="#363634" fill-rule="evenodd"/>
          <path id="Path_40846" data-name="Path 40846" d="M80.836,89.286a1.766,1.766,0,0,1-1.4-.249A5,5,0,0,1,77.153,85.1a1.76,1.76,0,0,1,.479-1.338,1.767,1.767,0,0,1,1.4.248,5,5,0,0,1,2.288,3.934A1.764,1.764,0,0,1,80.836,89.286Z" transform="translate(-76.74 -83.708)" fill="#bcb5ad" fill-rule="evenodd"/>
        </g>
      </g>
      <path id="Path_40847" data-name="Path 40847" d="M185.6,116.73c0-5.008-.036-13.517-.505-20.433l0,0L146.07,120.526l0,.83c.443,6.754.446,13.046.446,17.952C160.3,134.929,177.8,125.162,185.6,116.73Z" transform="translate(-26.404 16.99)" fill="#181914" fill-rule="evenodd"/>
      <g id="Group_13769" data-name="Group 13769" transform="translate(44.192 21.234)">
        <path id="Path_40848" data-name="Path 40848" d="M103.805,53.587l30.041,50.161,19.991-11.236C173.891,81.168,144,30.3,124.061,41.852Z" transform="translate(-97.635 -40.157)" fill="#161713" fill-rule="evenodd"/>
        <g id="Group_13768" data-name="Group 13768" transform="translate(6.17 0.007)">
          <path id="Path_40849" data-name="Path 40849" d="M106,57.246h0l28.845-16.36a13.47,13.47,0,0,0-8.43-.09l-22.608,12.79Z" transform="translate(-103.805 -40.161)" fill="#363634" fill-rule="evenodd"/>
          <path id="Path_40850" data-name="Path 40850" d="M108.635,63.115l32.781-18.592a28.556,28.556,0,0,0-4.808-3.139l-30.7,17.185Z" transform="translate(-102.458 -39.379)" fill="#363634" fill-rule="evenodd"/>
          <path id="Path_40851" data-name="Path 40851" d="M108.565,63.65l4.891,2.822,32.171-18.247A45.085,45.085,0,0,0,142,44.42L108.337,63.268Z" transform="translate(-100.906 -37.437)" fill="#363634" fill-rule="evenodd"/>
          <path id="Path_40852" data-name="Path 40852" d="M111.276,67.192l5.341,3.08,31.764-18.015c-.908-1.456-1.882-2.865-2.909-4.211Z" transform="translate(-99.025 -35.117)" fill="#363634" fill-rule="evenodd"/>
          <path id="Path_40853" data-name="Path 40853" d="M114.455,70.461l5.341,3.081,30.113-17.08c-.692-1.541-1.463-3.068-2.307-4.559Z" transform="translate(-96.991 -32.649)" fill="#363634" fill-rule="evenodd"/>
          <path id="Path_40854" data-name="Path 40854" d="M117.182,74.092l5.341,3.081L150.8,61.136a45.109,45.109,0,0,0-1.612-4.962Z" transform="translate(-95.247 -29.917)" fill="#363634" fill-rule="evenodd"/>
          <path id="Path_40855" data-name="Path 40855" d="M120.106,82.737l1.277.738,29.977-17a28.133,28.133,0,0,0-.279-4.267c-.033-.228-.064-.454-.1-.684l-.043-.257c-.02-.123-.046-.246-.067-.369L118.033,79.277Z" transform="translate(-94.702 -26.897)" fill="#363634" fill-rule="evenodd"/>
          <path id="Path_40856" data-name="Path 40856" d="M123.112,86.969l22.431-12.721q.241-.224.467-.457l.1-.1a13.865,13.865,0,0,0,3.509-7.62L120.393,82.43Z" transform="translate(-93.192 -23.589)" fill="#363634" fill-rule="evenodd"/>
        </g>
        <path id="Path_40857" data-name="Path 40857" d="M120.833,50.292c11.487,6.544,20.8,22.558,20.8,35.76s-9.312,18.616-20.8,12.074-20.791-22.554-20.791-35.764S109.354,43.754,120.833,50.292Z" transform="translate(-100.042 -35.449)" fill="#161713" fill-rule="evenodd"/>
        <path id="Path_40858" data-name="Path 40858" d="M118.4,54.348c8.037,4.578,14.551,15.783,14.551,25.02s-6.515,13.025-14.551,8.447-14.546-15.778-14.546-25.021S110.366,49.774,118.4,54.348Z" transform="translate(-97.605 -32.321)" fill="#363634" fill-rule="evenodd"/>
        <path id="Path_40859" data-name="Path 40859" d="M128.882,87.8c-2.438.731-5.474.261-8.768-1.614-8.03-4.575-14.545-15.78-14.545-25.023,0-3.8,1.105-6.679,2.965-8.43,2.438-.733,5.472-.262,8.763,1.614,8.038,4.577,14.551,15.78,14.551,25.018C131.848,83.173,130.741,86.049,128.882,87.8Z" transform="translate(-96.506 -32.321)" fill="#7c7ea3" fill-rule="evenodd"/>
        <path id="Path_40860" data-name="Path 40860" d="M116.883,58.625a14.009,14.009,0,0,1,6.41,11.021c0,4.072-2.87,5.738-6.41,3.721a14,14,0,0,1-6.408-11.021C110.475,58.276,113.345,56.61,116.883,58.625Z" transform="translate(-93.367 -28.889)" fill="#363634" fill-rule="evenodd"/>
        <path id="Path_40861" data-name="Path 40861" d="M121.5,73.395a4.949,4.949,0,0,1-3.913-.7,14.008,14.008,0,0,1-6.4-11.023,4.925,4.925,0,0,1,1.343-3.747,4.949,4.949,0,0,1,3.908.7,14,14,0,0,1,6.412,11.019A4.933,4.933,0,0,1,121.5,73.395Z" transform="translate(-92.916 -28.888)" fill="#eda705" fill-rule="evenodd"/>
      </g>
      <path id="Path_40862" data-name="Path 40862" d="M108.15,50.752c13.558,1.056,22.083,10.27,27.258,19.728a6.737,6.737,0,0,0,9.265,2.6l11.754-6.784a2.928,2.928,0,0,0,1.269-3.24c-1.251-9.748-21.412-26.274-35-24.746l-15.114,8.727a1.975,1.975,0,0,0-.828.94h-.18l.007,1.082A1.677,1.677,0,0,0,108.15,50.752Z" transform="translate(-51.671 -20.17)" fill="#e39400" fill-rule="evenodd"/>
      <path id="Path_40863" data-name="Path 40863" d="M108.151,50.3c13.558,1.054,22.083,10.27,27.258,19.728a6.738,6.738,0,0,0,9.265,2.6l11.346-6.548a3.334,3.334,0,0,0,1.535-3.9c-3.681-12.052-15.991-26.448-34.858-24.326l-15.114,8.729C106.016,47.483,106.32,50.154,108.151,50.3Z" transform="translate(-51.672 -20.533)" fill="#fc0" fill-rule="evenodd"/>
      <path id="Path_40864" data-name="Path 40864" d="M80.964,49.8,148.039,86.7l39-22.611L123.811,27.669a3.291,3.291,0,0,0-3.327-.018Z" transform="translate(-68.056 -27.208)" fill="#f1ece6" fill-rule="evenodd"/>
      <path id="Path_40865" data-name="Path 40865" d="M132.483,66.984l19.151,11.055,8.765,51.506-2.156-3.1-25.759-14.63V66.984Zm0,48.531,30.49,17.615-.046-.221-30.444-17.485ZM87.822,41.2l44.661,25.781v44.833L77.259,80.454,75.345,69.178l7.431-25.062c.351-1.184.612-2.3,1.682-2.912a3.281,3.281,0,0,1,3.363,0Zm44.661,74.22L104.568,99.389l27.916,16.126Z" transform="translate(-71.651 -18.551)" fill="#bcb5ad" fill-rule="evenodd"/>
      <path id="Path_40866" data-name="Path 40866" d="M170.809,160.431c0-17.332,1.555-72.559-17.826-83.827L130.649,63.615c-13.894-1.538-22.263,2.037-22.558,13.084,8.473,5.129,50.751,51.123,49.728,76.229Z" transform="translate(-50.7 -4.133)" fill="#7d870b" fill-rule="evenodd"/>
      <path id="Path_40867" data-name="Path 40867" d="M75.811,54.981,130.2,87.975l2.654-2.817L77.475,53.088Z" transform="translate(-71.352 -10.651)" fill="#9faa20" fill-rule="evenodd"/>
      <g id="Group_13771" data-name="Group 13771" transform="translate(23.966 2.365)">
        <path id="Path_40868" data-name="Path 40868" d="M139.309,72.34V69.674L87.71,39.836l0,2.7Z" transform="translate(-87.707 -21.494)" fill="#333" fill-rule="evenodd"/>
        <path id="Path_40869" data-name="Path 40869" d="M119.176,67.85V65.184l31.754-18.33v2.663Z" transform="translate(-67.574 -17.004)" fill="#181914" fill-rule="evenodd"/>
        <path id="Path_40870" data-name="Path 40870" d="M87.709,46.992l51.6,29.839L171.062,58.5l-51.584-29.85Z" transform="translate(-87.706 -28.651)" fill="#666" fill-rule="evenodd"/>
        <g id="Group_13770" data-name="Group 13770" transform="translate(3.817 2.072)">
          <path id="Path_40871" data-name="Path 40871" d="M90.035,46.116l5.3,3.063,28.026-16.192-5.284-3.072Z" transform="translate(-90.035 -29.914)" fill="#41435e" fill-rule="evenodd"/>
          <path id="Path_40872" data-name="Path 40872" d="M94.359,48.616l5.3,3.063,28.026-16.192L122.4,32.414Z" transform="translate(-87.269 -28.315)" fill="#41435e" fill-rule="evenodd"/>
          <path id="Path_40873" data-name="Path 40873" d="M98.683,51.116l5.3,3.063,28.026-16.192-5.285-3.073Z" transform="translate(-84.503 -26.715)" fill="#41435e" fill-rule="evenodd"/>
          <path id="Path_40874" data-name="Path 40874" d="M103.007,53.616l5.3,3.063,28.026-16.192-5.284-3.072Z" transform="translate(-81.736 -25.116)" fill="#41435e" fill-rule="evenodd"/>
          <path id="Path_40875" data-name="Path 40875" d="M107.33,56.116l5.3,3.063,28.026-16.192-5.285-3.072Z" transform="translate(-78.97 -23.516)" fill="#41435e" fill-rule="evenodd"/>
          <path id="Path_40876" data-name="Path 40876" d="M111.654,58.616l5.3,3.063,28.026-16.193-5.285-3.072Z" transform="translate(-76.204 -21.917)" fill="#41435e" fill-rule="evenodd"/>
          <path id="Path_40877" data-name="Path 40877" d="M115.978,61.116l5.3,3.064L149.3,47.987l-5.284-3.073Z" transform="translate(-73.438 -20.317)" fill="#41435e" fill-rule="evenodd"/>
        </g>
      </g>
      <path id="Path_40878" data-name="Path 40878" d="M76.584,54.243l54.678,31.549,7.595,13.468L74.6,60.923Z" transform="translate(-72.125 -9.912)" fill="#7d870b" fill-rule="evenodd"/>
      <path id="Path_40879" data-name="Path 40879" d="M121.848,72.3l22.333,12.989,39.189-22.612L160.887,49.7Z" transform="translate(-41.899 -12.82)" fill="#9faa20" fill-rule="evenodd"/>
      <g id="Group_13772" data-name="Group 13772" transform="translate(79.444 43.459)">
        <path id="Path_40880" data-name="Path 40880" d="M140.952,71.742l-2.261-2.465,8.368-4.845,2.258,2.463Z" transform="translate(-110.566 -46.852)" fill="#8b9615" fill-rule="evenodd"/>
        <path id="Path_40881" data-name="Path 40881" d="M121.545,56.67l28.12,17.574,2.261,2.465L121.54,59.294Z" transform="translate(-121.54 -51.818)" fill="#7d870b" fill-rule="evenodd"/>
        <path id="Path_40882" data-name="Path 40882" d="M121.543,58.563l28.12,17.574,8.368-4.845L129.92,53.711Z" transform="translate(-121.538 -53.711)" fill="#9faa20" fill-rule="evenodd"/>
      </g>
      <g id="Group_13773" data-name="Group 13773" transform="translate(95.72 33.97)">
        <path id="Path_40883" data-name="Path 40883" d="M150.879,65.955l-2.261-2.465,8.369-4.845,2.258,2.463Z" transform="translate(-120.492 -41.065)" fill="#8b9615" fill-rule="evenodd"/>
        <path id="Path_40884" data-name="Path 40884" d="M131.471,50.883l28.12,17.574,2.262,2.465L131.466,53.507Z" transform="translate(-131.466 -46.031)" fill="#7d870b" fill-rule="evenodd"/>
        <path id="Path_40885" data-name="Path 40885" d="M131.469,52.776l28.12,17.574,8.369-4.845L139.846,47.924Z" transform="translate(-131.464 -47.924)" fill="#9faa20" fill-rule="evenodd"/>
      </g>
      <path id="Path_40886" data-name="Path 40886" d="M191.954,122.63c-1.107-16.34-4.867-56.449-17.372-64.989L135.468,80.209c12.62,8.651,16.306,48.6,17.383,65.045Z" transform="translate(-33.185 -7.738)" fill="#8b9615" fill-rule="evenodd"/>
      <path id="Path_40887" data-name="Path 40887" d="M185.538,101.818c-.213-3.137-.523-7.151-.974-11.647L145.5,112.9c.436,4.445.735,8.419.94,11.542Z" transform="translate(-26.769 13.074)" fill="#363634" fill-rule="evenodd"/>
      <path id="Path_40888" data-name="Path 40888" d="M135.468,73.072c5.626,3.857,9.476,14.109,12.111,25.741l4.662-2.689a3.324,3.324,0,0,0,1.6-3.68c-2.5-10.714-6.044-19.866-10.962-23.647Z" transform="translate(-33.185 -0.601)" fill="#666" fill-rule="evenodd"/>
      <path id="Path_40889" data-name="Path 40889" d="M155.04,61.839c5.249,3.568,9.047,12.61,11.787,23.155a2.018,2.018,0,0,0,2.968,1.238l4.432-2.578c-2.671-11.749-6.5-22.022-11.833-26.089Z" transform="translate(-20.663 -7.786)" fill="#666" fill-rule="evenodd"/>
      <path id="Path_40890" data-name="Path 40890" d="M147.3,97.4l3.46-2a3.326,3.326,0,0,0,1.591-3.7c-2.4-9.98-6.013-18.407-10.491-22.55l-6.4,3.691C140.3,77,144.679,86.259,147.3,97.4Z" transform="translate(-33.185 -0.373)" fill="#333" fill-rule="evenodd"/>
      <g id="Group_13774" data-name="Group 13774" transform="translate(106.007 70.407)">
        <path id="Path_40891" data-name="Path 40891" d="M140.14,70.466a5.241,5.241,0,0,0-2.4,4.127c0,1.525,1.074,2.15,2.4,1.394a5.248,5.248,0,0,0,2.4-4.129C142.54,70.335,141.465,69.71,140.14,70.466Z" transform="translate(-137.739 -70.145)" fill="#7f7f7f" fill-rule="evenodd"/>
        <path id="Path_40892" data-name="Path 40892" d="M140.323,70.567a5.248,5.248,0,0,0-2.4,4.127c0,1.525,1.076,2.148,2.4,1.394a5.248,5.248,0,0,0,2.4-4.129C142.723,70.436,141.648,69.811,140.323,70.567Z" transform="translate(-137.622 -70.081)" fill-rule="evenodd" fill="url(#linear-gradient)"/>
        <path id="Path_40893" data-name="Path 40893" d="M140.134,70.881a4.19,4.19,0,0,0-1.917,3.3c0,1.218.859,1.717,1.917,1.113a4.189,4.189,0,0,0,1.917-3.3C142.051,70.776,141.193,70.278,140.134,70.881Z" transform="translate(-137.433 -69.838)" fill-rule="evenodd" fill="url(#linear-gradient-2)"/>
        <path id="Path_40894" data-name="Path 40894" d="M139.187,71.457a1.378,1.378,0,0,0-.633,1.086c0,.4.284.566.633.367a1.386,1.386,0,0,0,.631-1.087C139.818,71.421,139.535,71.259,139.187,71.457Z" transform="translate(-137.218 -69.36)" fill="#fff" fill-rule="evenodd"/>
      </g>
      <g id="Group_13775" data-name="Group 13775" transform="translate(109.27 76.154)">
        <path id="Path_40895" data-name="Path 40895" d="M142.13,73.97a5.251,5.251,0,0,0-2.4,4.129c0,1.525,1.076,2.148,2.4,1.394a5.251,5.251,0,0,0,2.4-4.129C144.53,73.84,143.455,73.216,142.13,73.97Z" transform="translate(-139.729 -73.65)" fill="#7f7f7f" fill-rule="evenodd"/>
        <path id="Path_40896" data-name="Path 40896" d="M142.314,74.071a5.246,5.246,0,0,0-2.4,4.129c0,1.525,1.074,2.148,2.4,1.394a5.249,5.249,0,0,0,2.4-4.129C144.713,73.941,143.639,73.317,142.314,74.071Z" transform="translate(-139.611 -73.585)" fill-rule="evenodd" fill="url(#linear-gradient-3)"/>
        <path id="Path_40897" data-name="Path 40897" d="M142.126,74.385a4.193,4.193,0,0,0-1.919,3.3c0,1.217.859,1.717,1.919,1.113a4.193,4.193,0,0,0,1.917-3.3C144.042,74.281,143.183,73.783,142.126,74.385Z" transform="translate(-139.423 -73.343)" fill-rule="evenodd" fill="url(#linear-gradient-4)"/>
        <path id="Path_40898" data-name="Path 40898" d="M141.176,74.961a1.379,1.379,0,0,0-.631,1.086c0,.4.282.566.631.367a1.379,1.379,0,0,0,.631-1.086C141.808,74.926,141.526,74.762,141.176,74.961Z" transform="translate(-139.207 -72.865)" fill="#fff" fill-rule="evenodd"/>
      </g>
      <g id="Group_13776" data-name="Group 13776" transform="translate(111.581 82.223)">
        <path id="Path_40899" data-name="Path 40899" d="M143.539,77.671a5.246,5.246,0,0,0-2.4,4.127c0,1.525,1.074,2.15,2.4,1.394a5.244,5.244,0,0,0,2.4-4.127C145.938,77.54,144.864,76.917,143.539,77.671Z" transform="translate(-141.138 -77.351)" fill="#7f7f7f" fill-rule="evenodd"/>
        <path id="Path_40900" data-name="Path 40900" d="M143.722,77.772a5.25,5.25,0,0,0-2.4,4.127c0,1.527,1.076,2.15,2.4,1.394a5.245,5.245,0,0,0,2.4-4.127C146.122,77.641,145.047,77.018,143.722,77.772Z" transform="translate(-141.021 -77.286)" fill-rule="evenodd" fill="url(#linear-gradient-5)"/>
        <path id="Path_40901" data-name="Path 40901" d="M143.533,78.086a4.189,4.189,0,0,0-1.917,3.3c0,1.217.858,1.715,1.917,1.112a4.19,4.19,0,0,0,1.917-3.3C145.45,77.981,144.591,77.483,143.533,78.086Z" transform="translate(-140.832 -77.044)" fill-rule="evenodd" fill="url(#linear-gradient-6)"/>
        <path id="Path_40902" data-name="Path 40902" d="M142.584,78.662a1.383,1.383,0,0,0-.631,1.086c0,.4.284.566.631.367a1.379,1.379,0,0,0,.631-1.086C143.216,78.627,142.934,78.463,142.584,78.662Z" transform="translate(-140.617 -76.566)" fill="#fff" fill-rule="evenodd"/>
      </g>
      <g id="Group_13777" data-name="Group 13777" transform="translate(113.409 88.387)">
        <path id="Path_40903" data-name="Path 40903" d="M144.654,81.43a5.246,5.246,0,0,0-2.4,4.129c0,1.525,1.074,2.148,2.4,1.394a5.249,5.249,0,0,0,2.4-4.129C147.053,81.3,145.979,80.676,144.654,81.43Z" transform="translate(-142.253 -81.11)" fill="#7f7f7f" fill-rule="evenodd"/>
        <path id="Path_40904" data-name="Path 40904" d="M144.837,81.531a5.246,5.246,0,0,0-2.4,4.129c0,1.525,1.074,2.148,2.4,1.394a5.251,5.251,0,0,0,2.4-4.129C147.237,81.4,146.162,80.777,144.837,81.531Z" transform="translate(-142.136 -81.045)" fill-rule="evenodd" fill="url(#linear-gradient-7)"/>
        <path id="Path_40905" data-name="Path 40905" d="M144.648,81.845a4.192,4.192,0,0,0-1.917,3.3c0,1.218.858,1.715,1.917,1.113a4.189,4.189,0,0,0,1.917-3.3C146.565,81.741,145.707,81.243,144.648,81.845Z" transform="translate(-141.947 -80.803)" fill-rule="evenodd" fill="url(#linear-gradient-8)"/>
        <path id="Path_40906" data-name="Path 40906" d="M143.7,82.421a1.384,1.384,0,0,0-.631,1.087c0,.4.284.566.631.366a1.379,1.379,0,0,0,.631-1.086C144.331,82.386,144.049,82.222,143.7,82.421Z" transform="translate(-141.732 -80.325)" fill="#fff" fill-rule="evenodd"/>
      </g>
      <path id="Path_40907" data-name="Path 40907" d="M167.145,85.438a1.965,1.965,0,0,0,1.207-.269l4.432-2.576c-2.445-10.754-6.726-20.865-11.467-24.646L155.04,61.6c5.249,3.568,9.047,12.61,11.787,23.155A2.049,2.049,0,0,0,167.145,85.438Z" transform="translate(-20.663 -7.542)" fill="#333" fill-rule="evenodd"/>
      <g id="Group_13782" data-name="Group 13782" transform="translate(138.666 51.895)">
        <g id="Group_13778" data-name="Group 13778">
          <path id="Path_40908" data-name="Path 40908" d="M160.006,59.176a5.172,5.172,0,0,0-2.35,4.127c.02,1.525,1.1,2.15,2.419,1.394a5.166,5.166,0,0,0,2.348-4.127C162.4,59.045,161.321,58.422,160.006,59.176Z" transform="translate(-157.656 -58.856)" fill="#7f7f7f" fill-rule="evenodd"/>
          <path id="Path_40909" data-name="Path 40909" d="M160.191,59.277a5.17,5.17,0,0,0-2.35,4.127c.02,1.525,1.1,2.15,2.419,1.394a5.166,5.166,0,0,0,2.348-4.129C162.59,59.146,161.506,58.521,160.191,59.277Z" transform="translate(-157.537 -58.791)" fill-rule="evenodd" fill="url(#linear-gradient-9)"/>
          <path id="Path_40910" data-name="Path 40910" d="M160.01,59.591a4.125,4.125,0,0,0-1.876,3.3c.015,1.218.879,1.717,1.932,1.113a4.126,4.126,0,0,0,1.874-3.3C161.925,59.486,161.061,58.988,160.01,59.591Z" transform="translate(-157.35 -58.549)" fill-rule="evenodd" fill="url(#linear-gradient-10)"/>
          <path id="Path_40911" data-name="Path 40911" d="M159.08,60.167a1.361,1.361,0,0,0-.618,1.086c0,.4.29.566.636.367a1.362,1.362,0,0,0,.618-1.087C159.712,60.132,159.426,59.968,159.08,60.167Z" transform="translate(-157.14 -58.071)" fill="#fff" fill-rule="evenodd"/>
        </g>
        <g id="Group_13779" data-name="Group 13779" transform="translate(3.239 5.65)">
          <path id="Path_40912" data-name="Path 40912" d="M161.979,62.622a5.168,5.168,0,0,0-2.348,4.127c.018,1.525,1.1,2.15,2.419,1.394a5.173,5.173,0,0,0,2.348-4.129C164.378,62.491,163.3,61.866,161.979,62.622Z" transform="translate(-159.631 -62.301)" fill="#7f7f7f" fill-rule="evenodd"/>
          <path id="Path_40913" data-name="Path 40913" d="M162.165,62.723a5.17,5.17,0,0,0-2.35,4.127c.02,1.525,1.1,2.15,2.419,1.394a5.169,5.169,0,0,0,2.348-4.129C164.564,62.592,163.482,61.967,162.165,62.723Z" transform="translate(-159.513 -62.237)" fill-rule="evenodd" fill="url(#linear-gradient-11)"/>
          <path id="Path_40914" data-name="Path 40914" d="M161.984,63.037a4.129,4.129,0,0,0-1.876,3.3c.015,1.218.881,1.717,1.932,1.113a4.13,4.13,0,0,0,1.876-3.3C163.9,62.932,163.035,62.434,161.984,63.037Z" transform="translate(-159.326 -61.994)" fill-rule="evenodd" fill="url(#linear-gradient-12)"/>
          <path id="Path_40915" data-name="Path 40915" d="M161.055,63.613a1.357,1.357,0,0,0-.618,1.086c0,.4.289.566.636.367a1.356,1.356,0,0,0,.617-1.087C161.685,63.579,161.4,63.413,161.055,63.613Z" transform="translate(-159.115 -61.516)" fill="#fff" fill-rule="evenodd"/>
        </g>
        <g id="Group_13780" data-name="Group 13780" transform="translate(5.623 11.718)">
          <path id="Path_40916" data-name="Path 40916" d="M163.435,66.322a5.173,5.173,0,0,0-2.35,4.129c.02,1.525,1.1,2.15,2.419,1.394a5.169,5.169,0,0,0,2.348-4.129C165.834,66.192,164.752,65.568,163.435,66.322Z" transform="translate(-161.085 -66.002)" fill="#7f7f7f" fill-rule="evenodd"/>
          <path id="Path_40917" data-name="Path 40917" d="M163.62,66.423a5.168,5.168,0,0,0-2.35,4.129c.018,1.525,1.1,2.148,2.419,1.394a5.171,5.171,0,0,0,2.348-4.129C166.017,66.293,164.935,65.669,163.62,66.423Z" transform="translate(-160.967 -65.937)" fill-rule="evenodd" fill="url(#linear-gradient-13)"/>
          <path id="Path_40918" data-name="Path 40918" d="M163.439,66.738a4.122,4.122,0,0,0-1.876,3.3c.015,1.218.879,1.717,1.93,1.113a4.13,4.13,0,0,0,1.876-3.3C165.354,66.633,164.49,66.135,163.439,66.738Z" transform="translate(-160.779 -65.695)" fill-rule="evenodd" fill="url(#linear-gradient-14)"/>
          <path id="Path_40919" data-name="Path 40919" d="M162.509,67.313a1.364,1.364,0,0,0-.618,1.087c0,.4.29.566.636.366a1.359,1.359,0,0,0,.618-1.086C163.141,67.278,162.855,67.114,162.509,67.313Z" transform="translate(-160.569 -65.217)" fill="#fff" fill-rule="evenodd"/>
        </g>
        <g id="Group_13781" data-name="Group 13781" transform="translate(7.528 17.883)">
          <path id="Path_40920" data-name="Path 40920" d="M164.6,70.082a5.165,5.165,0,0,0-2.35,4.127c.02,1.525,1.1,2.15,2.419,1.394a5.168,5.168,0,0,0,2.348-4.127C166.994,69.951,165.912,69.326,164.6,70.082Z" transform="translate(-162.247 -69.761)" fill="#7f7f7f" fill-rule="evenodd"/>
          <path id="Path_40921" data-name="Path 40921" d="M164.782,70.183a5.165,5.165,0,0,0-2.35,4.127c.018,1.525,1.1,2.15,2.417,1.394a5.17,5.17,0,0,0,2.35-4.129C167.179,70.052,166.1,69.427,164.782,70.183Z" transform="translate(-162.128 -69.697)" fill-rule="evenodd" fill="url(#linear-gradient-15)"/>
          <path id="Path_40922" data-name="Path 40922" d="M164.6,70.5a4.127,4.127,0,0,0-1.878,3.3c.016,1.218.881,1.717,1.932,1.113a4.13,4.13,0,0,0,1.876-3.3C166.517,70.392,165.651,69.894,164.6,70.5Z" transform="translate(-161.942 -69.454)" fill-rule="evenodd" fill="url(#linear-gradient-16)"/>
          <path id="Path_40923" data-name="Path 40923" d="M163.671,71.073a1.359,1.359,0,0,0-.618,1.086c0,.4.29.566.636.367a1.362,1.362,0,0,0,.618-1.087C164.3,71.038,164.017,70.874,163.671,71.073Z" transform="translate(-161.731 -68.976)" fill="#fff" fill-rule="evenodd"/>
        </g>
      </g>
      <path id="Path_40924" data-name="Path 40924" d="M84.412,65.875l6.316,31.058,35.662,20.432,19.916-15.838Z" transform="translate(-65.85 -2.47)" fill="#bcb5ad" fill-rule="evenodd"/>
      <g id="Group_13785" data-name="Group 13785" transform="translate(53.165 98.32)">
        <path id="Path_40925" data-name="Path 40925" d="M109.291,100.649,139.445,151l20.066-11.278c20.128-11.387-9.875-62.444-29.888-50.85Z" transform="translate(-103.098 -87.167)" fill="#161713" fill-rule="evenodd"/>
        <g id="Group_13783" data-name="Group 13783" transform="translate(6.193 0.008)">
          <path id="Path_40926" data-name="Path 40926" d="M111.492,104.321h0L140.444,87.9a13.52,13.52,0,0,0-8.461-.092l-22.691,12.838Z" transform="translate(-109.291 -87.172)" fill="#363634" fill-rule="evenodd"/>
          <path id="Path_40927" data-name="Path 40927" d="M114.138,110.212l32.9-18.662a28.6,28.6,0,0,0-4.826-3.15l-30.81,17.25Z" transform="translate(-107.938 -86.387)" fill="#363634" fill-rule="evenodd"/>
          <path id="Path_40928" data-name="Path 40928" d="M114.068,110.747l4.911,2.834,32.292-18.315a44.944,44.944,0,0,0-3.644-3.819L113.84,110.365Z" transform="translate(-106.381 -84.438)" fill="#363634" fill-rule="evenodd"/>
          <path id="Path_40929" data-name="Path 40929" d="M116.79,114.3l5.36,3.091,31.884-18.083c-.913-1.459-1.891-2.875-2.92-4.226Z" transform="translate(-104.493 -82.109)" fill="#363634" fill-rule="evenodd"/>
          <path id="Path_40930" data-name="Path 40930" d="M119.981,117.586l5.362,3.093,30.224-17.144c-.694-1.548-1.469-3.079-2.315-4.577Z" transform="translate(-102.452 -79.632)" fill="#363634" fill-rule="evenodd"/>
          <path id="Path_40931" data-name="Path 40931" d="M122.718,121.23l5.362,3.093,28.38-16.1a45.436,45.436,0,0,0-1.618-4.98Z" transform="translate(-100.701 -76.889)" fill="#363634" fill-rule="evenodd"/>
          <path id="Path_40932" data-name="Path 40932" d="M125.652,129.907l1.282.74,30.088-17.065a28.343,28.343,0,0,0-.279-4.283c-.033-.228-.066-.456-.1-.687l-.041-.257c-.021-.123-.046-.248-.069-.371l-32.958,18.452Z" transform="translate(-100.154 -73.858)" fill="#363634" fill-rule="evenodd"/>
          <path id="Path_40933" data-name="Path 40933" d="M128.67,134.154l22.514-12.769c.162-.149.318-.3.471-.458l.1-.1a13.936,13.936,0,0,0,3.522-7.65L125.941,129.6Z" transform="translate(-98.639 -70.538)" fill="#363634" fill-rule="evenodd"/>
        </g>
        <path id="Path_40934" data-name="Path 40934" d="M126.383,97.341c11.529,6.567,20.874,22.642,20.874,35.893s-9.345,18.687-20.874,12.12-20.869-22.637-20.869-35.9S114.861,90.779,126.383,97.341Z" transform="translate(-105.514 -82.441)" fill="#161713" fill-rule="evenodd"/>
        <path id="Path_40935" data-name="Path 40935" d="M123.938,101.412c8.068,4.6,14.606,15.842,14.606,25.113S132.005,139.6,123.938,135s-14.6-15.839-14.6-25.117S115.876,96.82,123.938,101.412Z" transform="translate(-103.068 -79.302)" fill="#bcb5ad" fill-rule="evenodd"/>
        <path id="Path_40936" data-name="Path 40936" d="M121.74,104.35c6.136,3.5,11.111,12.051,11.111,19.1s-4.975,9.945-11.111,6.449-11.1-12.046-11.1-19.1S115.608,100.857,121.74,104.35Z" transform="translate(-102.238 -77.123)" fill="#7d870b" fill-rule="evenodd"/>
        <g id="Group_13784" data-name="Group 13784" transform="translate(13.874 33.822)">
          <path id="Path_40937" data-name="Path 40937" d="M119.057,108.472a11.108,11.108,0,0,1,5.083,8.738c0,3.23-2.276,4.55-5.083,2.952a11.109,11.109,0,0,1-5.082-8.74C113.975,108.194,116.251,106.874,119.057,108.472Z" transform="translate(-113.975 -107.793)" fill="#363634" fill-rule="evenodd"/>
          <path id="Path_40938" data-name="Path 40938" d="M122.716,120.184a3.92,3.92,0,0,1-3.1-.551,11.107,11.107,0,0,1-5.08-8.74,3.906,3.906,0,0,1,1.066-2.973,3.926,3.926,0,0,1,3.1.551,11.1,11.1,0,0,1,5.083,8.738A3.913,3.913,0,0,1,122.716,120.184Z" transform="translate(-113.617 -107.793)" fill="#bcb5ad" fill-rule="evenodd"/>
        </g>
      </g>
      <g id="Group_13786" data-name="Group 13786" transform="translate(57.245 72.086)">
        <path id="Path_40939" data-name="Path 40939" d="M108.9,88.95l30.536,17.657a9.859,9.859,0,0,0,10.1,0l16.849-9.727V95.056L108.9,87.118Z" transform="translate(-107.426 -60.965)" fill="#7d870b" fill-rule="evenodd"/>
        <path id="Path_40940" data-name="Path 40940" d="M109.478,97.322l30.536,17.66a9.863,9.863,0,0,0,10.1,0l16.849-9.726L108,71.169Z" transform="translate(-108.002 -71.169)" fill="#9faa20" fill-rule="evenodd"/>
      </g>
      <path id="Path_40941" data-name="Path 40941" d="M127.486,66.112a16.449,16.449,0,0,1,7.528,12.943c0,4.782-3.37,6.738-7.528,4.37a16.454,16.454,0,0,1-7.525-12.944C119.961,65.7,123.332,63.744,127.486,66.112Z" transform="translate(-43.106 -2.961)" fill="#9faa20" fill-rule="evenodd"/>
      <path id="Path_40942" data-name="Path 40942" d="M127.08,66.393a16.453,16.453,0,0,1,7.528,12.944c0,4.78-3.371,6.738-7.528,4.368a16.449,16.449,0,0,1-7.525-12.944C119.555,65.983,122.925,64.027,127.08,66.393Z" transform="translate(-43.366 -2.781)" fill="#8b9615" fill-rule="evenodd"/>
      <g id="Group_13787" data-name="Group 13787" transform="translate(118.645 123.649)">
        <path id="Path_40943" data-name="Path 40943" d="M163.855,122.9c-1.248-7.433-5.843-15.437-8.569-17.011l-5.677-3.276-4.162,2.409,14.245,20.287Z" transform="translate(-145.445 -102.614)" fill="#9faa20" fill-rule="evenodd"/>
        <path id="Path_40944" data-name="Path 40944" d="M159.692,124.37c-1.248-7.433-5.843-15.437-8.569-17.011l-5.675-3.276,0,12.067Z" transform="translate(-145.446 -101.674)" fill="#7d870b" fill-rule="evenodd"/>
      </g>
      <g id="Group_13788" data-name="Group 13788" transform="translate(153.648 103.301)">
        <path id="Path_40945" data-name="Path 40945" d="M185.2,110.492c-1.248-7.431-5.843-15.435-8.569-17.009l-5.675-3.278-4.163,2.409L181.038,112.9Z" transform="translate(-166.792 -90.205)" fill="#9faa20" fill-rule="evenodd"/>
        <path id="Path_40946" data-name="Path 40946" d="M181.038,111.961c-1.248-7.433-5.843-15.437-8.569-17.011l-5.677-3.276v12.069Z" transform="translate(-166.792 -89.265)" fill="#7d870b" fill-rule="evenodd"/>
      </g>
      <g id="Group_13789" data-name="Group 13789" transform="translate(136.387 113.235)">
        <path id="Path_40947" data-name="Path 40947" d="M174.674,116.55c-1.248-7.433-5.843-15.437-8.569-17.011l-5.675-3.276-4.163,2.409,14.246,20.287Z" transform="translate(-156.266 -96.263)" fill="#9faa20" fill-rule="evenodd"/>
        <path id="Path_40948" data-name="Path 40948" d="M170.512,118.019c-1.25-7.433-5.843-15.437-8.569-17.011l-5.677-3.276V109.8Z" transform="translate(-156.266 -95.323)" fill="#7d870b" fill-rule="evenodd"/>
      </g>
      <g id="Group_13797" data-name="Group 13797" transform="translate(69.307 96.361)">
        <path id="Path_40949" data-name="Path 40949" d="M252.829,86.539l-136.481,78.75L139.466,198,274.7,119.974c-2.187-13.025-8.748-25.864-13.527-28.622Z" transform="translate(-114.725 -85.61)" fill="#bcb5ad" fill-rule="evenodd"/>
        <path id="Path_40950" data-name="Path 40950" d="M251.855,85.973l-136.5,78.762,1.624.918L253.462,86.9Z" transform="translate(-115.358 -85.973)" fill="#f1ece6" fill-rule="evenodd"/>
        <path id="Path_40951" data-name="Path 40951" d="M255.483,99.608l-131.25,75.733,10.052,14.314L269.65,111.613c-2.483-4.221-3.824-6.033-5.829-7.19Z" transform="translate(-109.68 -77.249)" fill="#fc0" fill-rule="evenodd"/>
        <path id="Path_40952" data-name="Path 40952" d="M265.953,105.923l-136.5,78.762,1.624.918,136.48-78.752Z" transform="translate(-106.338 -73.209)" fill="#e39400" fill-rule="evenodd"/>
        <path id="Path_40953" data-name="Path 40953" d="M223.549,121.5c-2.187-13.025-10.237-27.056-15.017-29.81l-9.922-5.716-.026,15.293c0,3.706,1.979,6.662,5.049,8.742l18.359,12.433Z" transform="translate(-62.112 -85.972)" fill="#f1ece6" fill-rule="evenodd"/>
        <path id="Path_40954" data-name="Path 40954" d="M221.983,121.716c-2.189-13.025-10.485-27.166-15.265-29.924L198.6,87.1l0,15.317a9.852,9.852,0,0,0,5.049,8.743Z" transform="translate(-62.104 -85.248)" fill="#a39a8f" fill-rule="evenodd"/>
        <g id="Group_13790" data-name="Group 13790" transform="translate(126.419 5.617)">
          <path id="Path_40955" data-name="Path 40955" d="M204.248,90.908c6.241,3.557,11.3,12.257,11.3,19.431s-5.059,10.117-11.3,6.564v-1.45c.476.284.877.143,1.005-.351l.658-2.547a.555.555,0,0,1,.605-.49,1.389,1.389,0,0,1,.915.617l2.137,2.778c.413.539.915.754,1.251.536s.405-.8.171-1.454l-1.209-3.376a1.643,1.643,0,0,1-.056-1.169.535.535,0,0,1,.685-.344l2.366.6c.458.116.764-.2.764-.792a2.5,2.5,0,0,0-.764-1.707l-2.366-2.23a2.5,2.5,0,0,1-.685-1.163,1.384,1.384,0,0,1,.056-1.1l1.209-1.933a1.779,1.779,0,0,0-.169-1.658c-.338-.62-.838-1-1.253-.961l-2.137.226a1.148,1.148,0,0,1-.915-.477,2.555,2.555,0,0,1-.605-1.213l-.656-3.332a2.423,2.423,0,0,0-1.007-1.551v-1.45Zm0,15.632c1.264.72,2.291.125,2.291-1.331a5.012,5.012,0,0,0-2.291-3.939Zm0-15.634,0,0v1.448c-.476-.284-.879-.143-1.007.351l-.656,2.547a.554.554,0,0,1-.607.489,1.377,1.377,0,0,1-.913-.615l-2.137-2.778c-.415-.539-.915-.754-1.253-.538s-.4.8-.169,1.454l1.208,3.378a1.66,1.66,0,0,1,.056,1.169.536.536,0,0,1-.685.344l-2.366-.6c-.459-.116-.766.2-.766.794a2.518,2.518,0,0,0,.766,1.707l2.366,2.228a2.529,2.529,0,0,1,.685,1.163,1.4,1.4,0,0,1-.056,1.1l-1.208,1.933a1.779,1.779,0,0,0,.171,1.659c.336.618.838,1,1.251.958l2.137-.225a1.143,1.143,0,0,1,.915.477,2.555,2.555,0,0,1,.605,1.213l.656,3.332a2.419,2.419,0,0,0,1.007,1.551V116.9l0,0c-6.239-3.553-11.3-12.257-11.3-19.436s5.06-10.113,11.3-6.559Zm0,10.363h0c-1.263-.72-2.289-.125-2.289,1.33a5.01,5.01,0,0,0,2.289,3.94h0Z" transform="translate(-192.137 -89.398)" fill="#161713" fill-rule="evenodd"/>
          <path id="Path_40956" data-name="Path 40956" d="M203.754,91.195c6.241,3.557,11.3,12.259,11.3,19.433s-5.059,10.117-11.3,6.562v-1.45h0c.476.285.877.143,1.005-.349l.656-2.548a.554.554,0,0,1,.607-.489,1.38,1.38,0,0,1,.913.615l2.137,2.779c.415.538.917.753,1.253.536s.405-.8.171-1.454l-1.21-3.376a1.661,1.661,0,0,1-.056-1.169.537.537,0,0,1,.687-.344l2.366.6c.457.115.764-.2.764-.792a2.5,2.5,0,0,0-.764-1.707l-2.366-2.232a2.493,2.493,0,0,1-.685-1.163,1.387,1.387,0,0,1,.054-1.1l1.21-1.935a1.777,1.777,0,0,0-.171-1.656c-.336-.62-.838-1-1.251-.961l-2.138.225a1.14,1.14,0,0,1-.913-.476,2.558,2.558,0,0,1-.607-1.213L204.76,94.2a2.425,2.425,0,0,0-1.005-1.553h0v-1.45Zm0,15.634c1.264.72,2.291.123,2.291-1.331a5.01,5.01,0,0,0-2.291-3.939Zm0-15.634h0v1.45c-.477-.285-.879-.143-1.007.349l-.656,2.548a.554.554,0,0,1-.607.489,1.374,1.374,0,0,1-.913-.615l-2.137-2.778c-.415-.539-.917-.754-1.253-.538s-.405.8-.171,1.454l1.21,3.378a1.646,1.646,0,0,1,.054,1.168.534.534,0,0,1-.684.344l-2.366-.6c-.459-.116-.766.2-.766.794a2.5,2.5,0,0,0,.766,1.705l2.366,2.23a2.5,2.5,0,0,1,.684,1.163,1.392,1.392,0,0,1-.054,1.1l-1.21,1.933a1.783,1.783,0,0,0,.171,1.659c.338.618.838,1,1.253.958l2.137-.225a1.138,1.138,0,0,1,.913.477,2.558,2.558,0,0,1,.607,1.213l.656,3.332a2.417,2.417,0,0,0,1.007,1.551v1.45h0c-6.238-3.555-11.3-12.257-11.3-19.436s5.06-10.113,11.3-6.559Zm0,10.363h0c-1.263-.722-2.291-.125-2.291,1.33a5.011,5.011,0,0,0,2.291,3.939l0,0Z" transform="translate(-192.453 -89.214)" fill="#363634" fill-rule="evenodd"/>
        </g>
        <path id="Path_40957" data-name="Path 40957" d="M208.362,98.068,184.49,111.851l1.625.918,23.164-13.374C209.851,99.064,208.965,97.721,208.362,98.068Z" transform="translate(-71.129 -78.271)" fill="#f1ece6" fill-rule="evenodd"/>
        <path id="Path_40958" data-name="Path 40958" d="M240.965,93.23,121.318,162.383l.958.543,119.23-68.913C241.844,93.817,241.32,93.025,240.965,93.23Z" transform="translate(-111.545 -81.351)" fill="#191919" fill-rule="evenodd"/>
        <path id="Path_40959" data-name="Path 40959" d="M240.978,98.458,121.33,167.611l.959.543,119.23-68.912C241.856,99.045,241.334,98.253,240.978,98.458Z" transform="translate(-111.537 -78.006)" fill="#191919" fill-rule="evenodd"/>
        <path id="Path_40960" data-name="Path 40960" d="M243.82,103.139,124.173,172.292l.958.543,119.23-68.912C244.7,103.726,244.175,102.934,243.82,103.139Z" transform="translate(-109.718 -75.011)" fill="#191919" fill-rule="evenodd"/>
        <path id="Path_40961" data-name="Path 40961" d="M248.019,105.783,128.372,174.936l.958.541,119.23-68.912C248.9,106.37,248.376,105.577,248.019,105.783Z" transform="translate(-107.032 -73.32)" fill="#191919" fill-rule="evenodd"/>
        <g id="Group_13791" data-name="Group 13791" transform="translate(104.526 22.138)">
          <path id="Path_40962" data-name="Path 40962" d="M188.8,100.714c5.131,2.924,9.293,10.08,9.293,15.98s-4.162,8.319-9.293,5.395V120.9h0c.392.234.721.118.826-.287l.539-2.094a.458.458,0,0,1,.5-.4,1.144,1.144,0,0,1,.751.507l1.756,2.284c.341.443.753.62,1.03.441s.333-.658.139-1.2l-.994-2.778a1.353,1.353,0,0,1-.046-.961.439.439,0,0,1,.564-.282l1.946.492c.376.1.628-.166.628-.653a2.059,2.059,0,0,0-.628-1.4l-1.946-1.835a2.062,2.062,0,0,1-.564-.956,1.138,1.138,0,0,1,.046-.905l.994-1.591a1.458,1.458,0,0,0-.139-1.363c-.277-.51-.689-.825-1.03-.79l-1.756.185a.928.928,0,0,1-.751-.392,2.094,2.094,0,0,1-.5-1l-.538-2.74a2,2,0,0,0-.828-1.276h0v-1.192Zm0,12.854c1.04.592,1.882.1,1.882-1.1a4.119,4.119,0,0,0-1.882-3.239Zm0-12.856,0,0v1.192c-.392-.234-.723-.118-.828.287l-.539,2.1a.456.456,0,0,1-.5.4,1.136,1.136,0,0,1-.751-.507l-1.758-2.284c-.339-.443-.753-.62-1.028-.441s-.333.656-.141,1.2l1,2.778a1.36,1.36,0,0,1,.044.961.44.44,0,0,1-.562.282l-1.946-.49c-.377-.1-.628.164-.628.653a2.062,2.062,0,0,0,.628,1.4l1.946,1.833a2.068,2.068,0,0,1,.562.956,1.151,1.151,0,0,1-.044.907l-1,1.589a1.467,1.467,0,0,0,.141,1.364c.277.508.689.825,1.028.787l1.758-.184a.93.93,0,0,1,.751.392,2.09,2.09,0,0,1,.5,1l.539,2.738a1.988,1.988,0,0,0,.828,1.276v1.192h0c-5.129-2.922-9.291-10.078-9.291-15.983s4.162-8.314,9.291-5.393Zm0,8.522h0c-1.038-.592-1.882-.1-1.882,1.094a4.121,4.121,0,0,0,1.882,3.24h0Z" transform="translate(-178.842 -99.473)" fill="#161713" fill-rule="evenodd"/>
          <path id="Path_40963" data-name="Path 40963" d="M188.395,100.952c5.133,2.924,9.293,10.08,9.293,15.978s-4.16,8.319-9.293,5.4v-1.192h0c.39.233.721.118.826-.287l.539-2.1a.456.456,0,0,1,.5-.4,1.13,1.13,0,0,1,.751.507l1.758,2.284c.339.443.753.62,1.028.441s.333-.658.141-1.2l-1-2.778a1.36,1.36,0,0,1-.044-.961.438.438,0,0,1,.562-.282l1.946.49c.377.1.628-.166.628-.651a2.058,2.058,0,0,0-.628-1.4l-1.946-1.833a2.068,2.068,0,0,1-.562-.956,1.15,1.15,0,0,1,.044-.907l1-1.589a1.467,1.467,0,0,0-.139-1.363c-.277-.51-.689-.826-1.03-.79l-1.758.185a.942.942,0,0,1-.751-.392,2.1,2.1,0,0,1-.5-1l-.539-2.738a2,2,0,0,0-.826-1.277h0v-1.19Zm0,12.854c1.041.59,1.884.1,1.884-1.1a4.116,4.116,0,0,0-1.884-3.239Zm0-12.856,0,0v1.19c-.39-.233-.722-.118-.826.289l-.539,2.094a.456.456,0,0,1-.5.4,1.134,1.134,0,0,1-.753-.505l-1.756-2.284c-.341-.444-.753-.62-1.03-.443s-.333.658-.139,1.2l.994,2.778a1.353,1.353,0,0,1,.046.961.442.442,0,0,1-.564.284l-1.945-.492c-.377-.1-.63.166-.63.653a2.065,2.065,0,0,0,.63,1.4l1.945,1.832a2.067,2.067,0,0,1,.564.958,1.138,1.138,0,0,1-.046.905l-.994,1.591a1.463,1.463,0,0,0,.139,1.363c.277.508.69.825,1.03.789l1.756-.185a.942.942,0,0,1,.753.392,2.119,2.119,0,0,1,.5,1l.539,2.74a1.993,1.993,0,0,0,.826,1.276v1.192l0,0c-5.129-2.92-9.291-10.078-9.291-15.981s4.162-8.315,9.291-5.393Zm0,8.522h0c-1.04-.592-1.882-.1-1.882,1.094a4.114,4.114,0,0,0,1.882,3.239v-4.332Z" transform="translate(-179.102 -99.322)" fill="#363634" fill-rule="evenodd"/>
        </g>
        <path id="Path_40964" data-name="Path 40964" d="M193.772,106.567,169.459,120.6l1.623.917,23.606-13.62C195.261,107.563,194.375,106.218,193.772,106.567Z" transform="translate(-80.745 -72.833)" fill="#f1ece6" fill-rule="evenodd"/>
        <g id="Group_13792" data-name="Group 13792" transform="translate(80.448 35.937)">
          <path id="Path_40965" data-name="Path 40965" d="M174.117,109.129c5.131,2.925,9.293,10.08,9.293,15.98s-4.162,8.319-9.293,5.395v-1.192h0c.392.234.722.118.826-.287l.54-2.094a.457.457,0,0,1,.5-.4,1.144,1.144,0,0,1,.751.507l1.756,2.284c.341.443.753.62,1.03.441s.333-.658.139-1.2l-.994-2.776a1.357,1.357,0,0,1-.046-.963.441.441,0,0,1,.564-.282l1.946.492c.375.1.628-.166.628-.651a2.052,2.052,0,0,0-.628-1.4l-1.946-1.835a2.062,2.062,0,0,1-.564-.956,1.139,1.139,0,0,1,.046-.905l1-1.591a1.464,1.464,0,0,0-.141-1.363c-.277-.51-.689-.825-1.03-.79l-1.756.187a.938.938,0,0,1-.751-.392,2.107,2.107,0,0,1-.5-1l-.538-2.74a2,2,0,0,0-.828-1.276h0v-1.192Zm0,12.854c1.04.592,1.884.1,1.884-1.1a4.118,4.118,0,0,0-1.884-3.237Zm0-12.854h0v1.192c-.392-.234-.723-.118-.828.287l-.539,2.1a.454.454,0,0,1-.5.4,1.136,1.136,0,0,1-.751-.507l-1.758-2.284c-.339-.443-.753-.62-1.028-.441s-.333.658-.141,1.2l1,2.778a1.36,1.36,0,0,1,.044.961.441.441,0,0,1-.562.284L167.1,114.6c-.377-.1-.628.164-.628.653a2.059,2.059,0,0,0,.628,1.4l1.946,1.833a2.068,2.068,0,0,1,.562.956,1.151,1.151,0,0,1-.044.907l-1,1.589a1.467,1.467,0,0,0,.141,1.364c.277.508.689.825,1.028.789l1.758-.185a.935.935,0,0,1,.751.392,2.089,2.089,0,0,1,.5,1l.539,2.738a1.984,1.984,0,0,0,.828,1.276V130.5h0c-5.129-2.922-9.291-10.078-9.291-15.981s4.162-8.315,9.291-5.393Zm0,8.522,0,0c-1.038-.592-1.882-.1-1.882,1.094a4.121,4.121,0,0,0,1.882,3.24h0Z" transform="translate(-164.158 -107.888)" fill="#161713" fill-rule="evenodd"/>
          <path id="Path_40966" data-name="Path 40966" d="M173.709,109.367c5.133,2.924,9.293,10.08,9.293,15.978s-4.16,8.319-9.293,5.4v-1.192h0c.39.233.721.118.826-.287l.539-2.1a.456.456,0,0,1,.5-.4,1.13,1.13,0,0,1,.751.507l1.758,2.284c.339.443.753.62,1.028.441s.333-.658.141-1.2l-1-2.778a1.36,1.36,0,0,1-.044-.961.438.438,0,0,1,.562-.282l1.946.49c.377.1.628-.166.628-.651a2.058,2.058,0,0,0-.628-1.4l-1.946-1.833a2.068,2.068,0,0,1-.562-.956,1.15,1.15,0,0,1,.044-.907l1-1.589a1.467,1.467,0,0,0-.139-1.363c-.277-.51-.689-.826-1.03-.79l-1.758.185a.942.942,0,0,1-.751-.392,2.106,2.106,0,0,1-.5-1l-.539-2.74a1.993,1.993,0,0,0-.826-1.276l0,0v-1.19Zm0,12.854c1.041.59,1.884.1,1.884-1.1a4.116,4.116,0,0,0-1.884-3.239Zm0-12.856,0,0v1.19c-.39-.233-.721-.118-.826.289l-.539,2.094a.456.456,0,0,1-.5.4,1.134,1.134,0,0,1-.753-.505l-1.756-2.284c-.341-.444-.753-.621-1.03-.443s-.333.658-.139,1.2l.994,2.776a1.353,1.353,0,0,1,.046.961.442.442,0,0,1-.564.284l-1.945-.492c-.377-.1-.63.166-.63.653a2.068,2.068,0,0,0,.63,1.4l1.945,1.832a2.076,2.076,0,0,1,.564.958,1.138,1.138,0,0,1-.046.905l-.994,1.591a1.459,1.459,0,0,0,.141,1.363c.275.508.689.825,1.028.789l1.756-.185a.942.942,0,0,1,.753.392,2.12,2.12,0,0,1,.5,1l.539,2.74a1.993,1.993,0,0,0,.826,1.276v1.192l0,0c-5.129-2.92-9.289-10.076-9.289-15.981s4.16-8.315,9.289-5.393Zm0,8.522h0c-1.04-.592-1.882-.1-1.882,1.094a4.114,4.114,0,0,0,1.882,3.239v-4.332Z" transform="translate(-164.418 -107.737)" fill="#363634" fill-rule="evenodd"/>
        </g>
        <path id="Path_40967" data-name="Path 40967" d="M178.983,114.992l-23.87,13.782,1.623.918L179.9,116.319C180.474,115.988,179.587,114.645,178.983,114.992Z" transform="translate(-89.923 -67.443)" fill="#f1ece6" fill-rule="evenodd"/>
        <g id="Group_13793" data-name="Group 13793" transform="translate(56.282 49.878)">
          <path id="Path_40968" data-name="Path 40968" d="M159.38,117.631c5.133,2.925,9.293,10.08,9.293,15.98s-4.16,8.319-9.293,5.4v-1.192h0c.39.233.72.118.825-.287l.541-2.1a.454.454,0,0,1,.5-.4,1.127,1.127,0,0,1,.751.505l1.756,2.286c.341.443.753.618,1.03.439s.333-.656.141-1.2l-1-2.776a1.371,1.371,0,0,1-.046-.961.442.442,0,0,1,.564-.284l1.946.492c.377.1.628-.166.628-.651a2.055,2.055,0,0,0-.628-1.4l-1.946-1.833a2.065,2.065,0,0,1-.562-.958,1.146,1.146,0,0,1,.044-.905l1-1.591a1.46,1.46,0,0,0-.141-1.361c-.275-.51-.689-.826-1.028-.79L162,124.23a.942.942,0,0,1-.751-.392,2.09,2.09,0,0,1-.5-1l-.539-2.738a2,2,0,0,0-.826-1.277h0v-1.192Zm0,12.854c1.04.592,1.884.1,1.884-1.094a4.118,4.118,0,0,0-1.884-3.239Zm0-12.854h0v1.192c-.392-.234-.722-.118-.826.289l-.539,2.094a.457.457,0,0,1-.5.4,1.143,1.143,0,0,1-.751-.505l-1.756-2.286c-.341-.443-.753-.62-1.03-.441s-.333.658-.139,1.2l.994,2.778a1.36,1.36,0,0,1,.044.961.44.44,0,0,1-.562.284l-1.945-.492c-.377-.1-.63.166-.63.653a2.054,2.054,0,0,0,.63,1.4l1.945,1.833a2.051,2.051,0,0,1,.562.958,1.146,1.146,0,0,1-.044.905l-.994,1.589a1.461,1.461,0,0,0,.139,1.364c.277.508.689.825,1.03.789l1.756-.185a.945.945,0,0,1,.753.392,2.127,2.127,0,0,1,.5,1l.539,2.74a1.991,1.991,0,0,0,.826,1.276v1.192l0,0c-5.129-2.922-9.291-10.078-9.291-15.981s4.162-8.315,9.291-5.393Zm0,8.522h0c-1.04-.594-1.884-.1-1.884,1.094a4.118,4.118,0,0,0,1.884,3.239h0Z" transform="translate(-149.421 -116.39)" fill="#161713" fill-rule="evenodd"/>
          <path id="Path_40969" data-name="Path 40969" d="M158.974,117.868c5.131,2.925,9.291,10.08,9.291,15.978s-4.16,8.32-9.291,5.4v-1.192h0c.392.234.721.118.826-.287l.539-2.094a.457.457,0,0,1,.5-.4,1.136,1.136,0,0,1,.751.507l1.758,2.284c.341.443.753.62,1.03.441s.333-.658.139-1.2l-.994-2.776a1.357,1.357,0,0,1-.046-.963.441.441,0,0,1,.564-.282l1.946.492c.376.1.628-.167.628-.651a2.059,2.059,0,0,0-.628-1.4l-1.946-1.835a2.07,2.07,0,0,1-.564-.956,1.138,1.138,0,0,1,.046-.905l1-1.591a1.464,1.464,0,0,0-.141-1.363c-.277-.51-.689-.825-1.03-.79l-1.758.185a.935.935,0,0,1-.751-.39,2.119,2.119,0,0,1-.5-1l-.538-2.74a2,2,0,0,0-.828-1.276h0v-1.192Zm0,12.854c1.04.592,1.882.1,1.882-1.1a4.122,4.122,0,0,0-1.882-3.239Zm0-12.854h0v1.192c-.392-.234-.723-.118-.828.287l-.539,2.094a.456.456,0,0,1-.5.4,1.136,1.136,0,0,1-.751-.507l-1.758-2.284c-.339-.443-.753-.62-1.028-.441s-.333.656-.141,1.2l1,2.778a1.36,1.36,0,0,1,.044.961.438.438,0,0,1-.562.282l-1.946-.49c-.377-.1-.628.164-.628.653a2.062,2.062,0,0,0,.628,1.4l1.946,1.833a2.068,2.068,0,0,1,.562.956,1.151,1.151,0,0,1-.044.907l-1,1.589a1.467,1.467,0,0,0,.141,1.364c.277.508.689.825,1.028.789l1.758-.185a.93.93,0,0,1,.751.392,2.09,2.09,0,0,1,.5,1l.539,2.738a1.988,1.988,0,0,0,.828,1.276v1.192h0c-5.129-2.922-9.291-10.078-9.291-15.981s4.162-8.315,9.291-5.393Zm0,8.52h0c-1.038-.592-1.882-.1-1.882,1.094a4.121,4.121,0,0,0,1.882,3.24h0Z" transform="translate(-149.681 -116.239)" fill="#363634" fill-rule="evenodd"/>
        </g>
        <path id="Path_40970" data-name="Path 40970" d="M164.393,123.491l-24.311,14.03,1.623.918,23.6-13.622C165.884,124.488,165,123.144,164.393,123.491Z" transform="translate(-99.54 -62.005)" fill="#f1ece6" fill-rule="evenodd"/>
        <g id="Group_13794" data-name="Group 13794" transform="translate(32.52 63.598)">
          <path id="Path_40971" data-name="Path 40971" d="M144.889,126c5.133,2.924,9.293,10.078,9.293,15.978s-4.16,8.319-9.293,5.4v-1.194l0,0c.39.233.72.118.826-.287l.539-2.1a.454.454,0,0,1,.5-.4,1.13,1.13,0,0,1,.751.507l1.756,2.284c.341.443.753.62,1.03.441s.333-.658.141-1.2l-1-2.776a1.36,1.36,0,0,1-.044-.961.438.438,0,0,1,.562-.282l1.946.49c.377.1.628-.166.628-.651a2.058,2.058,0,0,0-.628-1.4l-1.946-1.833a2.068,2.068,0,0,1-.562-.956,1.15,1.15,0,0,1,.044-.907l1-1.591a1.464,1.464,0,0,0-.139-1.361c-.277-.51-.69-.826-1.03-.79l-1.758.185a.942.942,0,0,1-.751-.392,2.089,2.089,0,0,1-.5-1l-.539-2.738a2,2,0,0,0-.826-1.277h0V126Zm0,12.853c1.04.594,1.884.1,1.884-1.094a4.121,4.121,0,0,0-1.884-3.239Zm0-12.854,0,0v1.19c-.392-.234-.721-.116-.826.289l-.54,2.094a.457.457,0,0,1-.5.4,1.134,1.134,0,0,1-.751-.505l-1.756-2.284c-.341-.444-.753-.621-1.03-.443s-.333.658-.139,1.2l.994,2.778a1.352,1.352,0,0,1,.044.961.439.439,0,0,1-.562.284l-1.945-.492c-.377-.1-.63.166-.63.653a2.068,2.068,0,0,0,.63,1.4l1.945,1.832a2.052,2.052,0,0,1,.562.958,1.139,1.139,0,0,1-.044.905l-.994,1.591a1.458,1.458,0,0,0,.139,1.363c.277.508.69.825,1.03.789l1.756-.185a.943.943,0,0,1,.753.392,2.119,2.119,0,0,1,.5,1l.54,2.74a1.979,1.979,0,0,0,.826,1.274v1.194l0,0c-5.129-2.922-9.291-10.078-9.291-15.981s4.162-8.315,9.291-5.393Zm0,8.522h0c-1.04-.594-1.884-.1-1.884,1.094a4.116,4.116,0,0,0,1.884,3.239h0Z" transform="translate(-134.93 -124.757)" fill="#161713" fill-rule="evenodd"/>
          <path id="Path_40972" data-name="Path 40972" d="M144.483,126.235c5.131,2.924,9.293,10.08,9.293,15.98s-4.162,8.319-9.293,5.395v-1.192h0c.392.234.722.118.826-.287l.54-2.094a.457.457,0,0,1,.5-.4,1.144,1.144,0,0,1,.751.507l1.756,2.284c.341.443.753.62,1.03.441s.333-.658.139-1.2l-.994-2.776a1.357,1.357,0,0,1-.046-.963.439.439,0,0,1,.564-.282l1.946.492c.376.1.628-.166.628-.651a2.052,2.052,0,0,0-.628-1.4l-1.946-1.835a2.062,2.062,0,0,1-.564-.956,1.138,1.138,0,0,1,.046-.905l1-1.591a1.464,1.464,0,0,0-.141-1.363c-.277-.51-.689-.825-1.03-.79l-1.756.187a.938.938,0,0,1-.751-.392,2.107,2.107,0,0,1-.5-1l-.538-2.74a2,2,0,0,0-.828-1.276h0v-1.192Zm0,12.854c1.04.592,1.882.1,1.882-1.1a4.116,4.116,0,0,0-1.882-3.237Zm0-12.854h0v1.192c-.392-.234-.723-.118-.828.287l-.54,2.1a.454.454,0,0,1-.5.4,1.136,1.136,0,0,1-.751-.507l-1.758-2.284c-.339-.443-.753-.62-1.028-.441s-.333.658-.141,1.2l1,2.778a1.36,1.36,0,0,1,.044.961.44.44,0,0,1-.562.284l-1.946-.492c-.377-.1-.628.164-.628.653a2.059,2.059,0,0,0,.628,1.4l1.946,1.833a2.068,2.068,0,0,1,.562.956,1.151,1.151,0,0,1-.044.907l-1,1.589a1.467,1.467,0,0,0,.141,1.364c.277.508.689.825,1.028.789l1.758-.185a.94.94,0,0,1,.753.392,2.1,2.1,0,0,1,.5,1l.54,2.738a1.988,1.988,0,0,0,.828,1.276v1.192h0c-5.129-2.922-9.291-10.078-9.291-15.981s4.162-8.315,9.291-5.393Zm0,8.522,0,0c-1.038-.592-1.882-.1-1.882,1.094a4.121,4.121,0,0,0,1.882,3.24h0Z" transform="translate(-135.19 -124.606)" fill="#363634" fill-rule="evenodd"/>
        </g>
        <path id="Path_40973" data-name="Path 40973" d="M149.943,131.788l-24.311,14.03,1.623.918,23.6-13.622C151.434,132.785,150.547,131.441,149.943,131.788Z" transform="translate(-108.785 -56.697)" fill="#f1ece6" fill-rule="evenodd"/>
        <path id="Path_40974" data-name="Path 40974" d="M243.752,90.752,124.1,159.9l.958.541,119.23-68.912C244.631,91.339,244.109,90.547,243.752,90.752Z" transform="translate(-109.762 -82.936)" fill="#666" fill-rule="evenodd"/>
        <path id="Path_40975" data-name="Path 40975" d="M248.268,93.465,127.8,163.092l.958.541L248.809,94.247C249.147,94.052,248.624,93.26,248.268,93.465Z" transform="translate(-107.398 -81.201)" fill="#666" fill-rule="evenodd"/>
        <path id="Path_40976" data-name="Path 40976" d="M251.807,98.531,129.6,169.163l.958.541L252.348,99.315C252.686,99.118,252.163,98.326,251.807,98.531Z" transform="translate(-106.245 -77.959)" fill="#666" fill-rule="evenodd"/>
        <path id="Path_40977" data-name="Path 40977" d="M251.629,103.78l-121.6,70.279.958.541,121.18-70.038C252.508,104.369,251.985,103.575,251.629,103.78Z" transform="translate(-105.969 -74.601)" fill="#666" fill-rule="evenodd"/>
        <g id="Group_13795" data-name="Group 13795" transform="translate(5.926 74.848)">
          <path id="Path_40978" data-name="Path 40978" d="M130.767,133.128c6.241,3.557,11.3,12.257,11.3,19.433s-5.06,10.116-11.3,6.561v-1.45l0,0c.476.284.877.143,1.005-.351l.656-2.547a.556.556,0,0,1,.607-.49,1.386,1.386,0,0,1,.913.617l2.137,2.778c.415.54.915.754,1.251.538s.405-.8.171-1.454l-1.209-3.378a1.661,1.661,0,0,1-.056-1.169.534.534,0,0,1,.685-.343l2.366.6c.459.116.764-.2.764-.792a2.5,2.5,0,0,0-.764-1.707l-2.366-2.23a2.529,2.529,0,0,1-.685-1.163,1.4,1.4,0,0,1,.056-1.1l1.21-1.933a1.785,1.785,0,0,0-.171-1.658c-.336-.62-.838-1-1.253-.961l-2.137.226a1.141,1.141,0,0,1-.913-.477,2.544,2.544,0,0,1-.607-1.213l-.656-3.332a2.421,2.421,0,0,0-1.005-1.551l0,0v-1.448Zm0,15.632c1.264.72,2.291.125,2.291-1.332a5.012,5.012,0,0,0-2.291-3.939Zm0-15.634,0,0v1.448c-.476-.284-.877-.143-1.005.351l-.658,2.547a.552.552,0,0,1-.605.489,1.379,1.379,0,0,1-.915-.613l-2.137-2.779c-.413-.539-.915-.754-1.251-.536s-.405.8-.171,1.453l1.209,3.378a1.66,1.66,0,0,1,.056,1.169.536.536,0,0,1-.685.344l-2.366-.6c-.458-.115-.764.2-.764.794a2.506,2.506,0,0,0,.764,1.707l2.366,2.228a2.521,2.521,0,0,1,.685,1.164,1.4,1.4,0,0,1-.056,1.1l-1.209,1.933a1.783,1.783,0,0,0,.171,1.659c.336.618.838,1,1.251.959l2.137-.226a1.148,1.148,0,0,1,.915.477,2.555,2.555,0,0,1,.605,1.213l.658,3.332a2.421,2.421,0,0,0,1.005,1.551v1.45h0c-6.239-3.553-11.3-12.256-11.3-19.436s5.06-10.113,11.3-6.559Zm0,10.363h0c-1.264-.72-2.291-.125-2.291,1.33a5.007,5.007,0,0,0,2.291,3.94h0Z" transform="translate(-118.656 -131.618)" fill="#161713" fill-rule="evenodd"/>
          <path id="Path_40979" data-name="Path 40979" d="M130.273,133.416c6.241,3.557,11.3,12.257,11.3,19.431s-5.059,10.117-11.3,6.562v-1.45h0c.476.285.877.144,1.005-.349l.658-2.547a.554.554,0,0,1,.605-.49,1.385,1.385,0,0,1,.915.617l2.137,2.778c.413.538.915.754,1.251.536s.405-.8.171-1.454l-1.209-3.376a1.661,1.661,0,0,1-.056-1.169.535.535,0,0,1,.685-.344l2.366.6c.457.116.764-.2.764-.792a2.5,2.5,0,0,0-.764-1.707l-2.366-2.23a2.5,2.5,0,0,1-.685-1.163,1.4,1.4,0,0,1,.056-1.1l1.209-1.935a1.776,1.776,0,0,0-.169-1.656c-.338-.62-.838-1-1.253-.961l-2.137.226a1.15,1.15,0,0,1-.915-.477,2.556,2.556,0,0,1-.605-1.213l-.656-3.332a2.431,2.431,0,0,0-1.007-1.553h0v-1.448Zm0,15.632c1.264.72,2.291.123,2.291-1.332a5.01,5.01,0,0,0-2.291-3.939Zm0-15.634,0,0v1.448c-.476-.284-.879-.143-1.007.351l-.656,2.547a.554.554,0,0,1-.607.489,1.377,1.377,0,0,1-.913-.615l-2.137-2.778c-.415-.539-.915-.754-1.251-.538s-.405.8-.171,1.454l1.209,3.378a1.656,1.656,0,0,1,.056,1.168.539.539,0,0,1-.685.346l-2.366-.6c-.459-.116-.766.2-.766.794a2.511,2.511,0,0,0,.766,1.705l2.366,2.23a2.529,2.529,0,0,1,.685,1.163,1.4,1.4,0,0,1-.056,1.1l-1.209,1.933a1.783,1.783,0,0,0,.171,1.659c.336.618.838,1,1.251.958l2.137-.225a1.143,1.143,0,0,1,.915.477,2.556,2.556,0,0,1,.605,1.213l.656,3.332a2.423,2.423,0,0,0,1.007,1.551v1.45h0c-6.239-3.553-11.3-12.257-11.3-19.436s5.06-10.113,11.3-6.559Zm0,10.363h0c-1.263-.722-2.289-.125-2.289,1.33a5.007,5.007,0,0,0,2.289,3.939l0,0Z" transform="translate(-118.972 -131.434)" fill="#363634" fill-rule="evenodd"/>
        </g>
        <g id="Group_13796" data-name="Group 13796" transform="translate(0 77.7)">
          <path id="Path_40980" data-name="Path 40980" d="M142.127,168.886c-2.187-13.025-10.24-27.051-15.019-29.81l-9.909-5.72-1.841,1.063,1.8,14.233a11.824,11.824,0,0,0,5.049,8.743l18.111,12.574Z" transform="translate(-115.358 -133.357)" fill="#f1ece6" fill-rule="evenodd"/>
          <path id="Path_40981" data-name="Path 40981" d="M140.322,169.555c-2.187-13.025-10.239-27.051-15.017-29.81l-9.947-5.741v15.317a9.858,9.858,0,0,0,5.049,8.743Z" transform="translate(-115.358 -132.942)" fill="#bcb5ad" fill-rule="evenodd"/>
        </g>
      </g>
      <g id="Group_13798" data-name="Group 13798" transform="translate(122.831 77.438)">
        <path id="Path_40982" data-name="Path 40982" d="M148.606,85,167.053,74.54c.512-.29,1.117.03,1.343.713l.456,1.368a1.528,1.528,0,0,1-.518,1.768L149.886,88.845c-.513.29-1.118-.03-1.345-.712l-.456-1.368A1.531,1.531,0,0,1,148.606,85Z" transform="translate(-147.999 -74.433)" fill="#333" fill-rule="evenodd"/>
        <path id="Path_40983" data-name="Path 40983" d="M149.136,84.206,165.5,74.93c.454-.257.992.026,1.194.631l.4,1.213a1.358,1.358,0,0,1-.461,1.569L150.272,87.62c-.456.257-.992-.026-1.194-.633l-.4-1.212A1.357,1.357,0,0,1,149.136,84.206Z" transform="translate(-147.616 -74.175)" fill-rule="evenodd" fill="url(#radial-gradient)"/>
      </g>
    </g>
  </g>
</svg>
