<?xml version="1.0" standalone="no"?>
<!DOCTYPE svg PUBLIC "-//W3C//DTD SVG 20010904//EN"
 "http://www.w3.org/TR/2001/REC-SVG-20010904/DTD/svg10.dtd">
<svg version="1.0" xmlns="http://www.w3.org/2000/svg"
 width="900.000000pt" height="560.000000pt" viewBox="0 0 900.000000 560.000000"
 preserveAspectRatio="xMidYMid meet">

<g transform="translate(0.000000,560.000000) scale(0.100000,-0.100000)"
fill="#000000" stroke="none">
<path d="M4288 4916 c-39 -14 -67 -40 -95 -91 -22 -39 -23 -178 -1 -220 l15
-28 12 65 c6 35 11 74 11 86 0 12 16 37 35 57 l35 35 83 -6 c51 -3 88 -11 97
-20 9 -9 19 -50 25 -107 l11 -92 13 60 c7 33 11 82 8 110 -6 45 -12 55 -63
103 -51 48 -83 62 -76 33 4 -18 -26 -13 -48 9 -11 11 -21 20 -22 20 -2 -1 -20
-7 -40 -14z"/>
<path d="M4778 4923 c6 -2 18 -2 25 0 6 3 1 5 -13 5 -14 0 -19 -2 -12 -5z"/>
<path d="M4808 4902 c-9 -9 -31 -22 -48 -29 -32 -12 -32 -12 -15 7 29 32 -3
24 -35 -8 -37 -37 -49 -87 -47 -188 2 -62 7 -85 20 -99 17 -17 18 -16 11 9 -7
31 -8 36 -6 94 1 23 7 42 13 42 8 0 9 -11 5 -31 -6 -31 -6 -31 34 -27 38 3 40
2 40 -26 0 -16 8 -38 17 -48 24 -27 4 -46 -32 -30 -22 10 -25 9 -25 -9 0 -12
7 -37 17 -56 11 -25 13 -37 5 -42 -6 -4 -10 -16 -9 -28 1 -15 9 -23 29 -25 33
-5 43 0 52 28 4 13 1 26 -9 34 -19 16 -19 34 0 50 8 7 12 16 9 21 -3 5 1 9 8
9 8 1 6 6 -5 15 -12 9 -17 20 -13 33 4 11 0 24 -8 31 -10 8 -12 24 -9 51 6 46
-14 73 -56 73 -24 0 -26 3 -23 39 2 21 8 38 12 38 4 0 18 10 31 23 28 27 86
34 121 16 21 -11 22 -11 9 5 -13 15 -64 47 -73 45 -2 0 -10 -8 -20 -17z m-53
-172 c3 -5 -1 -10 -10 -10 -9 0 -13 5 -10 10 3 6 8 10 10 10 2 0 7 -4 10 -10z"/>
<path d="M3626 4885 c-46 -16 -91 -57 -116 -105 -25 -50 -52 -147 -54 -200 -2
-25 -15 -72 -30 -104 -15 -32 -25 -65 -22 -72 3 -7 0 -15 -7 -17 -9 -3 -9 -8
2 -20 19 -24 -7 -61 -63 -86 -62 -29 -77 -65 -75 -183 2 -110 -14 -248 -43
-373 -18 -76 -22 -86 -30 -66 -6 17 -12 21 -19 14 -8 -8 -7 -17 1 -33 6 -12 9
-24 6 -27 -3 -3 -8 2 -12 11 -3 9 -10 16 -15 16 -14 0 -10 -28 8 -58 l17 -27
-27 24 c-43 39 -49 19 -11 -39 14 -22 13 -22 -8 3 -13 15 -26 27 -29 27 -2 0
-13 -17 -24 -37 -11 -21 -25 -42 -32 -46 -7 -4 -13 -15 -13 -22 0 -8 -4 -15
-8 -15 -9 0 -162 -223 -162 -235 0 -4 -17 -28 -38 -54 -62 -75 -122 -166 -122
-184 0 -10 -6 -20 -14 -23 -7 -3 -34 -36 -60 -74 -26 -38 -56 -72 -65 -75 -44
-13 -121 41 -120 84 0 14 21 57 47 96 39 57 53 70 82 76 34 7 70 40 70 63 0
16 -100 37 -100 22 -1 -6 -10 0 -21 14 -29 35 -20 87 33 189 l43 83 -3 223 -3
222 31 27 c42 34 107 36 145 4 l26 -23 -1 -202 c0 -111 -4 -213 -10 -227 -20
-55 18 -11 97 111 l82 126 -6 141 c-3 78 -2 138 2 134 4 -4 16 1 25 13 18 20
17 54 -2 65 -5 3 -3 13 6 23 14 15 14 20 2 37 -14 18 -15 18 -41 -9 -33 -32
-51 -34 -60 -6 -8 24 -61 59 -91 59 -40 0 -89 28 -130 74 -23 25 -46 46 -51
46 -7 0 -5 -22 3 -60 11 -46 12 -79 5 -145 -6 -47 -13 -90 -16 -95 -12 -19
-45 -10 -54 13 -5 13 -46 77 -90 142 -61 90 -81 126 -81 152 0 18 -3 33 -6 33
-3 0 -28 -19 -55 -43 -29 -26 -72 -51 -106 -62 -32 -11 -61 -24 -66 -30 -9
-12 1 -86 14 -100 5 -5 9 -13 9 -19 0 -5 -7 -1 -15 10 -16 21 -21 8 -6 -15 7
-11 13 -12 24 -3 11 9 25 6 64 -14 42 -20 51 -29 49 -49 -1 -22 -16 -37 -16
-17 0 15 -30 9 -47 -10 -9 -10 -11 -18 -5 -18 6 0 13 4 16 9 5 8 13 8 45 2 2
-1 -8 -10 -22 -22 -15 -11 -32 -19 -39 -17 -7 2 -23 -7 -36 -20 -15 -15 -18
-22 -8 -22 8 0 17 6 20 13 3 9 8 8 15 -4 7 -11 19 -15 37 -11 19 3 22 7 12 13
-10 7 -10 9 3 9 8 0 20 -5 27 -12 9 -9 17 -7 36 11 14 13 29 20 35 16 6 -3 11
-2 11 4 0 18 -21 23 -37 9 -13 -10 -17 -10 -20 0 -3 6 -9 10 -14 6 -18 -11 -8
26 14 50 21 24 24 25 55 11 18 -8 31 -19 28 -24 -4 -5 -2 -12 4 -16 5 -3 10
-11 10 -17 0 -7 -4 -7 -14 1 -11 9 -12 6 -8 -14 3 -16 11 -25 23 -25 11 0 19
4 19 10 0 6 9 6 23 1 21 -8 22 -13 22 -118 0 -78 -3 -109 -11 -106 -7 2 -15
-12 -19 -34 -3 -21 -13 -52 -21 -69 -19 -41 -23 -90 -6 -86 19 3 14 -25 -17
-92 -16 -33 -32 -72 -36 -86 -4 -14 -15 -36 -25 -50 -29 -43 -34 -54 -22 -46
9 5 12 -9 13 -46 1 -29 3 -78 5 -108 2 -30 5 -100 7 -155 3 -106 33 -340 47
-365 4 -9 6 -88 3 -175 -2 -88 -1 -201 4 -252 l8 -92 24 12 c13 7 23 17 23 22
0 6 5 17 12 25 11 13 25 54 41 124 3 11 12 24 21 29 9 5 23 18 33 29 33 41 43
48 66 48 21 0 24 -5 27 -62 4 -59 -6 -253 -33 -658 -15 -220 -15 -522 1 -625
11 -76 11 -80 -9 -96 l-20 -17 22 -6 c21 -5 21 -6 2 -20 -11 -9 -37 -16 -57
-16 -29 0 -41 -6 -59 -31 -20 -28 -20 -33 -7 -43 8 -6 13 -16 11 -23 -6 -16
75 -27 134 -18 59 9 114 31 130 52 7 8 33 19 59 24 68 13 77 24 70 84 -3 27 1
95 9 150 9 55 20 171 25 257 5 86 19 199 30 250 14 64 20 130 20 218 0 91 6
149 21 215 12 50 33 150 48 224 l28 134 21 -59 c42 -115 61 -309 67 -689 8
-450 17 -556 52 -610 22 -33 26 -50 25 -101 -2 -61 -2 -62 41 -96 86 -71 131
-85 231 -72 64 9 73 29 40 88 -14 25 -28 46 -30 46 -3 0 -2 -4 1 -10 4 -6 -5
-10 -20 -10 -20 0 -26 4 -23 18 2 9 11 16 20 16 14 -1 14 2 -4 27 l-21 28 27
94 c21 75 26 114 25 185 -1 50 2 95 5 100 3 6 2 13 -4 17 -5 3 -9 21 -9 38 l2
32 10 -38 c6 -20 16 -37 23 -37 8 0 35 -27 61 -59 35 -43 55 -60 73 -60 48 -2
53 -12 46 -93 -7 -66 -5 -80 15 -121 13 -26 26 -47 29 -47 8 0 6 -53 -3 -67
-4 -6 0 -16 9 -24 13 -11 11 -14 -16 -25 -22 -10 -29 -18 -23 -26 4 -7 8 -26
8 -43 0 -30 1 -30 73 -39 127 -15 171 12 134 82 -12 23 -17 44 -13 47 5 3 11
-1 14 -7 3 -7 3 6 1 30 -4 46 2 54 16 19 8 -21 9 -21 9 6 1 21 -7 32 -34 48
-19 12 -35 23 -35 25 0 2 13 10 28 18 28 15 29 15 27 -15 -2 -27 14 -44 16
-16 1 6 4 1 8 -12 6 -24 8 -23 39 24 18 27 31 56 30 63 -2 8 -30 25 -63 39
-33 14 -64 29 -69 34 -6 5 -2 25 12 51 11 24 25 55 31 71 l11 27 -61 0 c-53 0
-60 2 -55 18 2 9 7 44 11 77 11 115 9 110 65 107 l50 -4 0 54 c0 30 -6 60 -12
67 -10 11 -10 13 0 7 9 -5 12 4 12 33 0 23 4 41 9 41 5 0 12 8 14 18 4 16 5
16 6 0 2 -32 21 -19 21 15 0 24 -3 28 -10 17 -7 -11 -10 -2 -10 33 0 68 -16
58 -24 -15 -8 -63 -32 -100 -48 -75 -5 7 -7 -8 -5 -33 1 -25 -2 -46 -7 -47 -5
-1 -13 -7 -18 -15 -12 -18 0 111 21 220 14 70 20 87 34 86 11 -1 17 5 17 20 0
17 -2 18 -10 6 -8 -12 -10 -10 -10 8 0 13 4 21 9 18 5 -4 7 10 4 31 -2 21 0
56 4 78 7 33 14 41 38 46 18 3 -8 7 -65 10 -52 2 -98 0 -102 -5 -3 -5 -9 -53
-12 -105 -4 -53 -15 -154 -27 -226 -11 -71 -31 -199 -44 -284 -13 -84 -26
-155 -28 -158 -5 -4 -72 100 -101 154 -11 22 -16 58 -16 116 0 73 3 86 20 98
18 13 21 28 25 159 8 277 7 355 -5 437 -10 70 -10 87 3 112 12 24 12 29 1 24
-8 -3 -14 -12 -14 -21 0 -13 -3 -12 -20 3 -11 10 -17 21 -15 26 6 9 -34 39
-52 39 -7 0 -13 -5 -13 -11 0 -5 5 -7 11 -3 7 4 10 2 8 -5 -3 -7 -8 -12 -12
-12 -4 1 -16 1 -27 1 -25 0 -28 41 -4 61 14 11 18 11 29 -4 16 -22 25 -22 26
1 0 13 2 14 6 2 14 -42 16 -44 22 -15 6 30 7 30 71 30 73 0 72 1 87 -100 6
-41 8 -26 14 90 4 77 10 179 13 227 l7 87 -43 8 -43 9 -7 94 c-21 297 -29 817
-14 877 7 29 6 34 -15 43 l-24 10 24 -3 c23 -2 25 3 46 113 29 159 51 196 160
275 65 47 68 57 25 75 -31 13 -40 30 -17 30 8 0 22 9 32 20 14 15 16 29 11 64
-4 25 -12 45 -18 43 -7 -1 -11 33 -12 103 -2 82 -8 123 -28 189 -56 178 -144
242 -272 196z m136 -116 c15 -8 45 -77 36 -83 -1 -1 -15 -7 -30 -14 -48 -20
-29 -54 32 -56 24 -1 25 -4 24 -60 -2 -58 -3 -61 -48 -104 -42 -39 -51 -44
-82 -39 -45 8 -111 63 -125 107 -18 53 -15 171 5 182 9 5 16 16 16 24 0 8 12
26 27 40 23 21 32 24 77 18 28 -4 59 -11 68 -15z m48 -109 c0 -5 -7 -10 -15
-10 -8 0 -15 5 -15 10 0 6 7 10 15 10 8 0 15 -4 15 -10z m-220 -293 c0 -5 6
-7 14 -4 7 3 18 1 23 -4 7 -7 12 -3 16 10 3 12 0 21 -6 21 -6 0 -7 3 -4 7 4 3
16 -2 26 -11 12 -11 31 -16 53 -14 30 3 33 1 31 -22 -1 -14 3 -38 9 -55 5 -16
11 -57 14 -89 2 -33 8 -64 13 -69 6 -6 8 26 6 91 -4 112 -1 118 58 101 60 -16
62 -28 17 -107 -22 -39 -40 -75 -40 -79 0 -4 -7 -16 -14 -25 -12 -16 -16 -13
-49 35 -73 109 -106 144 -144 153 -43 10 -51 21 -51 67 -1 39 0 41 14 23 8
-11 14 -24 14 -29z m-606 -273 c3 -8 2 -12 -4 -9 -6 3 -10 10 -10 16 0 14 7
11 14 -7z m-515 -485 c-5 -22 -7 -43 -5 -47 2 -4 -2 -15 -9 -25 -12 -16 -13
-16 -17 7 -3 16 -1 23 5 19 6 -4 8 0 4 10 -3 10 -2 17 3 17 6 0 10 16 10 36 0
19 4 33 9 30 5 -4 5 -23 0 -47z m636 -369 c10 -11 16 -20 13 -20 -3 0 -13 9
-23 20 -10 11 -16 20 -13 20 3 0 13 -9 23 -20z m-549 -152 c16 -16 16 -18 1
-18 -9 0 -23 13 -32 30 -19 36 -19 52 0 25 8 -11 22 -28 31 -37z m31 10 c-3
-8 -6 -5 -6 6 -1 11 2 17 5 13 3 -3 4 -12 1 -19z m534 -5 c13 -16 12 -17 -3
-4 -10 7 -18 15 -18 17 0 8 8 3 21 -13z m4 -73 c10 -11 16 -20 13 -20 -3 0
-13 9 -23 20 -10 11 -16 20 -13 20 3 0 13 -9 23 -20z m10 -78 c-3 -3 -6 -3 -7
-1 -2 2 -14 18 -28 34 l-25 30 32 -29 c18 -16 31 -32 28 -34z m-3 -57 c6 -12
-4 -6 -26 14 -20 19 -36 39 -36 45 0 13 49 -34 62 -59z m-42 -20 c35 -36 62
-65 59 -65 -2 0 -34 29 -69 65 -35 36 -62 65 -59 65 2 0 34 -29 69 -65z m-20
-41 c30 -30 48 -52 40 -48 -15 6 -107 104 -99 104 3 0 29 -25 59 -56z m573
-255 c35 -9 37 -12 37 -49 0 -35 -4 -41 -35 -56 -42 -19 -53 -14 -37 20 8 19
7 28 -4 43 -13 17 -15 17 -33 -5 -11 -12 -21 -28 -23 -34 -2 -6 -9 -8 -15 -5
-9 5 -9 17 -2 40 6 17 12 38 15 45 4 15 46 16 97 1z m-89 -1011 c-8 -29 -15
-73 -15 -98 -1 -40 -2 -42 -8 -15 -8 33 -4 84 11 133 16 53 26 36 12 -20z
m363 -130 c-3 -8 -6 -5 -6 6 -1 11 2 17 5 13 3 -3 4 -12 1 -19z m-363 -24 c9
-3 16 -11 16 -16 0 -7 -5 -6 -13 1 -8 6 -17 8 -20 4 -4 -3 -7 -1 -7 5 0 14 2
14 24 6z m443 -466 c-3 -8 -6 -5 -6 6 -1 11 2 17 5 13 3 -3 4 -12 1 -19z m-57
-178 c0 -5 -4 -10 -10 -10 -5 0 -10 5 -10 10 0 6 5 10 10 10 6 0 10 -4 10 -10z"/>
<path d="M3628 4673 c18 -7 4 -23 -19 -23 -29 0 -18 -24 12 -28 13 -2 33 4 44
13 20 15 20 15 1 30 -11 8 -27 15 -35 14 -11 0 -12 -2 -3 -6z"/>
<path d="M3674 4545 c23 -17 52 -19 61 -5 5 8 11 7 21 -1 8 -6 17 -10 19 -7 3
3 -1 11 -9 17 -10 9 -20 9 -33 2 -12 -6 -25 -6 -34 0 -7 5 -21 9 -29 9 -11 -1
-10 -4 4 -15z"/>
<path d="M3640 4512 c0 -18 42 -52 64 -52 20 0 66 37 66 53 0 4 -29 7 -65 7
-36 0 -65 -4 -65 -8z m93 -11 c5 -1 5 -5 2 -11 -8 -13 -62 -13 -69 -1 -7 11
11 18 39 15 11 -1 24 -3 28 -3z"/>
<path d="M6354 4869 c-36 -10 -90 -67 -110 -115 -17 -41 -18 -140 -2 -150 6
-4 14 -2 16 5 6 18 55 61 69 61 6 0 15 -5 18 -11 4 -6 1 -10 -6 -8 -28 3 -39
-1 -39 -16 0 -21 27 -30 44 -16 7 6 21 9 30 5 25 -10 20 23 -7 41 -12 8 -34
17 -47 19 -14 2 -26 5 -28 5 -2 1 7 19 20 42 31 55 49 63 110 49 69 -17 121
-68 139 -137 7 -29 16 -53 19 -53 13 0 30 52 30 94 0 25 -10 63 -26 94 -43 87
-128 121 -230 91z"/>
<path d="M2514 4849 c-69 -20 -124 -103 -124 -186 0 -17 -5 -35 -10 -38 -8 -5
-7 -11 0 -20 8 -10 8 -19 0 -34 -6 -12 -7 -21 -2 -21 18 0 30 25 37 73 6 36
14 53 37 70 16 12 44 35 61 50 22 21 37 27 56 24 36 -8 102 -24 129 -32 37
-12 30 40 -12 80 -46 43 -103 54 -172 34z"/>
<path d="M5443 4853 c-28 -5 -81 -65 -104 -118 -18 -41 -28 -162 -15 -183 13
-22 26 -12 26 18 0 42 34 63 80 50 18 -5 36 -7 39 -4 8 8 -22 24 -36 19 -7 -2
-15 0 -18 6 -4 5 -11 6 -17 3 -15 -10 -2 53 17 83 32 48 144 35 176 -22 10
-16 21 -42 24 -57 7 -27 5 -28 -28 -28 -20 0 -39 -5 -43 -12 -5 -8 4 -9 34 -5
52 9 72 -9 72 -64 0 -45 3 -46 30 -19 16 16 21 39 26 108 6 82 4 93 -20 140
-30 60 -90 98 -135 88 -37 -9 -43 -10 -66 -4 -11 3 -30 3 -42 1z"/>
<path d="M7263 4833 c-18 -9 -33 -20 -33 -25 0 -5 -16 -22 -35 -39 -27 -24
-41 -49 -60 -110 -36 -115 -31 -163 23 -213 12 -10 24 -32 27 -48 5 -21 10
-27 17 -20 7 7 7 25 -1 56 -14 55 -14 133 -1 141 6 3 15 3 21 -1 6 -3 29 -7
50 -8 29 -2 38 1 35 11 -3 7 0 13 6 13 21 0 -13 29 -43 35 -16 4 -31 11 -35
16 -3 6 5 7 22 3 16 -4 56 -8 89 -8 l60 -1 -25 -23 -25 -23 45 5 c25 3 50 3
56 -2 32 -21 42 -86 29 -182 -5 -38 -4 -42 7 -29 7 9 18 14 25 12 17 -6 26 16
13 32 -9 11 -9 15 -1 15 6 0 11 12 11 28 0 15 7 49 15 76 35 115 2 214 -89
270 -60 37 -152 46 -203 19z m0 -240 c-7 -2 -19 -2 -25 0 -7 3 -2 5 12 5 14 0
19 -2 13 -5z"/>
<path d="M1528 4753 c6 -2 18 -2 25 0 6 3 1 5 -13 5 -14 0 -19 -2 -12 -5z"/>
<path d="M4988 4725 c2 -14 8 -22 13 -19 5 3 5 14 -1 25 -14 26 -18 24 -12 -6z"/>
<path d="M1473 4729 c-39 -11 -80 -58 -92 -107 -12 -50 -20 -156 -10 -140 5 7
9 25 9 39 0 14 7 47 16 73 25 72 69 86 202 63 39 -6 57 -39 79 -147 10 -52 13
-57 24 -37 6 11 8 44 4 82 -8 73 -49 149 -88 164 -38 15 -110 20 -144 10z"/>
<path d="M4866 4721 c-3 -5 3 -11 13 -14 12 -3 22 1 25 9 6 16 -29 20 -38 5z"/>
<path d="M7792 4694 c-57 -28 -101 -75 -133 -142 -17 -35 -19 -47 -10 -74 6
-17 11 -46 11 -65 0 -22 4 -32 11 -27 8 4 9 -1 4 -16 -5 -15 -2 -25 6 -31 24
-15 29 -10 29 29 0 34 4 39 33 50 18 7 43 12 55 12 11 0 24 5 27 10 4 6 -13
10 -44 10 -37 0 -53 -5 -61 -17 -10 -16 -11 -16 -5 2 4 11 10 40 15 65 15 78
80 110 196 95 44 -5 59 -12 76 -35 12 -16 22 -42 23 -57 1 -15 5 -55 10 -88
l8 -60 20 67 c22 75 18 121 -15 163 -11 14 -32 31 -45 36 -13 5 -28 22 -34 37
-10 31 -63 62 -102 62 -13 0 -46 -12 -75 -26z"/>
<path d="M4240 4675 c-19 -23 1 -38 55 -40 48 -2 52 1 33 28 -19 25 -71 32
-88 12z"/>
<path d="M4413 4658 c4 -24 22 -35 32 -19 3 6 0 11 -7 11 -7 1 -2 7 12 15 l25
14 -32 1 c-28 0 -32 -3 -30 -22z"/>
<path d="M6465 4640 c-3 -5 -5 -10 -3 -11 2 0 16 -2 31 -4 24 -3 26 -1 16 11
-13 16 -35 18 -44 4z"/>
<path d="M2500 4634 c0 -3 10 -9 23 -14 19 -8 17 -9 -15 -9 -21 -1 -38 -6 -38
-11 0 -15 42 -29 59 -20 8 4 23 5 35 3 19 -4 19 -3 5 9 -9 7 -17 18 -18 23 -1
10 -51 28 -51 19z"/>
<path d="M4712 4611 c2 -7 7 -12 11 -12 12 1 9 15 -3 20 -7 2 -11 -2 -8 -8z"/>
<path d="M2650 4590 c0 -5 0 -13 0 -17 0 -12 50 -23 50 -11 0 13 -26 38 -39
38 -6 0 -11 -4 -11 -10z"/>
<path d="M5385 4580 c3 -5 19 -10 35 -10 16 0 32 5 35 10 4 6 -10 10 -35 10
-25 0 -39 -4 -35 -10z"/>
<path d="M6820 4578 c-41 -11 -95 -50 -110 -78 -20 -37 -27 -108 -18 -164 13
-71 25 -65 25 12 1 86 11 119 43 142 24 17 37 19 110 13 66 -5 88 -11 109 -29
16 -15 21 -23 12 -24 -11 0 -9 -5 5 -21 10 -11 23 -34 29 -51 23 -68 46 -6 25
66 -16 54 -56 103 -101 127 -42 21 -75 23 -129 7z"/>
<path d="M5555 4570 c3 -5 20 -10 36 -10 18 0 28 4 24 10 -3 6 -20 10 -36 10
-18 0 -28 -4 -24 -10z"/>
<path d="M5886 4555 c-60 -35 -91 -69 -103 -112 -15 -49 -5 -169 14 -185 13
-11 15 -5 11 42 -7 86 7 140 51 187 35 39 40 41 84 38 32 -2 58 -11 83 -30 37
-28 79 -104 90 -163 7 -35 41 -63 48 -40 24 76 6 155 -49 224 -54 66 -154 83
-229 39z"/>
<path d="M7370 4572 c0 -4 16 -7 34 -8 19 0 33 3 30 8 -7 10 -64 11 -64 0z"/>
<path d="M5025 4533 c-62 -33 -102 -100 -112 -188 -7 -63 -8 -65 -45 -55 -18
4 -45 11 -60 14 -22 5 -28 14 -35 48 -12 62 -29 66 -91 25 -32 -22 -71 -38
-100 -43 -63 -9 -67 -12 -42 -39 17 -18 22 -39 27 -116 6 -97 23 -149 48 -149
20 0 19 13 -5 40 -14 16 -20 37 -20 73 l0 49 51 -53 c28 -30 57 -66 65 -81 19
-36 28 -36 19 -1 -4 16 -31 53 -61 85 -82 86 -75 85 71 -3 82 -49 131 -104
156 -177 10 -30 13 -32 28 -18 10 9 21 16 24 16 8 0 47 -75 47 -91 0 -7 10
-24 23 -37 l22 -25 -22 12 c-12 6 -25 16 -28 21 -11 18 -25 11 -25 -13 0 -29
17 -50 52 -65 34 -14 42 -3 34 43 -6 33 9 85 26 85 4 0 8 -17 9 -37 0 -35 1
-36 10 -14 5 13 7 32 4 42 -8 25 -45 24 -52 -1 -7 -26 -23 -26 -23 1 0 23 -18
61 -33 71 -6 3 -10 27 -9 52 2 29 -6 64 -18 91 -11 24 -20 50 -20 58 0 8 -6
20 -14 26 -20 16 -27 51 -11 51 8 0 15 17 18 43 9 77 19 102 54 139 46 47 89
56 142 28 50 -25 66 -48 82 -122 15 -65 35 -79 25 -18 -4 25 -2 40 4 40 20 0
9 31 -24 68 -26 28 -53 44 -105 62 -77 25 -95 50 -37 50 45 0 103 -25 132 -58
13 -15 24 -22 24 -17 0 23 -51 63 -96 75 -27 7 -53 17 -58 21 -13 12 -16 11
-51 -8z m-28 -625 c-3 -8 -6 -5 -6 6 -1 11 2 17 5 13 3 -3 4 -12 1 -19z"/>
<path d="M3199 4507 c37 -12 53 -41 72 -127 9 -44 13 -49 26 -38 11 9 13 23 9
53 -4 22 -7 47 -8 55 0 8 -6 21 -12 29 -8 11 -8 13 1 8 6 -4 14 -3 18 3 9 15
-40 30 -93 29 l-47 -1 34 -11z"/>
<path d="M4292 4503 c2 -10 12 -19 23 -20 11 -2 14 0 8 3 -7 3 -13 12 -13 20
0 8 -5 14 -11 14 -6 0 -9 -8 -7 -17z"/>
<path d="M1413 4503 c-7 -2 -13 -9 -13 -15 0 -6 7 -8 15 -5 8 4 17 2 20 -3 8
-12 16 -12 35 0 13 9 13 11 0 20 -16 10 -37 12 -57 3z"/>
<path d="M1573 4503 c-7 -2 -13 -9 -13 -14 0 -6 5 -7 10 -4 6 3 10 1 10 -5 0
-10 36 -5 49 6 11 10 -38 25 -56 17z"/>
<path d="M2990 4504 c-74 -24 -99 -37 -103 -54 -3 -11 -1 -23 4 -26 5 -3 7
-10 3 -15 -5 -8 20 -98 34 -123 8 -14 22 17 22 50 0 71 48 152 90 154 8 0 22
5 30 10 11 7 4 10 -25 9 -22 0 -47 -3 -55 -5z"/>
<path d="M2575 4490 c-3 -5 -1 -10 4 -10 6 0 11 5 11 10 0 6 -2 10 -4 10 -3 0
-8 -4 -11 -10z"/>
<path d="M5465 4490 c-3 -5 1 -10 10 -10 9 0 13 5 10 10 -3 6 -8 10 -10 10 -2
0 -7 -4 -10 -10z"/>
<path d="M6370 4485 c-17 -21 -4 -32 21 -17 10 7 32 10 47 7 l27 -5 -30 14
c-39 19 -50 19 -65 1z"/>
<path d="M2510 4451 c0 -14 23 -29 36 -24 22 8 16 20 -11 25 -14 3 -25 2 -25
-1z"/>
<path d="M2985 4439 c-11 -17 2 -22 25 -9 11 6 30 8 42 4 14 -4 18 -2 14 5 -9
14 -73 14 -81 0z"/>
<path d="M5420 4430 c8 -5 47 -9 85 -9 48 0 64 3 50 9 -29 12 -154 12 -135 0z"/>
<path d="M7265 4430 c3 -5 8 -10 11 -10 2 0 4 5 4 10 0 6 -5 10 -11 10 -5 0
-7 -4 -4 -10z"/>
<path d="M2437 4413 c-2 -4 8 -21 24 -38 35 -37 37 -30 5 14 -13 18 -26 29
-29 24z"/>
<path d="M3178 4413 c7 -3 16 -2 19 1 4 3 -2 6 -13 5 -11 0 -14 -3 -6 -6z"/>
<path d="M6008 4413 c-10 -2 -18 -8 -18 -13 0 -5 12 -5 28 -1 15 4 33 6 41 3
8 -3 11 0 7 7 -7 11 -26 13 -58 4z"/>
<path d="M7830 4401 c13 -25 33 -28 28 -4 -2 10 -11 19 -21 21 -16 3 -17 1 -7
-17z"/>
<path d="M7932 4409 c2 -7 10 -15 17 -17 8 -3 12 1 9 9 -2 7 -10 15 -17 17 -8
3 -12 -1 -9 -9z"/>
<path d="M3006 4401 c-4 -5 3 -7 14 -4 23 6 26 13 6 13 -8 0 -17 -4 -20 -9z"/>
<path d="M7745 4400 c3 -5 19 -10 36 -10 16 0 29 5 29 10 0 6 -16 10 -36 10
-21 0 -33 -4 -29 -10z"/>
<path d="M2156 4391 c-14 -5 -16 -10 -8 -15 7 -4 12 -21 12 -38 0 -31 0 -31
21 -12 l21 19 -7 -34 c-4 -21 -4 -31 3 -27 14 9 22 76 11 97 -10 20 -22 22
-53 10z"/>
<path d="M5480 4390 c0 -5 5 -10 11 -10 5 0 7 5 4 10 -3 6 -8 10 -11 10 -2 0
-4 -4 -4 -10z"/>
<path d="M5839 4383 c-13 -15 -12 -15 8 -5 12 7 28 9 36 6 8 -3 18 -1 22 5 11
18 -51 13 -66 -6z"/>
<path d="M1820 4370 c-8 -16 -8 -24 3 -35 8 -8 17 -11 21 -8 3 4 6 0 7 -8 0
-8 7 2 14 21 7 19 14 29 14 22 1 -9 8 -11 21 -7 11 3 28 2 37 -4 16 -9 16 -10
-4 -11 -12 0 -24 -4 -28 -9 -3 -5 14 -9 38 -8 37 2 44 5 43 22 -1 27 -41 45
-103 45 -42 0 -54 -4 -63 -20z"/>
<path d="M2083 4373 c-12 -2 -27 -11 -35 -20 -11 -14 -9 -15 22 -8 19 5 43 8
53 7 10 0 16 5 14 11 -4 13 -21 17 -54 10z"/>
<path d="M6744 4366 c-15 -11 -13 -12 14 -8 36 5 38 7 18 15 -8 3 -22 0 -32
-7z"/>
<path d="M1428 4365 c-11 -11 45 -53 78 -60 27 -6 27 -5 -5 10 -37 17 -34 30
9 38 14 3 4 5 -22 4 -27 -1 -49 2 -51 6 -1 5 -5 5 -9 2z"/>
<path d="M6008 4363 c-26 -6 -22 -23 5 -23 35 0 67 11 61 21 -5 9 -36 10 -66
2z"/>
<path d="M6296 4362 c-8 -13 4 -71 16 -78 5 -3 6 13 2 38 -8 49 -10 53 -18 40z"/>
<path d="M1567 4339 c4 -15 8 -17 19 -8 18 15 18 16 -5 22 -14 3 -17 0 -14
-14z"/>
<path d="M5397 4353 c-16 -26 61 -57 128 -51 63 5 47 22 -27 29 -37 3 -73 11
-81 18 -9 6 -18 8 -20 4z"/>
<path d="M5839 4344 c-10 -12 -4 -14 35 -14 25 0 46 5 46 10 0 6 -3 11 -7 11
-46 7 -63 6 -74 -7z"/>
<path d="M6915 4350 c3 -5 12 -10 20 -10 8 0 17 5 20 10 4 6 -5 10 -20 10 -15
0 -24 -4 -20 -10z"/>
<path d="M6537 4313 c-3 -21 -8 -47 -12 -58 -7 -20 -6 -20 9 -1 9 11 16 37 16
58 0 48 -6 49 -13 1z"/>
<path d="M6763 4340 c-13 -5 -23 -16 -23 -24 0 -26 59 0 60 27 0 9 -9 8 -37
-3z"/>
<path d="M2075 4330 c3 -5 16 -10 28 -9 21 0 21 1 2 9 -28 12 -37 12 -30 0z"/>
<path d="M4119 4315 c-16 -38 -25 -215 -11 -215 6 0 10 -12 9 -26 -2 -31 26
-55 44 -37 7 7 8 19 4 30 -20 45 -40 180 -33 218 11 51 4 68 -13 30z m25 -250
c3 -8 1 -15 -4 -15 -6 0 -10 7 -10 15 0 8 2 15 4 15 2 0 6 -7 10 -15z"/>
<path d="M843 4313 c4 -6 0 -28 -9 -48 -17 -42 -12 -85 11 -85 8 0 33 18 55
40 22 22 47 40 55 40 23 0 65 -22 59 -31 -3 -5 0 -9 6 -9 7 0 14 9 17 21 5 16
11 19 32 14 14 -4 28 -11 29 -16 2 -5 19 -9 38 -9 28 0 36 -5 44 -26 6 -14 10
-36 10 -50 0 -13 4 -24 9 -24 21 0 32 32 29 87 l-3 58 -103 7 c-101 7 -213 21
-261 35 -16 4 -22 2 -18 -4z"/>
<path d="M3078 4313 c7 -3 16 -2 19 1 4 3 -2 6 -13 5 -11 0 -14 -3 -6 -6z"/>
<path d="M4968 4313 c7 -3 16 -2 19 1 4 3 -2 6 -13 5 -11 0 -14 -3 -6 -6z"/>
<path d="M7824 4300 c0 -11 6 -15 18 -12 28 7 30 19 5 24 -16 3 -23 0 -23 -12z"/>
<path d="M5293 4278 c-18 -19 -33 -40 -33 -46 0 -7 -11 -24 -24 -37 -15 -15
-31 -50 -41 -93 l-17 -68 34 -37 c19 -20 38 -37 43 -37 5 0 18 -9 30 -20 12
-11 46 -24 76 -30 29 -6 61 -13 70 -15 14 -5 11 12 -16 102 -17 60 -42 135
-54 168 -13 33 -26 79 -30 103 l-6 43 -32 -33z"/>
<path d="M4965 4281 c-7 -12 4 -18 29 -17 11 1 21 7 23 14 5 14 -43 17 -52 3z"/>
<path d="M5120 4281 c0 -15 16 -22 35 -15 13 5 14 8 3 15 -18 12 -38 11 -38 0z"/>
<path d="M5880 4249 l-20 -28 21 -12 c16 -8 27 -8 45 1 13 8 43 11 73 8 37 -4
51 -2 51 8 0 7 5 14 11 16 7 2 4 10 -7 18 -16 13 -17 13 -11 -2 5 -14 -3 -18
-51 -23 -31 -3 -70 -8 -86 -10 -29 -5 -29 -5 -11 15 10 11 23 20 29 19 6 -1
26 -1 44 0 52 2 37 18 -17 18 -43 -1 -53 -5 -71 -28z"/>
<path d="M6219 4250 c-14 -16 -44 -33 -66 -39 -25 -7 -44 -20 -51 -33 -9 -20
-11 -21 -11 -4 -1 15 -6 11 -24 -15 -22 -33 -55 -49 -131 -64 -16 -4 -30 -14
-33 -25 -5 -18 -6 -18 -27 1 -35 33 -118 85 -174 109 -29 13 -63 36 -75 51
l-22 28 2 -261 c1 -143 -2 -257 -6 -252 -5 5 -13 54 -20 108 -16 140 -42 247
-52 221 -4 -11 -8 -14 -8 -7 -1 7 6 27 15 43 18 36 13 58 -15 56 -11 0 -17 -5
-15 -9 3 -4 -2 -8 -10 -8 -23 0 -30 -20 -10 -34 13 -10 16 -21 11 -44 -3 -17
-3 -32 1 -35 4 -2 1 -2 -5 -1 -14 4 -19 -14 -28 -98 -6 -54 -5 -58 14 -58 17
0 21 -6 21 -31 0 -25 3 -29 13 -20 8 6 17 8 20 4 12 -12 7 -23 -10 -23 -15 0
-16 -2 -3 -10 8 -5 15 -20 15 -32 0 -13 6 -23 14 -23 8 0 16 -6 19 -14 3 -10
-2 -11 -18 -6 -16 5 -21 4 -18 -6 3 -8 11 -14 19 -14 7 0 15 -9 17 -19 3 -14
0 -17 -12 -13 -9 4 -16 2 -16 -3 0 -6 3 -10 8 -10 14 0 7 -224 -11 -310 -9
-47 -22 -109 -28 -138 -10 -50 -25 -76 -51 -84 -10 -4 -7 -32 10 -124 22 -113
23 -139 20 -534 -2 -324 1 -429 12 -480 7 -36 15 -114 16 -175 1 -60 10 -162
19 -225 30 -211 31 -193 -4 -256 -36 -67 -39 -99 -10 -130 l20 -21 -21 -41
c-17 -31 -20 -54 -18 -108 l3 -68 35 -7 c87 -18 105 -18 123 -2 16 15 17 15
12 1 -4 -9 -14 -19 -22 -22 -14 -6 -14 -8 1 -25 15 -17 15 -18 -9 -29 -14 -7
-43 -12 -65 -12 -50 0 -58 -15 -25 -46 26 -24 32 -25 109 -21 44 3 98 8 118
12 l37 7 -4 -43 c-2 -24 2 -50 7 -56 12 -15 98 -17 148 -3 31 8 38 17 53 57
51 147 75 290 43 264 -12 -10 -13 -7 -6 21 5 18 16 67 24 108 13 65 48 216
101 427 8 34 15 94 15 135 1 59 3 69 12 53 15 -27 50 -65 60 -65 4 0 8 48 8
106 l0 107 38 -7 c20 -4 44 -9 52 -11 8 -2 22 -4 30 -4 12 -1 15 -23 16 -133
0 -73 4 -207 9 -298 6 -138 5 -175 -9 -228 -9 -35 -16 -79 -16 -98 0 -19 -7
-51 -15 -70 -14 -34 -33 -123 -40 -188 -2 -16 1 -40 6 -53 8 -21 15 -23 72
-23 40 0 70 5 83 15 10 8 15 15 11 15 -4 0 -3 9 3 21 11 19 9 20 -27 15 l-38
-6 29 14 c20 9 31 22 33 40 4 25 2 26 -52 26 l-56 0 4 102 c3 57 10 117 16
133 17 53 41 207 51 328 9 121 19 163 51 230 11 22 19 44 19 51 0 6 10 17 22
25 18 11 22 11 30 -3 14 -25 24 -19 35 19 11 34 0 148 -27 290 -5 28 -12 66
-15 85 -3 19 -11 71 -19 115 -28 167 -29 178 -18 171 6 -3 13 -21 17 -39 3
-17 10 -43 15 -57 5 -14 11 -64 13 -111 3 -48 10 -96 16 -107 8 -15 8 -22 -2
-25 -9 -4 -9 -6 0 -6 7 -1 10 -8 6 -18 -4 -10 -2 -14 4 -10 6 4 13 1 16 -5 8
-23 19 -1 22 44 2 24 5 88 7 143 l4 100 42 1 c28 1 42 -2 42 -11 0 -7 13 -39
30 -70 48 -91 62 -293 23 -322 -16 -12 -16 -13 0 -13 24 0 21 -18 -5 -42 -13
-11 -17 -16 -10 -13 8 4 12 2 11 -6 -4 -21 12 -109 21 -114 4 -2 5 -16 2 -30
-2 -14 0 -25 5 -25 6 0 7 -18 3 -45 -7 -46 0 -62 21 -49 7 4 9 -2 7 -17 -2
-15 -9 -23 -18 -22 -8 2 -31 -11 -50 -27 -19 -17 -37 -30 -40 -30 -3 0 -11 -9
-18 -21 -12 -19 -11 -20 20 -14 18 4 51 9 73 12 36 4 41 2 52 -24 8 -20 9 -42
2 -78 -6 -27 -13 -69 -16 -92 -6 -50 -23 -48 -23 2 0 25 -6 37 -22 46 -13 7
-29 18 -36 26 -16 15 -36 18 -27 3 10 -16 -6 -12 -53 16 l-45 26 8 -38 c4 -22
10 -41 15 -44 4 -3 6 -13 4 -22 -1 -10 2 -20 6 -23 5 -3 7 -12 3 -20 -3 -8 -1
-15 4 -15 5 0 9 -8 10 -17 0 -10 3 -38 7 -63 4 -29 3 -38 -2 -25 -7 14 -11 -5
-14 -65 -5 -84 8 -140 32 -140 5 0 17 -17 25 -37 9 -21 23 -46 32 -56 14 -15
15 -22 5 -37 -6 -11 -8 -22 -3 -25 5 -3 12 1 15 7 3 7 4 1 1 -14 -4 -23 -2
-28 15 -28 17 0 19 -4 14 -27 -4 -16 -12 -31 -18 -35 -14 -9 -9 -12 42 -25
l42 -10 11 41 c6 22 15 49 20 59 8 14 4 20 -20 30 l-30 13 25 44 c49 87 130
139 198 126 26 -5 35 -13 45 -44 8 -20 20 -46 28 -57 13 -19 14 -18 7 10 -4
17 -10 32 -14 35 -4 3 -10 19 -14 35 -6 27 -3 33 26 49 l32 19 -30 13 c-52 23
-141 46 -160 42 -11 -2 -26 -17 -34 -34 -23 -47 -77 -107 -84 -95 -4 6 -3 26
2 45 5 18 8 58 7 87 -2 30 1 56 6 59 4 3 10 49 13 102 3 53 10 106 16 117 7
15 8 27 0 40 -13 26 -13 98 1 107 7 4 10 -7 9 -32 -4 -76 -1 -82 20 -44 11 19
19 46 20 61 0 14 5 30 11 36 9 9 8 37 0 110 -7 54 -10 154 -8 223 2 69 0 136
-4 150 -5 14 -10 46 -12 71 -1 26 -8 54 -16 62 -7 9 -10 21 -6 26 3 6 1 19 -4
29 -6 11 -12 42 -15 69 -3 27 -6 54 -7 59 -11 39 57 94 116 94 21 0 36 2 33 5
-9 10 -479 69 -530 67 -35 -1 -36 18 -7 99 20 55 39 77 39 45 0 -9 8 -12 25
-8 25 4 25 6 25 101 0 100 7 121 42 121 10 0 30 -7 43 -16 24 -15 25 -15 34 7
12 32 49 65 93 83 29 12 43 13 70 4 18 -6 37 -15 42 -19 20 -18 28 -8 21 31
-5 30 -3 40 7 40 7 1 61 7 120 13 l107 13 11 -25 c24 -51 41 -118 50 -195 5
-44 14 -83 20 -86 34 -21 30 -154 -16 -490 -14 -107 -30 -274 -34 -371 -4 -97
-11 -182 -15 -189 -6 -10 -7 -390 -2 -555 l2 -50 37 3 c20 2 50 7 65 11 24 7
28 12 26 42 -1 19 -3 49 -3 68 0 18 -5 42 -10 52 -7 13 -6 28 3 51 13 32 14
30 26 -72 7 -58 17 -125 23 -149 8 -33 8 -49 -1 -63 -7 -11 -15 -47 -17 -79
-4 -50 -2 -60 15 -69 30 -16 164 -13 187 5 30 23 35 18 19 -23 -7 -20 -19 -56
-25 -80 -8 -30 -18 -46 -35 -52 -12 -5 -26 -13 -30 -19 -3 -7 0 -8 10 -5 11 5
14 2 9 -10 -4 -10 -1 -17 7 -18 8 0 -8 -4 -35 -7 -45 -5 -50 -9 -58 -36 -4
-16 -4 -32 1 -35 4 -3 10 -13 14 -22 5 -15 18 -18 69 -18 82 0 135 16 176 51
19 17 44 29 61 29 35 0 93 19 103 34 4 6 6 18 3 26 -2 8 -7 33 -11 54 -3 22
-10 50 -15 63 -14 38 -11 72 11 101 35 48 42 136 32 438 -5 153 -8 283 -6 289
9 25 11 326 2 375 -6 31 -7 92 -3 139 l7 84 25 -48 c38 -76 47 -133 73 -495 9
-135 16 -182 54 -390 52 -288 58 -339 45 -413 -13 -82 -8 -128 20 -163 16 -21
19 -35 14 -75 -5 -43 -3 -52 18 -72 13 -12 37 -37 52 -56 34 -41 84 -60 159
-61 99 0 113 49 52 176 -45 94 -50 126 -29 198 16 54 16 61 2 71 -12 8 -17 39
-22 126 -4 63 -16 188 -28 279 -18 137 -21 218 -22 480 0 406 8 633 23 638 7
2 12 12 12 22 0 10 5 22 11 26 8 4 9 25 5 62 -8 67 -14 78 -30 56 -11 -15 -14
-13 -19 20 -3 21 0 57 8 84 8 26 15 57 15 70 0 22 1 22 30 7 25 -13 29 -20 27
-51 -3 -47 25 -69 47 -39 11 14 15 16 16 5 0 -27 16 4 39 80 13 41 36 102 52
135 33 70 52 133 70 230 17 96 14 136 -22 235 -17 47 -41 118 -55 158 -13 40
-31 87 -40 104 -8 16 -23 60 -33 98 -10 37 -28 84 -40 103 -11 19 -21 43 -21
54 0 29 -15 38 -100 63 -148 43 -235 80 -262 114 -12 14 -18 16 -18 7 0 -8 -7
-75 -15 -150 -8 -75 -19 -185 -25 -246 -6 -60 -19 -137 -29 -170 l-19 -60 -1
85 c-2 127 -10 197 -33 278 -27 100 -17 120 45 88 15 -8 27 -11 27 -7 0 10
-96 101 -107 101 -16 0 -78 -58 -96 -89 -15 -26 -16 -30 -2 -25 19 8 19 -10 1
-39 -9 -15 -15 -70 -19 -174 -3 -86 -10 -160 -17 -170 -9 -15 -10 -11 -5 19 3
22 1 38 -5 40 -7 2 -13 72 -17 188 -5 165 -4 190 12 223 9 20 20 35 24 32 4
-2 7 6 6 18 -3 38 5 48 27 36 19 -10 18 -9 -2 19 -14 19 -19 35 -14 44 6 10 5
10 -9 -1 -9 -7 -17 -17 -17 -22 0 -24 -75 -72 -166 -108 -185 -72 -189 -75
-208 -135 -10 -30 -21 -90 -25 -134 -5 -43 -11 -84 -14 -89 -4 -6 -14 -66 -22
-133 -12 -86 -23 -135 -38 -162 -12 -21 -25 -38 -29 -38 -17 0 -62 270 -60
360 3 118 -16 72 -33 -80 -18 -161 -19 -265 -4 -309 8 -24 8 -35 -1 -46 -16
-20 -1 -19 50 1 23 9 44 14 47 10 4 -3 7 -42 7 -86 l1 -80 -50 -9 c-27 -5 -90
-13 -140 -16 -75 -6 -99 -12 -145 -37 -30 -17 -68 -35 -85 -39 -16 -4 -50 -15
-74 -24 -24 -9 -56 -14 -70 -12 l-26 3 30 12 c47 19 75 35 71 39 -2 3 -13 0
-24 -6 -12 -6 -39 -11 -60 -11 -37 0 -42 -4 -66 -45 -26 -43 -48 -56 -61 -35
-3 6 -12 10 -20 10 -10 0 -11 -7 -6 -27 7 -25 13 -28 54 -31 49 -3 57 -11 33
-31 -8 -7 -12 -21 -9 -31 3 -12 0 -20 -6 -20 -7 0 -9 -4 -6 -10 3 -5 -2 -10
-12 -10 -14 0 -15 -2 -4 -9 11 -7 10 -10 -5 -13 -12 -2 -24 -21 -35 -58 l-17
-55 -1 58 c-1 32 -7 68 -15 80 -17 27 -52 180 -68 298 -11 78 -15 89 -33 90
-11 0 -29 4 -39 8 -17 7 -15 10 18 30 30 19 41 21 65 13 16 -6 33 -7 37 -4 4
4 4 2 1 -5 -4 -6 -2 -13 5 -15 8 -3 12 -36 12 -105 1 -56 4 -104 7 -107 3 -4
13 -4 21 -1 18 7 28 48 28 108 0 22 7 70 16 105 13 49 14 73 6 99 -6 19 -6 33
-1 33 18 0 49 41 49 65 0 14 4 25 10 25 5 0 7 -13 4 -30 -4 -18 -2 -30 4 -30
13 0 26 118 17 159 -4 18 -13 31 -21 31 -9 0 -12 -5 -8 -12 5 -8 2 -9 -9 -5
-10 4 -20 0 -26 -11 -7 -12 -9 -1 -8 41 l3 57 -33 0 c-27 0 -35 -5 -44 -26 -5
-15 -8 -28 -7 -29 2 -1 13 -8 26 -14 26 -14 21 -32 -7 -24 -18 5 -61 70 -61
93 0 10 3 10 14 1 10 -8 16 -9 21 -1 3 5 15 10 26 10 10 0 19 7 19 15 0 19 10
19 37 0 20 -14 22 -13 42 30 12 25 33 74 47 110 14 36 30 62 35 59 5 -3 16 13
25 35 9 23 22 41 30 41 12 0 30 25 54 80 15 34 -3 104 -46 177 -37 62 -58 83
-83 83 -9 0 -1 -15 24 -41 l40 -42 -50 28 c-27 15 -60 34 -73 42 -14 9 -34 12
-51 8 -24 -5 -30 -12 -35 -48 -4 -23 -20 -83 -36 -132 -17 -50 -38 -122 -48
-160 -18 -75 -33 -86 -43 -33 -3 18 -13 47 -22 64 -9 17 -32 89 -52 160 -58
206 -66 217 -116 164z m-692 -222 c-3 -8 -6 -5 -6 6 -1 11 2 17 5 13 3 -3 4
-12 1 -19z m516 -28 c-9 -16 -66 -75 -126 -131 -92 -87 -107 -97 -101 -73 11
50 45 122 59 128 7 2 16 19 20 37 5 23 10 28 16 18 5 -8 9 -10 9 -5 0 5 6 4
13 -3 17 -13 37 4 37 31 0 16 5 18 34 13 20 -4 36 -2 40 4 16 26 15 8 -1 -19z
m-516 -12 c-3 -8 -6 -5 -6 6 -1 11 2 17 5 13 3 -3 4 -12 1 -19z m-27 2 c0 -5
-5 -10 -11 -10 -5 0 -7 5 -4 10 3 6 8 10 11 10 2 0 4 -4 4 -10z m1 -43 c-13
-13 -26 -3 -16 12 3 6 11 8 17 5 6 -4 6 -10 -1 -17z m34 3 c3 -5 1 -10 -4 -10
-6 0 -11 5 -11 10 0 6 2 10 4 10 3 0 8 -4 11 -10z m-35 -40 c0 -5 -7 -10 -15
-10 -8 0 -15 5 -15 10 0 6 7 10 15 10 8 0 15 -4 15 -10z m37 -16 c-9 -9 -28 6
-21 18 4 6 10 6 17 -1 6 -6 8 -13 4 -17z m1133 -4 c-43 -64 -56 -87 -79 -137
-28 -61 -41 -67 -42 -20 0 17 -4 41 -9 52 -8 18 -9 17 -9 -7 -1 -26 -17 -46
-28 -34 -8 8 47 99 71 116 17 12 100 55 114 59 1 1 -7 -12 -18 -29z m-1133
-36 c-9 -9 -28 6 -21 18 4 6 10 6 17 -1 6 -6 8 -13 4 -17z m28 -73 c3 -5 1
-12 -5 -16 -5 -3 -10 1 -10 9 0 18 6 21 15 7z m574 -89 c76 -113 117 -196 125
-253 l7 -47 -58 -20 c-32 -11 -93 -32 -136 -47 -73 -25 -77 -28 -63 -44 19
-21 21 -48 4 -65 -19 -18 -78 -46 -99 -46 -10 0 -21 -5 -24 -10 -8 -12 -105
-11 -105 2 0 4 8 8 18 8 10 0 27 7 38 15 17 12 17 14 2 15 -9 0 -28 -4 -42
-10 -29 -11 -42 1 -28 26 7 13 -7 39 -66 116 l-75 99 31 32 c32 33 45 60 18
38 -11 -9 -20 -10 -35 -1 -29 15 -26 27 15 66 54 49 99 67 146 60 38 -6 43 -4
131 72 92 78 115 93 130 85 4 -2 34 -44 66 -91z m346 -61 c-16 -15 -17 -14
-12 4 3 11 9 36 14 55 l8 35 3 -39 c2 -27 -2 -44 -13 -55z m73 -69 c2 -7 -5
-12 -15 -11 -12 0 -14 2 -4 6 11 5 11 7 0 15 -12 8 -12 9 0 6 8 -3 17 -10 19
-16z m1807 -174 c10 -29 29 -70 43 -91 24 -36 24 -38 7 -57 -11 -12 -19 -37
-19 -58 -1 -20 -5 -43 -10 -50 -4 -7 -10 -41 -13 -75 -3 -34 -10 -68 -16 -74
-16 -21 -30 -15 -23 11 3 13 -1 83 -9 154 -11 97 -13 147 -5 198 5 38 10 75
10 82 0 30 20 8 35 -40z m-840 -50 c6 -60 4 -68 -13 -77 -18 -9 -20 -6 -26 36
-6 47 11 130 25 116 4 -4 10 -38 14 -75z m-1875 -103 c0 -8 -4 -15 -9 -15 -13
0 -22 16 -14 24 11 11 23 6 23 -9z m263 -96 c-5 -19 -3 -20 18 -14 23 7 24 7
5 -11 -13 -14 -20 -16 -23 -6 -3 6 -14 12 -25 12 -21 0 -20 1 2 20 29 25 29
25 23 -1z m-73 -19 c0 -5 -2 -10 -4 -10 -3 0 -8 5 -11 10 -3 6 -1 10 4 10 6 0
11 -4 11 -10z m198 -71 l23 -28 67 24 c37 13 85 31 107 40 l39 17 -26 -34
c-30 -39 -183 -178 -197 -178 -9 0 -141 173 -141 185 0 3 8 5 18 5 9 1 28 7
42 15 22 13 26 12 35 -2 6 -9 20 -28 33 -44z m1896 -98 c3 -5 -3 -11 -13 -14
-14 -3 -18 -1 -14 9 6 16 19 18 27 5z m-487 -77 c-3 -3 -12 -4 -19 -1 -8 3 -5
6 6 6 11 1 17 -2 13 -5z m395 -44 c3 -16 1 -30 -4 -30 -4 0 -8 14 -8 30 0 17
2 30 4 30 2 0 6 -13 8 -30z m-352 -69 c0 -6 -4 -13 -10 -16 -5 -3 -10 1 -10 9
0 9 5 16 10 16 6 0 10 -4 10 -9z m-113 -53 c-3 -7 -5 -2 -5 12 0 14 2 19 5 13
2 -7 2 -19 0 -25z m168 22 c-3 -5 -11 -10 -16 -10 -6 0 -7 5 -4 10 3 6 11 10
16 10 6 0 7 -4 4 -10z m-73 -22 c31 -9 44 -9 60 1 26 16 31 10 17 -22 -11 -25
-15 -26 -95 -26 -73 0 -82 2 -77 16 4 11 8 13 11 5 2 -7 8 -12 13 -12 6 0 6 8
-1 19 -7 14 -6 21 3 24 19 8 27 8 69 -5z m47 -529 c-17 -11 -68 -10 -94 1 -23
10 -24 10 39 15 27 3 52 7 55 10 3 4 7 1 10 -6 2 -6 -3 -15 -10 -20z m-129
-229 c6 -102 15 -219 20 -260 13 -99 11 -176 -5 -225 -13 -39 -13 -38 -13 50
0 50 -5 106 -11 125 -6 19 -11 54 -11 78 0 24 -4 41 -9 38 -10 -7 -13 412 -3
429 12 19 22 -56 32 -235z m160 113 c13 -78 11 -95 -6 -55 -8 17 -19 32 -24
32 -6 0 -10 28 -10 62 0 59 1 61 16 40 8 -12 19 -48 24 -79z m10 -143 c17 0
40 -57 40 -98 0 -21 -46 -40 -61 -25 -4 4 -11 40 -15 78 -5 58 -4 68 7 58 7
-7 20 -13 29 -13z m-1578 -282 c1 -134 1 -277 -1 -318 -2 -73 -26 -186 -41
-195 -4 -3 -19 12 -34 33 -19 29 -26 50 -26 88 0 59 23 206 51 330 16 70 20
116 17 198 -3 96 -1 106 15 106 16 0 17 -19 19 -242z m1621 13 c-1 -22 2 -41
8 -41 12 0 12 -47 -1 -55 -6 -4 -10 5 -10 19 0 21 -5 26 -25 26 -14 0 -26 -6
-26 -12 -2 -16 -16 40 -18 67 -1 21 31 43 59 39 11 -1 14 -12 13 -43z m-1876
-13 c-3 -8 -6 -5 -6 6 -1 11 2 17 5 13 3 -3 4 -12 1 -19z m16 -145 c2 -35 0
-63 -5 -63 -4 0 -7 35 -7 78 1 85 6 80 12 -15z m1877 -280 c0 -105 0 -106 -20
-88 -19 17 -29 52 -12 41 4 -2 9 4 9 15 1 15 -5 19 -28 19 -16 0 -29 -5 -29
-12 0 -9 -4 -8 -10 2 -8 13 -10 13 -10 -2 0 -9 5 -19 10 -21 6 -3 5 -4 -2 -3
-19 4 -22 72 -4 98 13 18 16 19 16 6 0 -11 7 -16 20 -15 15 1 20 8 20 31 0 46
18 18 23 -34 3 -42 4 -41 5 13 3 99 12 62 12 -50z m-753 33 c14 -14 14 -166 0
-221 -19 -75 -36 -119 -42 -113 -10 10 -19 95 -22 225 l-4 132 32 -9 c17 -5
34 -11 36 -14z m-1120 -48 c-3 -8 -6 -5 -6 6 -1 11 2 17 5 13 3 -3 4 -12 1
-19z m23 -87 c3 -2 -3 -1 -12 2 -9 3 -19 1 -22 -6 -2 -7 -5 -1 -5 12 -1 23 5
22 39 -8z m1788 -6 c1 -17 -2 -36 -7 -44 -15 -23 -31 -2 -31 40 0 33 3 40 18
37 11 -2 18 -14 20 -33z m-1823 -63 c-3 -3 -5 0 -5 7 0 7 -4 10 -9 7 -5 -4 -7
4 -3 16 l5 22 9 -24 c5 -12 6 -25 3 -28z m1883 -16 c2 -24 -1 -36 -7 -32 -5 4
-12 2 -15 -3 -9 -14 -58 -20 -101 -11 l-40 8 40 2 c22 2 45 3 52 3 6 0 19 17
30 38 22 47 37 45 41 -5z m-3 -66 c-3 -5 -12 -10 -18 -10 -7 0 -6 4 3 10 19
12 23 12 15 0z m-1895 -66 c-8 -8 -23 -20 -34 -25 -13 -7 -9 -1 9 15 34 29 43
33 25 10z m311 -27 c-10 -9 -11 -8 -5 6 3 10 9 15 12 12 3 -3 0 -11 -7 -18z
m2389 -252 c0 -25 -14 -31 -38 -16 -11 7 -10 9 3 15 9 3 13 10 10 16 -3 5 1
10 9 10 10 0 16 -9 16 -25z"/>
<path d="M5826 3553 c15 -33 24 -41 24 -24 0 5 -9 19 -20 32 l-20 24 16 -32z"/>
<path d="M5716 3536 c3 -9 11 -16 16 -16 13 0 5 23 -10 28 -7 2 -10 -2 -6 -12z"/>
<path d="M5800 3522 c0 -5 6 -17 14 -28 14 -18 15 -18 13 3 -1 20 -27 43 -27
25z"/>
<path d="M5830 3331 c12 -23 29 -35 37 -27 7 7 -26 46 -39 46 -5 0 -4 -9 2
-19z"/>
<path d="M7531 2064 c0 -11 3 -14 6 -6 3 7 2 16 -1 19 -3 4 -6 -2 -5 -13z"/>
<path d="M3040 4260 c0 -5 4 -10 9 -10 6 0 13 5 16 10 3 6 -1 10 -9 10 -9 0
-16 -4 -16 -10z"/>
<path d="M4417 4240 c-17 -18 -23 -30 -15 -30 8 0 22 14 31 30 22 37 20 37
-16 0z"/>
<path d="M5576 4253 c-6 -14 -5 -15 5 -6 7 7 10 15 7 18 -3 3 -9 -2 -12 -12z"/>
<path d="M7790 4261 c0 -16 25 -19 38 -5 11 12 8 14 -13 14 -14 0 -25 -4 -25
-9z"/>
<path d="M6123 4242 c-9 -21 1 -22 31 -3 l29 19 -28 -1 c-15 -1 -30 -8 -32
-15z"/>
<path d="M955 4230 c-4 -6 5 -10 19 -10 14 0 26 5 26 10 0 6 -9 10 -19 10 -11
0 -23 -4 -26 -10z"/>
<path d="M7226 4188 c-37 -42 -46 -64 -23 -55 47 20 47 20 47 -6 0 -14 -9 -46
-20 -72 -11 -26 -23 -64 -26 -85 -5 -32 -3 -40 14 -49 30 -16 34 -14 22 12
-10 22 -10 22 5 1 8 -11 31 -38 50 -60 50 -56 46 -19 -6 57 -22 33 -39 62 -37
65 3 2 20 -18 39 -46 34 -50 49 -61 49 -37 0 11 -8 27 -62 115 -28 45 -16 40
17 -8 15 -22 32 -40 36 -40 17 0 8 26 -26 79 -41 62 -40 82 0 24 25 -35 29
-27 10 19 -5 13 0 21 18 29 14 6 28 18 31 25 6 17 -44 66 -61 60 -7 -3 -15 -1
-18 4 -11 17 -23 11 -59 -32z m94 2 c-8 -5 -19 -10 -25 -10 -5 0 -3 5 5 10 8
5 20 10 25 10 6 0 3 -5 -5 -10z m-5 -40 c-3 -5 -12 -10 -18 -10 -7 0 -6 4 3
10 19 12 23 12 15 0z"/>
<path d="M1120 4210 c20 -13 53 -13 45 0 -3 6 -18 10 -33 10 -21 0 -24 -2 -12
-10z"/>
<path d="M1935 4201 c-3 -5 -1 -12 5 -16 5 -3 10 1 10 9 0 18 -6 21 -15 7z"/>
<path d="M4331 4174 l-24 -21 23 -31 c15 -20 21 -38 17 -54 -4 -15 3 -38 20
-68 15 -25 27 -56 28 -70 4 -94 8 -101 15 -25 5 60 3 83 -7 93 -7 7 -13 16
-13 20 0 3 5 1 12 -6 32 -32 37 -3 6 41 l-22 32 27 -24 c31 -28 34 -23 12 19
-9 17 -11 30 -5 30 5 0 10 8 10 17 0 15 2 14 15 -3 19 -25 20 -2 1 41 -11 26
-18 30 -52 30 -25 0 -47 -7 -63 -21z m69 -18 c0 -2 -7 -7 -16 -10 -8 -3 -12
-2 -9 4 6 10 25 14 25 6z"/>
<path d="M7756 4184 c-9 -23 -8 -24 12 -24 10 0 25 -9 35 -20 15 -17 37 -27
37 -16 0 6 -66 76 -72 76 -3 0 -9 -7 -12 -16z"/>
<path d="M1628 4132 c-15 -31 -37 -72 -48 -90 l-20 -33 -55 31 c-47 27 -55 29
-55 14 0 -22 -123 -209 -128 -195 -2 6 3 31 11 56 16 46 13 54 -25 68 -10 4
-18 15 -18 25 0 15 -6 17 -36 14 -28 -3 -35 -1 -29 8 6 9 4 11 -6 5 -51 -30
-69 -48 -69 -72 0 -20 -3 -23 -13 -14 -11 9 -16 0 -27 -44 -10 -43 -17 -54
-29 -51 -22 7 -65 -30 -55 -46 36 -59 92 -124 104 -120 12 3 12 1 2 -5 -18
-13 16 -103 39 -103 28 0 43 -29 45 -92 1 -33 5 -62 8 -66 12 -11 5 -23 -18
-33 -18 -9 -26 -22 -31 -58 -4 -25 -15 -68 -25 -94 -24 -63 -155 -208 -214
-237 -33 -15 -200 -50 -244 -50 -2 0 1 -7 8 -16 11 -13 9 -19 -14 -42 -21 -21
-28 -24 -35 -14 -7 11 -10 10 -15 -3 -11 -29 -7 -43 15 -50 20 -7 20 -7 2 -27
-16 -18 -18 -39 -16 -217 1 -108 6 -238 11 -290 5 -53 6 -108 1 -125 -17 -64
-50 -406 -70 -738 -12 -211 -7 -264 42 -390 11 -29 16 -59 13 -77 -4 -16 -1
-31 5 -35 7 -4 9 -22 5 -44 -3 -20 -1 -58 4 -85 5 -27 6 -50 1 -53 -5 -3 -9
-20 -9 -38 0 -49 29 -73 97 -81 32 -4 94 -16 138 -28 60 -16 112 -21 205 -21
l125 -1 36 34 37 34 -20 39 c-24 45 -50 66 -94 74 -24 4 -32 11 -31 25 2 23
13 25 25 3 16 -28 83 -43 200 -44 90 0 112 3 112 14 0 8 14 19 30 25 20 7 30
17 30 30 0 12 -4 21 -9 21 -5 0 -11 13 -14 30 -5 21 -14 31 -33 36 -25 6 -26
9 -19 52 4 26 16 70 27 100 12 32 17 63 13 79 -7 28 -34 73 -44 73 -3 0 -14
-22 -24 -50 -10 -27 -36 -70 -57 -95 -31 -36 -40 -55 -40 -83 0 -43 -14 -33
-27 18 -5 19 -19 40 -30 45 -16 8 -19 15 -12 27 14 25 4 125 -19 203 -11 39
-22 81 -24 95 -2 19 -10 26 -31 28 -27 3 -28 6 -23 35 3 18 2 58 -3 89 -9 51
-7 63 18 122 15 36 30 69 33 72 3 3 33 -2 67 -11 50 -13 65 -13 92 -2 27 11
47 9 145 -12 109 -24 114 -26 114 -51 0 -14 3 -42 6 -62 6 -37 8 -38 48 -39
76 -1 121 -13 118 -32 -2 -11 4 -17 17 -17 22 0 35 -28 25 -54 -3 -9 1 -28 11
-42 9 -14 14 -28 11 -31 -3 -3 2 -12 12 -19 9 -7 15 -14 12 -16 -3 -2 -18 -14
-35 -28 -16 -14 -23 -17 -16 -7 19 24 6 34 -56 39 -51 5 -51 5 -42 -19 14 -37
11 -61 -11 -83 -11 -11 -17 -20 -13 -20 4 0 -2 -6 -12 -14 -16 -12 -17 -18 -7
-57 17 -61 12 -75 -36 -110 -66 -48 -82 -151 -26 -165 41 -11 178 1 214 18 19
9 53 22 75 28 67 21 78 36 72 100 -5 43 -2 59 11 73 12 14 18 40 19 96 2 42
10 105 18 141 8 36 15 92 15 125 2 98 16 35 26 -110 6 -90 10 -113 12 -73 3
61 25 96 37 58 7 -21 53 -50 81 -50 15 0 15 2 1 23 -16 25 -36 89 -66 212 -16
65 -18 93 -11 144 9 63 2 171 -9 153 -8 -13 -43 -18 -58 -9 -7 5 -13 17 -13
28 0 19 1 19 31 4 30 -16 32 -15 70 11 21 14 50 26 64 26 32 1 32 12 -1 35
-67 47 -84 66 -84 91 0 16 -15 46 -35 71 -19 24 -35 48 -35 54 0 6 -6 18 -14
26 -7 9 -18 30 -25 46 -10 28 -11 27 -6 -15 3 -25 9 -117 15 -205 5 -88 12
-182 15 -210 3 -30 2 -44 -3 -35 -5 8 -14 60 -21 115 -6 55 -18 120 -27 144
-19 56 -31 270 -16 297 10 17 11 17 17 -9 4 -15 10 -25 14 -22 4 2 15 -9 24
-24 9 -16 29 -32 43 -35 34 -9 42 -1 15 14 -13 7 -21 21 -21 37 0 15 -10 37
-22 50 -18 19 -19 23 -5 23 14 0 15 4 5 24 -14 32 -4 58 18 49 13 -5 15 -3 9
8 -5 8 -9 22 -10 33 0 20 -12 28 -59 42 -16 5 -31 15 -34 23 -3 8 0 11 5 8 5
-3 47 -8 93 -12 l85 -6 -27 21 c-16 12 -28 28 -28 35 0 18 -23 25 -85 25 -72
0 -99 12 -115 52 -8 18 -22 39 -32 46 -10 7 -18 20 -18 29 0 8 -6 13 -13 10
-10 -4 -16 21 -25 108 -7 62 -13 136 -13 166 l-2 54 -7 -65 c-11 -93 3 -296
23 -344 10 -22 15 -41 13 -43 -2 -2 -32 5 -66 17 -36 12 -80 20 -104 18 -40
-4 -41 -4 -11 -12 121 -33 195 -58 190 -66 -3 -4 1 -15 9 -23 8 -8 13 -17 10
-20 -3 -3 2 -17 11 -31 9 -14 14 -30 10 -36 -4 -6 -3 -16 2 -23 9 -13 9 -115
-1 -224 -5 -46 -3 -73 3 -78 17 -10 13 -52 -9 -95 -14 -28 -16 -40 -7 -43 9
-3 8 -13 -5 -36 -13 -23 -15 -38 -8 -50 6 -12 5 -22 -2 -29 -8 -8 -8 -15 1
-26 7 -8 9 -25 6 -39 -4 -13 0 -46 7 -73 23 -80 17 -90 -54 -98 -34 -3 -70 -6
-82 -5 -21 0 -21 1 -1 8 19 8 19 8 -3 15 -18 6 -22 14 -20 42 1 19 5 34 9 34
16 0 24 44 31 180 4 80 11 203 15 273 5 71 5 137 1 147 -4 10 -22 25 -40 34
-35 16 -145 41 -165 38 -6 -2 -14 2 -18 8 -4 6 6 10 24 10 21 0 31 5 31 16 0
8 -4 12 -10 9 -6 -4 -10 8 -10 28 0 22 6 37 16 41 8 3 12 11 8 17 -3 6 -2 14
4 18 8 5 8 26 2 71 -5 36 -10 88 -10 117 0 28 -5 64 -10 79 -8 19 -8 30 0 38
7 7 10 5 10 -5 0 -8 8 -19 18 -26 11 -6 36 -36 56 -67 20 -31 39 -56 42 -56
11 0 -9 67 -35 115 -22 43 -25 55 -17 88 7 26 6 65 -2 119 -11 77 -11 82 13
123 13 24 21 46 18 49 -4 3 -1 6 5 6 7 0 12 7 12 15 0 13 15 20 66 30 10 2 21
4 24 5 3 1 10 1 15 0 6 -1 30 -4 55 -5 162 -12 199 -16 230 -25 40 -12 120
-13 136 -2 15 10 25 42 14 42 -5 0 -19 18 -30 40 -11 22 -25 40 -31 40 -6 0
-1 -13 11 -30 12 -16 17 -30 11 -30 -6 0 -11 4 -11 10 0 25 -102 60 -115 39
-3 -4 5 -15 17 -23 l22 -16 -29 1 c-17 0 -24 3 -17 6 18 7 -4 33 -28 33 -10 0
-20 7 -24 15 -6 18 -43 20 -48 3 -2 -6 -15 -12 -29 -13 -14 -2 -23 -8 -21 -16
3 -11 0 -10 -12 1 -21 20 -90 15 -82 -6 8 -21 -12 -17 -23 5 -9 15 -7 20 12
25 12 3 36 6 52 6 20 0 26 3 17 9 -11 6 -10 10 5 16 10 5 24 7 31 6 6 -1 12 4
12 11 0 9 3 10 8 2 4 -6 22 -15 40 -19 31 -6 32 -5 32 24 0 40 22 41 61 4 34
-32 36 -40 12 -46 -10 -3 -6 -4 10 -4 15 1 27 6 27 13 0 6 -12 27 -27 48 -23
29 -33 36 -55 33 -18 -2 -28 1 -28 9 0 20 -18 26 -40 14 -11 -6 -20 -8 -20 -6
0 3 14 13 31 21 29 16 31 15 36 -4 6 -23 18 -27 28 -11 3 6 1 10 -4 10 -6 0
-11 7 -11 16 0 13 -7 15 -32 11 -18 -2 -40 -1 -50 4 -11 6 -18 4 -21 -5 -3 -8
-21 -17 -39 -21 -29 -7 -30 -9 -13 -16 11 -4 15 -8 8 -8 -7 -1 -10 -8 -6 -18
5 -15 3 -16 -8 -5 -7 6 -22 12 -32 12 -16 0 -17 -2 -7 -15 18 -21 10 -24 -24
-10 -16 7 -24 15 -19 18 7 4 6 19 -1 42 -8 27 -16 35 -34 35 -15 0 -26 7 -29
20 -10 39 -44 11 -39 -33 4 -31 -8 -36 -23 -9 -19 32 -12 -11 9 -53 19 -39 20
-40 14 -7 -7 38 -5 39 26 12 13 -11 30 -20 39 -20 12 -1 11 -3 -4 -12 -29 -16
-29 -16 -14 -35 12 -15 12 -16 -3 -10 -10 3 -18 2 -18 -3 0 -23 -22 -7 -38 28
-9 20 -20 39 -23 42 -4 3 -8 14 -11 25 -2 14 -10 19 -27 17 l-23 -4 18 34 c10
18 26 41 34 52 14 17 13 18 -10 15 -14 -2 -25 -11 -25 -19 0 -8 -4 -18 -10
-22 -5 -4 -10 -11 -11 -15 -1 -4 -7 -23 -13 -40 -14 -37 -36 -46 -26 -10 7 22
7 22 -9 2 l-16 -20 6 20 c5 19 5 19 -9 3 -18 -23 -27 -23 -27 1 0 27 -26 46
-34 25 -5 -13 -9 -14 -21 -4 -19 16 -19 34 0 26 18 -7 20 5 3 22 -9 9 -8 12 4
12 9 0 23 -7 32 -15 8 -8 25 -15 38 -14 21 0 21 1 4 8 -14 5 -16 10 -8 15 17
10 -3 45 -34 56 -24 9 -33 43 -15 54 5 3 7 16 3 29 -5 19 -4 20 11 9 9 -8 21
-11 27 -7 5 3 10 2 10 -4 0 -5 -4 -13 -10 -16 -5 -3 -15 -16 -21 -28 -12 -21
-11 -21 8 -4 11 9 29 17 41 17 12 0 22 4 22 10 0 21 45 3 50 -21 5 -20 7 -21
13 -6 4 10 17 17 32 17 22 0 24 3 15 19 -5 11 -10 31 -10 45 0 14 -4 26 -10
26 -9 0 -15 -29 -11 -59 2 -7 -2 -10 -8 -6 -6 3 -11 1 -11 -5 0 -6 -5 -8 -11
-5 -6 4 -8 10 -5 13 3 3 1 12 -6 19 -9 11 -9 17 3 25 11 8 11 9 -3 5 -11 -4
-18 2 -22 19 -9 36 -1 43 44 40 45 -4 44 -4 28 41 -12 33 -38 46 -38 18 0 -23
-15 -18 -30 9 -12 24 -8 57 7 55 41 -7 52 2 55 44 3 40 5 42 36 44 17 1 33 -3
33 -8 1 -5 2 -15 3 -21 1 -7 -7 -22 -16 -32 -10 -11 -18 -23 -18 -28 0 -16 32
-7 49 14 11 12 23 18 30 14 9 -6 9 -11 0 -22 -6 -7 -16 -11 -22 -7 -5 3 -7 1
-3 -5 3 -5 0 -13 -6 -15 -9 -4 -7 -6 3 -6 9 -1 22 5 28 13 7 8 25 12 44 11 17
-2 43 -4 57 -5 23 -1 23 -2 5 -10 -19 -8 -19 -9 3 -9 24 -1 31 -21 7 -21 -8 0
-15 -9 -15 -20 0 -14 -7 -20 -22 -21 -14 -1 -4 -6 22 -13 44 -12 45 -12 53 13
4 14 5 38 3 52 -3 17 1 31 15 42 27 24 24 36 -15 52 l-33 14 2 76 c2 41 -1 75
-6 75 -12 0 -45 -34 -51 -51 -3 -10 -20 -1 -55 29 -28 23 -55 42 -60 42 -4 0
-17 16 -27 35 -11 19 -22 35 -25 34 -3 0 -18 -26 -33 -57z m225 -143 c6 -23 3
-24 -18 -3 -12 13 -19 13 -30 4 -8 -7 -20 -10 -27 -7 -9 4 -8 6 3 6 9 1 22 7
29 15 14 18 36 11 43 -15z m-228 -48 c6 -1 -6 -10 -25 -21 -35 -19 -57 -13
-47 12 4 12 33 15 72 9z m182 -47 c-3 -3 -12 -4 -19 -1 -8 3 -5 6 6 6 11 1 17
-2 13 -5z m-269 -58 c-1 -24 -7 -36 -20 -39 -14 -4 -18 0 -18 19 0 15 6 24 15
24 8 0 14 3 14 8 -2 12 1 22 6 22 2 0 4 -15 3 -34z m-438 -15 c0 -6 -5 -13
-11 -17 -8 -4 -8 -9 0 -17 6 -6 11 -20 11 -31 -1 -21 -1 -21 -12 -1 -6 11 -15
23 -21 26 -5 4 -3 15 4 28 14 22 29 28 29 12z m442 -90 c1 -17 6 -31 12 -32 6
0 0 -5 -13 -10 -18 -7 -27 -6 -33 3 -4 7 -8 9 -8 3 -1 -5 -5 0 -11 13 -6 17
-5 27 6 38 13 14 15 13 16 -3 0 -14 2 -13 10 6 12 30 20 23 21 -18z m-112
-186 c0 -8 -4 -15 -9 -15 -13 0 -22 16 -14 24 11 11 23 6 23 -9z m-10 -36 c0
-5 -5 -7 -12 -3 -8 5 -9 -4 -4 -35 5 -33 3 -43 -10 -48 -19 -7 -39 13 -47 48
-5 21 -2 27 21 36 36 14 52 15 52 2z m30 -83 c0 -3 -4 -8 -10 -11 -5 -3 -10
-1 -10 4 0 6 5 11 10 11 6 0 10 -2 10 -4z m150 -68 c0 -4 8 -8 18 -8 16 -1 16
-1 -1 -14 -10 -8 -15 -20 -11 -29 3 -8 1 -18 -5 -22 -6 -3 -11 -2 -11 3 0 8
-81 28 -100 25 -3 -1 -14 -3 -24 -5 -10 -1 -21 2 -23 8 -2 6 9 11 26 12 17 0
38 5 48 11 14 8 5 10 -36 8 -30 -1 -56 3 -58 8 -2 6 23 11 61 12 48 1 66 -2
70 -13 3 -8 10 -14 16 -14 6 0 3 11 -6 25 l-17 26 27 -12 c14 -7 26 -16 26
-21z m265 -28 c-3 -5 -13 -10 -21 -10 -8 0 -14 5 -14 10 0 6 9 10 21 10 11 0
17 -4 14 -10z m143 -71 c26 -1 37 -4 24 -6 -13 -3 -26 -11 -29 -19 -4 -11 -9
-12 -18 -4 -7 6 -17 10 -21 9 -5 -1 -25 0 -44 1 l-35 2 33 10 c17 6 32 16 33
22 0 7 3 6 6 -1 3 -8 24 -14 51 -14z m-348 -113 c0 -3 -4 -8 -10 -11 -5 -3
-10 -1 -10 4 0 6 5 11 10 11 6 0 10 -2 10 -4z m-10 -38 c0 -6 -7 -7 -16 -4 -9
3 -18 6 -20 6 -3 0 -3 4 1 10 7 11 35 2 35 -12z m-540 -189 c41 -6 104 -15
140 -19 60 -9 66 -8 84 13 l19 22 -5 -22 c-6 -21 -5 -21 18 -7 21 15 26 14 53
-5 27 -20 29 -24 19 -51 -5 -17 -30 -52 -54 -79 -38 -42 -44 -56 -50 -107 -10
-89 -20 -95 -28 -15 -8 74 -20 97 -30 56 -4 -14 -18 -32 -32 -41 -24 -16 -25
-19 -18 -100 l7 -84 -109 0 c-104 0 -309 22 -321 33 -5 5 34 387 43 415 4 15
116 11 264 -9z m469 -284 l0 -20 -9 20 c-5 11 -9 29 -9 40 l0 20 9 -20 c5 -11
9 -29 9 -40z m-2 -77 c-2 -13 -4 -5 -4 17 -1 22 1 32 4 23 2 -10 2 -28 0 -40z
m-115 -107 c31 -12 56 -57 40 -73 -9 -9 -12 -8 -12 5 0 25 -46 23 -53 -3 -3
-11 -12 -20 -19 -20 -11 0 -14 13 -14 50 1 54 9 60 58 41z m-134 -19 c2 -7 -3
-12 -12 -12 -9 0 -16 7 -16 16 0 17 22 14 28 -4z m42 -42 c-6 -11 -12 -20 -14
-20 -2 0 -2 9 1 20 3 11 9 20 15 20 5 0 4 -9 -2 -20z m488 -1195 c2 -2 4 -23
5 -48 l2 -45 -73 2 c-69 1 -72 2 -42 14 30 12 30 13 14 37 -9 14 -21 25 -28
26 -6 0 5 7 24 14 29 11 85 11 98 0z m-439 -252 c1 -29 -2 -33 -26 -33 -52 0
-56 13 -22 60 29 40 33 42 40 25 4 -11 8 -35 8 -52z m278 15 c-3 -7 -5 -2 -5
12 0 14 2 19 5 13 2 -7 2 -19 0 -25z"/>
<path d="M1156 2871 c-10 -11 -16 -26 -14 -33 3 -8 12 0 22 20 19 37 17 40 -8
13z"/>
<path d="M1310 2869 c0 -5 5 -7 10 -4 6 3 10 8 10 11 0 2 -4 4 -10 4 -5 0 -10
-5 -10 -11z"/>
<path d="M1216 2825 c-3 -9 0 -15 9 -15 16 0 20 16 6 24 -5 3 -11 -1 -15 -9z"/>
<path d="M1272 2823 c-7 -12 -12 -30 -12 -40 0 -15 2 -14 16 5 8 12 14 30 12
40 -3 15 -5 14 -16 -5z"/>
<path d="M6005 4180 c-3 -5 -23 -10 -43 -10 -25 0 -33 -3 -23 -9 8 -5 27 -5
44 0 33 9 60 29 40 29 -7 0 -15 -4 -18 -10z"/>
<path d="M6828 4168 c9 -9 15 -9 24 0 9 9 7 12 -12 12 -19 0 -21 -3 -12 -12z"/>
<path d="M5011 4151 c-8 -6 -9 -11 -3 -15 6 -3 14 -1 17 5 9 14 2 20 -14 10z"/>
<path d="M852 4096 c2 -41 0 -56 -10 -56 -10 0 -42 -55 -42 -74 0 -2 14 -7 30
-11 17 -4 57 -27 89 -51 56 -42 81 -53 81 -36 0 5 9 18 20 30 l21 22 -21 0
c-22 0 -100 70 -100 90 0 6 -5 8 -10 5 -8 -5 -7 -11 1 -21 9 -11 9 -14 0 -14
-7 0 -9 -5 -5 -12 4 -7 3 -10 -1 -5 -10 9 -12 18 -22 111 -5 44 -13 71 -21 74
-11 3 -13 -8 -10 -52z"/>
<path d="M1400 4115 c-6 -16 -9 -36 -7 -44 2 -9 9 2 15 23 13 47 7 62 -8 21z"/>
<path d="M1926 4096 c3 -8 13 -17 21 -20 25 -10 23 -3 -3 17 -18 13 -22 14
-18 3z"/>
<path d="M970 4078 c0 -8 9 -23 20 -33 16 -15 20 -15 20 -3 0 8 -9 23 -20 33
-16 15 -20 15 -20 3z"/>
<path d="M1090 4050 c-6 -11 -7 -20 -3 -20 5 0 14 9 21 20 7 11 8 20 2 20 -5
0 -14 -9 -20 -20z"/>
<path d="M2018 4063 c7 -3 16 -2 19 1 4 3 -2 6 -13 5 -11 0 -14 -3 -6 -6z"/>
<path d="M2085 4056 c-16 -11 -17 -17 -7 -29 8 -9 9 -18 3 -21 -5 -4 -13 -1
-16 5 -9 14 -57 2 -72 -18 -18 -24 -16 -30 12 -35 16 -3 25 -1 25 7 0 11 23
13 55 4 16 -4 45 12 39 22 -3 5 1 9 9 9 24 0 27 26 6 49 -23 25 -29 26 -54 7z
m25 -66 c0 -5 -2 -10 -4 -10 -3 0 -8 5 -11 10 -3 6 -1 10 4 10 6 0 11 -4 11
-10z"/>
<path d="M1245 4050 c-3 -6 1 -7 9 -4 18 7 21 14 7 14 -6 0 -13 -4 -16 -10z"/>
<path d="M7057 4017 c6 -40 -19 -94 -83 -180 -43 -58 -62 -112 -50 -144 6 -14
9 -13 20 8 7 14 16 38 20 53 4 15 30 61 59 102 l52 76 6 -84 c4 -46 3 -84 -2
-86 -5 -2 -9 -13 -9 -24 0 -14 6 -19 23 -16 22 3 22 4 19 143 -4 139 -8 157
-43 176 -16 8 -17 5 -12 -24z"/>
<path d="M2056 3961 c-4 -7 -5 -15 -2 -18 9 -9 19 4 14 18 -4 11 -6 11 -12 0z"/>
<path d="M3074 3949 c-13 -14 -19 -36 -19 -68 -1 -25 -4 -58 -9 -72 -7 -24 -5
-27 33 -36 l40 -11 -16 24 c-8 13 -11 24 -5 24 6 0 27 -26 46 -57 26 -42 36
-52 36 -35 0 12 -13 44 -30 70 -34 56 -40 80 -10 42 l20 -25 -15 43 c-8 23
-12 42 -9 42 3 0 19 -10 36 -21 l30 -22 -27 44 c-53 85 -68 94 -101 58z m46 7
c0 -3 -4 -8 -10 -11 -5 -3 -10 -1 -10 4 0 6 5 11 10 11 6 0 10 -2 10 -4z m5
-46 c-3 -5 -12 -10 -18 -10 -7 0 -6 4 3 10 19 12 23 12 15 0z"/>
<path d="M2090 3939 c0 -5 5 -7 10 -4 6 3 10 8 10 11 0 2 -4 4 -10 4 -5 0 -10
-5 -10 -11z"/>
<path d="M1980 3929 c0 -5 5 -7 10 -4 6 3 10 8 10 11 0 2 -4 4 -10 4 -5 0 -10
-5 -10 -11z"/>
<path d="M7720 3925 c0 -8 4 -15 10 -15 5 0 7 7 4 15 -4 8 -8 15 -10 15 -2 0
-4 -7 -4 -15z"/>
<path d="M2012 3919 c-2 -20 -32 -34 -32 -16 -1 7 -10 1 -21 -12 -11 -13 -18
-26 -15 -28 2 -2 23 -4 46 -5 42 0 60 12 59 42 0 9 -6 5 -14 -10 l-13 -25 -5
35 c-2 19 -5 28 -5 19z"/>
<path d="M685 3873 c-38 -10 -125 -65 -154 -98 -28 -32 -52 -97 -66 -180 -3
-22 -24 -92 -45 -156 -22 -64 -44 -157 -51 -206 -10 -81 -9 -94 7 -128 15 -33
67 -70 84 -60 3 2 42 6 87 10 68 6 85 4 107 -11 15 -9 29 -14 32 -11 3 3 -5
11 -18 18 -22 12 -20 13 33 25 36 8 67 10 85 4 28 -8 28 -8 -11 -10 -37 -1
-38 -2 -15 -11 32 -13 76 -8 72 9 -1 7 5 15 13 18 8 4 15 10 15 15 0 13 52 69
75 81 19 11 19 10 3 -9 -21 -23 -23 -33 -5 -33 15 0 69 55 86 88 14 26 36 30
27 5 -4 -10 11 2 33 27 42 47 47 60 32 76 -9 9 -101 173 -101 180 0 2 7 4 15
4 42 0 26 40 -55 143 -34 43 -47 54 -57 45 -10 -8 -13 -5 -13 13 0 32 -53 95
-109 130 -43 28 -64 32 -106 22z m242 -275 c-3 -7 -5 -2 -5 12 0 14 2 19 5 13
2 -7 2 -19 0 -25z"/>
<path d="M1015 3860 c-27 -30 -12 -34 15 -5 13 14 19 25 13 25 -5 0 -18 -9
-28 -20z"/>
<path d="M2060 3870 c0 -22 31 -70 45 -70 8 0 12 6 9 14 -3 8 2 16 13 19 14 4
14 5 -4 6 -13 0 -23 6 -23 12 0 5 5 7 10 4 6 -4 19 -4 28 0 15 6 15 8 -3 15
-29 12 -75 12 -75 0z"/>
<path d="M6751 3864 c0 -11 3 -14 6 -6 3 7 2 16 -1 19 -3 4 -6 -2 -5 -13z"/>
<path d="M1625 3860 c-3 -5 1 -10 10 -10 9 0 13 5 10 10 -3 6 -8 10 -10 10 -2
0 -7 -4 -10 -10z"/>
<path d="M2270 3852 c0 -4 -17 -6 -37 -4 -31 3 -36 2 -25 -9 16 -17 16 -30 -1
-23 -7 2 -18 -9 -26 -28 -11 -30 -13 -31 -21 -13 -7 17 -9 16 -9 -9 -1 -21 2
-26 12 -18 16 13 67 13 67 0 0 -6 -9 -8 -20 -5 -11 3 -23 1 -26 -4 -3 -5 2 -9
11 -9 9 0 13 -5 10 -11 -4 -6 -13 -8 -20 -5 -15 6 -25 -14 -25 -52 0 -14 -11
-38 -26 -53 l-25 -26 25 -7 c21 -5 32 0 55 26 29 33 29 33 8 42 -14 5 -17 10
-9 13 6 3 12 12 12 22 0 21 38 64 50 56 4 -3 13 7 18 23 15 40 49 72 79 72 20
0 23 -3 14 -14 -9 -11 -7 -15 9 -19 11 -3 23 -1 26 5 3 5 16 7 29 4 15 -4 25
-1 29 9 7 20 -42 45 -69 35 -11 -4 -37 -10 -57 -14 -31 -6 -38 -4 -38 9 0 8
-4 15 -10 15 -5 0 -10 -4 -10 -8z"/>
<path d="M1748 3833 c7 -3 16 -2 19 1 4 3 -2 6 -13 5 -11 0 -14 -3 -6 -6z"/>
<path d="M1978 3833 c7 -3 16 -2 19 1 4 3 -2 6 -13 5 -11 0 -14 -3 -6 -6z"/>
<path d="M4670 3805 c0 -9 6 -12 15 -9 8 4 15 7 15 9 0 2 -7 5 -15 9 -9 3 -15
0 -15 -9z"/>
<path d="M1957 3795 c-8 -8 -18 -11 -22 -7 -5 4 -5 -1 -2 -11 4 -10 7 -24 8
-30 0 -7 4 -2 10 11 5 13 13 21 18 18 5 -3 11 3 14 14 6 24 -6 26 -26 5z"/>
<path d="M2012 3790 c0 -14 2 -19 5 -12 2 6 2 18 0 25 -3 6 -5 1 -5 -13z"/>
<path d="M5180 3799 c0 -5 5 -7 10 -4 6 3 10 8 10 11 0 2 -4 4 -10 4 -5 0 -10
-5 -10 -11z"/>
<path d="M1670 3779 c0 -5 5 -7 10 -4 6 3 10 8 10 11 0 2 -4 4 -10 4 -5 0 -10
-5 -10 -11z"/>
<path d="M2117 3783 c-4 -3 -7 -11 -7 -17 0 -6 5 -5 12 2 6 6 9 14 7 17 -3 3
-9 2 -12 -2z"/>
<path d="M2350 3770 c8 -5 22 -10 30 -10 13 0 13 1 0 10 -8 5 -22 10 -30 10
-13 0 -13 -1 0 -10z"/>
<path d="M5330 3755 c0 -8 5 -15 10 -15 6 0 10 7 10 15 0 8 -4 15 -10 15 -5 0
-10 -7 -10 -15z"/>
<path d="M920 3751 c0 -6 4 -13 10 -16 6 -3 7 1 4 9 -7 18 -14 21 -14 7z"/>
<path d="M2287 3747 c-11 -29 -9 -43 4 -30 6 6 9 19 7 29 -3 18 -4 18 -11 1z"/>
<path d="M2313 3727 c-9 -18 -9 -27 0 -36 16 -16 37 -14 37 4 0 17 21 20 36 5
8 -8 14 -7 23 3 15 19 -5 36 -51 43 -29 5 -36 2 -45 -19z"/>
<path d="M1635 3730 c3 -5 11 -10 16 -10 6 0 7 5 4 10 -3 6 -11 10 -16 10 -6
0 -7 -4 -4 -10z"/>
<path d="M5000 3718 c0 -19 2 -20 10 -8 13 19 13 30 0 30 -5 0 -10 -10 -10
-22z"/>
<path d="M1887 3707 c-4 -10 -7 -36 -7 -57 0 -21 -4 -41 -10 -45 -5 -3 -7 -12
-3 -21 3 -8 -2 -23 -12 -34 -27 -29 -8 -75 31 -75 23 0 29 4 27 20 -1 11 3 22
8 26 5 3 11 15 14 27 3 19 0 21 -23 17 -25 -5 -26 -5 -5 6 21 11 28 49 9 49
-22 0 10 19 39 23 l30 4 -32 2 c-36 1 -47 26 -15 34 9 2 5 4 -10 2 -21 -1 -28
4 -30 19 -3 19 -4 20 -11 3z"/>
<path d="M2420 3679 c0 -11 5 -17 10 -14 6 3 10 13 10 21 0 8 -4 14 -10 14 -5
0 -10 -9 -10 -21z"/>
<path d="M1690 3678 c0 -9 7 -21 15 -28 9 -7 23 -28 31 -46 21 -44 34 -43 34
4 0 27 -3 33 -10 22 -10 -16 -12 -14 -48 34 -14 18 -22 23 -22 14z"/>
<path d="M2055 3659 c-9 -17 -15 -33 -13 -35 3 -2 12 12 21 31 21 43 13 47 -8
4z"/>
<path d="M2223 3664 c15 -5 17 -12 12 -32 -5 -21 -4 -24 5 -16 17 17 8 48 -15
51 -17 2 -18 1 -2 -3z"/>
<path d="M2300 3660 c8 -5 22 -9 30 -9 10 0 8 3 -5 9 -27 12 -43 12 -25 0z"/>
<path d="M2277 3633 c-14 -26 -17 -67 -5 -74 20 -13 28 -11 22 6 -4 9 0 15 10
15 9 0 16 4 16 9 0 4 11 6 25 3 35 -6 31 13 -7 32 -34 17 -54 20 -61 9z"/>
<path d="M1525 3599 c-10 -15 3 -25 16 -12 7 7 7 13 1 17 -6 3 -14 1 -17 -5z"/>
<path d="M1940 3590 c0 -22 16 -26 40 -10 13 9 13 11 0 20 -24 16 -40 12 -40
-10z"/>
<path d="M2387 3587 c-11 -29 -9 -43 4 -30 6 6 9 19 7 29 -3 18 -4 18 -11 1z"/>
<path d="M1570 3572 c6 -13 14 -21 18 -18 3 4 -2 14 -12 24 -18 16 -18 16 -6
-6z"/>
<path d="M1805 3570 c3 -5 8 -10 11 -10 2 0 4 5 4 10 0 6 -5 10 -11 10 -5 0
-7 -4 -4 -10z"/>
<path d="M5112 3569 c2 -7 10 -15 17 -17 8 -3 12 1 9 9 -2 7 -10 15 -17 17 -8
3 -12 -1 -9 -9z"/>
<path d="M1697 3564 c-13 -14 18 -29 51 -26 33 4 34 6 17 18 -19 14 -57 19
-68 8z"/>
<path d="M5285 3550 c3 -5 10 -10 16 -10 5 0 9 5 9 10 0 6 -7 10 -16 10 -8 0
-12 -4 -9 -10z"/>
<path d="M2170 3539 c0 -5 5 -7 10 -4 6 3 10 1 10 -5 0 -6 5 -8 11 -4 8 4 7 9
-2 15 -19 12 -29 11 -29 -2z"/>
<path d="M2213 3520 c-8 -21 -18 -30 -33 -30 -19 0 -20 2 -10 15 10 12 10 15
-3 15 -19 0 -29 -24 -15 -38 6 -6 3 -15 -11 -24 -14 -10 -19 -21 -15 -32 7
-19 9 -19 35 -5 17 8 23 7 34 -7 11 -16 15 -16 29 -5 14 12 15 16 3 30 -26 30
-29 41 -10 34 10 -3 25 -11 33 -17 8 -6 6 -1 -4 12 -19 22 -19 22 0 23 25 2
26 2 45 -6 10 -4 19 0 22 9 6 16 -26 41 -65 51 -19 5 -25 1 -35 -25z"/>
<path d="M1575 3530 c-3 -5 -2 -10 4 -10 5 0 13 5 16 10 3 6 2 10 -4 10 -5 0
-13 -4 -16 -10z"/>
<path d="M1802 3494 c-2 -33 1 -45 10 -42 15 5 18 80 3 85 -5 1 -11 -18 -13
-43z"/>
<path d="M4687 3528 c-25 -14 -21 -47 8 -60 14 -6 25 -15 25 -20 0 -4 4 -8 10
-8 10 0 11 39 3 72 -5 21 -25 28 -46 16z m33 -28 c0 -5 -5 -12 -11 -16 -14 -8
-33 11 -25 25 7 11 36 4 36 -9z"/>
<path d="M7071 3496 c-7 -9 -8 -17 -2 -20 13 -9 43 4 38 17 -5 17 -23 19 -36
3z"/>
<path d="M2325 3463 l-17 -28 23 22 c12 12 20 25 17 28 -3 3 -13 -7 -23 -22z"/>
<path d="M2357 3449 c-29 -40 -30 -76 -2 -65 8 3 15 0 15 -6 0 -8 3 -8 9 -2
11 12 22 102 13 108 -4 2 -20 -14 -35 -35z"/>
<path d="M6907 3454 c-11 -11 3 -24 24 -24 12 0 19 5 17 13 -5 14 -31 21 -41
11z"/>
<path d="M2090 3421 c0 -6 12 -23 28 -39 15 -15 21 -21 15 -12 -7 9 -13 21
-13 27 0 6 -7 16 -15 23 -10 8 -15 9 -15 1z"/>
<path d="M2230 3375 c-7 -8 -8 -15 -2 -15 5 0 15 7 22 15 7 8 8 15 2 15 -5 0
-15 -7 -22 -15z"/>
<path d="M2311 3366 c7 -15 15 -23 17 -16 3 7 -3 19 -13 28 -15 16 -16 15 -4
-12z"/>
<path d="M2620 3367 c0 -25 25 -66 34 -56 7 6 -21 79 -29 79 -3 0 -5 -10 -5
-23z"/>
<path d="M2041 3354 c0 -11 3 -14 6 -6 3 7 2 16 -1 19 -3 4 -6 -2 -5 -13z"/>
<path d="M2251 3341 c-29 -25 -32 -31 -21 -50 9 -19 14 -20 27 -10 12 11 17
10 28 -4 10 -14 14 -15 23 -4 12 14 -1 81 -16 91 -5 3 -23 -8 -41 -23z"/>
<path d="M6771 3364 c0 -6 -10 -52 -21 -104 -11 -51 -18 -95 -15 -98 2 -2 11
-2 19 1 15 6 33 155 23 193 -2 10 -5 14 -6 8z"/>
<path d="M1700 3350 c0 -5 5 -10 10 -10 6 0 10 5 10 10 0 6 -4 10 -10 10 -5 0
-10 -4 -10 -10z"/>
<path d="M6595 3309 c-4 -6 -5 -13 -2 -16 7 -7 27 6 27 18 0 12 -17 12 -25 -2z"/>
<path d="M6635 3310 c-3 -5 -1 -10 4 -10 6 0 11 5 11 10 0 6 -2 10 -4 10 -3 0
-8 -4 -11 -10z"/>
<path d="M6636 3265 c-9 -26 -7 -32 5 -12 6 10 9 21 6 23 -2 3 -7 -2 -11 -11z"/>
<path d="M5182 3235 c11 -13 14 -30 11 -49 -4 -19 -2 -27 5 -23 18 12 24 -27
6 -40 -15 -11 -15 -13 8 -22 32 -12 78 -3 78 16 0 8 -28 43 -62 76 -34 34 -54
53 -46 42z"/>
<path d="M4110 3198 c0 -20 5 -40 10 -43 13 -8 13 45 0 65 -7 11 -10 6 -10
-22z"/>
<path d="M6636 3222 c-4 -7 -12 -10 -17 -7 -5 4 -9 -6 -9 -22 1 -27 1 -27 15
-9 14 19 15 18 15 -15 0 -30 4 -35 25 -37 18 -1 23 2 19 13 -4 8 -12 15 -20
15 -7 0 -11 6 -8 13 7 19 -11 63 -20 49z"/>
<path d="M4160 3195 c0 -14 4 -25 9 -25 4 0 6 11 3 25 -2 14 -6 25 -8 25 -2 0
-4 -11 -4 -25z"/>
<path d="M2728 3193 c7 -3 16 -2 19 1 4 3 -2 6 -13 5 -11 0 -14 -3 -6 -6z"/>
<path d="M4940 3167 c0 -8 28 -18 76 -26 41 -8 92 -22 112 -32 46 -24 49 -24
27 1 -17 19 -110 52 -182 64 -23 4 -33 2 -33 -7z"/>
<path d="M1022 3123 c-38 -40 -39 -42 -12 -28 27 14 68 62 59 68 -2 2 -23 -16
-47 -40z"/>
<path d="M6665 3080 c-18 -8 -18 -9 5 -9 14 0 32 4 40 9 12 8 12 10 -5 9 -11
0 -29 -4 -40 -9z"/>
<path d="M915 3025 c-27 -13 -44 -24 -37 -24 14 -1 92 37 92 44 0 6 4 8 -55
-20z"/>
<path d="M6650 3020 l-45 -7 42 -1 c23 -1 45 3 48 8 3 6 5 9 3 8 -2 0 -23 -4
-48 -8z"/>
<path d="M4637 2823 c6 -145 8 -162 18 -151 9 9 32 267 23 262 -4 -3 -8 1 -8
9 0 12 -20 27 -35 27 -3 0 -2 -66 2 -147z"/>
<path d="M6558 2803 c7 -3 16 -2 19 1 4 3 -2 6 -13 5 -11 0 -14 -3 -6 -6z"/>
<path d="M3903 2790 c-24 -10 -31 -34 -13 -45 8 -5 60 39 60 51 0 7 -24 3 -47
-6z"/>
<path d="M4080 2688 c1 -14 27 -74 33 -76 4 -1 7 1 6 6 -2 15 -28 72 -33 72
-4 0 -6 -1 -6 -2z"/>
<path d="M6600 2661 c0 -6 5 -13 10 -16 6 -3 10 1 10 9 0 9 -4 16 -10 16 -5 0
-10 -4 -10 -9z"/>
<path d="M4031 2615 c-1 -24 15 -52 24 -43 4 3 0 19 -9 35 -13 23 -15 24 -15
8z"/>
<path d="M3980 2614 c0 -5 7 -19 15 -30 8 -10 15 -14 15 -8 0 5 -7 19 -15 30
-8 10 -15 14 -15 8z"/>
<path d="M6575 2590 c-3 -5 -1 -10 4 -10 6 0 11 5 11 10 0 6 -2 10 -4 10 -3 0
-8 -4 -11 -10z"/>
<path d="M7200 2470 c8 -5 31 -9 50 -9 29 0 31 2 15 9 -11 5 -33 9 -50 9 -23
1 -26 -2 -15 -9z"/>
<path d="M2148 2433 c6 -2 18 -2 25 0 6 3 1 5 -13 5 -14 0 -19 -2 -12 -5z"/>
<path d="M3675 2420 c3 -5 12 -7 20 -3 21 7 19 13 -6 13 -11 0 -18 -4 -14 -10z"/>
<path d="M485 2270 c-10 -16 6 -78 25 -95 16 -14 19 -14 39 2 l22 18 -28 37
c-31 40 -49 52 -58 38z"/>
<path d="M6630 2112 c0 -5 6 -16 13 -26 12 -16 13 -16 14 3 1 10 -5 22 -13 25
-8 3 -14 2 -14 -2z"/>
<path d="M4096 2012 c27 -23 34 -56 25 -114 -6 -35 -4 -48 5 -52 12 -5 35 55
60 157 l6 27 -58 0 c-57 -1 -58 -1 -38 -18z"/>
<path d="M4310 2026 c0 -2 9 -23 20 -47 14 -32 20 -66 20 -121 0 -72 13 -110
23 -71 4 17 5 17 6 0 0 -10 -6 -34 -14 -54 -12 -28 -15 -84 -15 -267 0 -237
10 -318 46 -387 18 -35 35 -127 24 -131 -4 -2 -9 -34 -11 -73 l-4 -70 80 -16
c44 -9 87 -18 95 -19 25 -5 89 11 101 26 16 20 71 44 89 40 8 -2 29 -9 45 -16
35 -15 194 -29 201 -18 3 5 14 8 24 8 17 0 19 10 20 108 1 59 3 134 4 167 1
33 3 141 5 240 l3 180 13 -80 c7 -44 22 -106 34 -137 18 -46 20 -61 11 -79 -9
-17 -8 -36 6 -90 15 -59 16 -77 6 -131 -11 -59 -11 -64 8 -80 11 -9 26 -42 34
-78 8 -35 19 -67 25 -73 6 -6 28 -2 65 12 55 23 107 24 179 6 21 -6 27 -4 27
8 0 8 -4 17 -9 19 -4 2 -5 27 -1 57 4 36 2 70 -6 99 -9 27 -13 91 -13 166 1
132 -10 346 -18 360 -3 4 -7 31 -10 60 -2 28 -8 75 -14 105 -5 30 -9 71 -9 91
l0 36 -77 17 c-93 21 -172 24 -199 9 -17 -10 -17 -11 -1 -12 9 0 17 -4 17 -10
0 -13 -57 -13 -62 -1 -2 5 -57 7 -129 4 l-126 -6 -17 -116 c-8 -64 -18 -164
-21 -222 -2 -59 -9 -146 -15 -195 -6 -49 -14 -115 -17 -147 -6 -60 -21 -79
-47 -58 -7 6 -16 8 -19 4 -4 -3 -7 2 -8 13 -4 84 -8 127 -18 179 -6 33 -11
165 -11 297 l0 237 -35 7 c-39 7 -40 11 -26 95 5 30 12 78 15 107 l5 52 -149
0 c-83 0 -150 -2 -150 -4z m1090 -830 c0 -3 -4 -8 -10 -11 -5 -3 -10 -1 -10 4
0 6 5 11 10 11 6 0 10 -2 10 -4z m-716 -181 c11 -8 28 -15 38 -15 16 0 18 -5
12 -37 -3 -21 -10 -42 -14 -46 -4 -5 -22 19 -39 52 -32 62 -31 72 3 46z m760
-194 c4 -5 -3 -7 -14 -4 -23 6 -26 13 -6 13 8 0 17 -4 20 -9z"/>
<path d="M6648 2005 c-3 -3 -2 -23 3 -43 5 -20 9 -62 10 -92 1 -45 2 -49 8
-25 18 75 3 184 -21 160z"/>
<path d="M2225 1799 c22 -4 49 -8 60 -8 l20 0 -20 9 c-11 5 -38 8 -60 8 l-40
0 40 -9z"/>
<path d="M4097 1788 c-2 -7 -1 -22 3 -32 6 -18 7 -18 13 5 4 13 7 27 7 32 0
12 -18 8 -23 -5z"/>
<path d="M4002 1760 c0 -14 2 -19 5 -12 2 6 2 18 0 25 -3 6 -5 1 -5 -13z"/>
<path d="M4020 1766 c0 -8 5 -18 10 -21 6 -3 10 3 10 14 0 12 -4 21 -10 21 -5
0 -10 -6 -10 -14z"/>
<path d="M6710 1632 c0 -4 10 -9 22 -9 18 -2 20 0 8 7 -18 12 -30 13 -30 2z"/>
<path d="M3941 1534 c0 -11 3 -14 6 -6 3 7 2 16 -1 19 -3 4 -6 -2 -5 -13z"/>
<path d="M1656 1481 c-3 -5 -3 -17 1 -28 11 -31 54 -95 60 -89 3 3 -2 12 -11
21 -9 9 -16 31 -16 49 0 34 -23 65 -34 47z"/>
<path d="M3985 1393 c-11 -3 -23 -10 -27 -17 -6 -8 -8 -7 -8 2 0 6 -4 12 -10
12 -5 0 -10 -7 -10 -16 0 -8 -4 -12 -10 -9 -6 4 -7 -1 -3 -12 12 -35 33 -57
53 -58 11 0 21 -4 21 -10 1 -5 6 -27 11 -49 6 -25 5 -43 -3 -52 -6 -7 -17 -33
-24 -58 -15 -51 -10 -59 37 -60 23 -1 28 3 28 22 0 15 -4 21 -12 16 -8 -5 -9
-2 -3 12 5 10 10 79 12 152 4 143 5 139 -52 125z m36 -160 c-12 -20 -14 -14
-5 12 4 9 9 14 11 11 3 -2 0 -13 -6 -23z"/>
<path d="M6166 1240 c-13 -64 -13 -85 1 -95 11 -8 12 -17 4 -38 -6 -16 -11
-44 -11 -63 0 -19 -10 -56 -22 -82 -12 -26 -21 -51 -19 -57 1 -5 3 -22 3 -38
1 -32 27 -47 83 -47 75 0 102 36 89 120 -6 37 -7 38 -45 33 -36 -5 -39 -4 -39
20 0 14 6 27 12 29 10 4 10 10 0 32 -6 15 -12 47 -12 71 0 39 -2 43 -21 38
-17 -5 -20 -2 -17 18 2 13 9 23 16 22 14 -3 16 9 3 23 -5 5 -11 18 -13 29 -3
14 -6 10 -12 -15z m31 -112 c-3 -8 -6 -5 -6 6 -1 11 2 17 5 13 3 -3 4 -12 1
-19z m-28 -234 c2 -2 -5 -4 -16 -4 -12 0 -23 7 -27 15 -5 13 -2 14 17 4 12 -6
24 -13 26 -15z"/>
<path d="M2157 1215 c-70 -24 -64 -37 14 -34 115 4 135 1 169 -20 52 -31 60
-25 17 13 -35 31 -101 57 -144 56 -10 -1 -35 -7 -56 -15z"/>
<path d="M4710 1119 c0 -5 5 -7 10 -4 6 3 10 8 10 11 0 2 -4 4 -10 4 -5 0 -10
-5 -10 -11z"/>
<path d="M2110 1051 c0 -58 11 -83 42 -93 9 -3 13 -26 14 -69 2 -173 1 -169
39 -185 42 -17 151 -18 185 -1 19 10 25 21 26 49 1 23 -4 39 -13 42 -8 3 -11
10 -8 16 3 5 1 10 -5 10 -6 0 -13 -6 -16 -14 -3 -9 -16 -13 -32 -11 -15 1 -33
3 -41 4 -11 1 -11 4 -1 16 9 11 15 13 20 5 5 -8 9 -6 14 5 4 10 12 15 22 11 9
-3 25 1 36 8 21 15 21 15 -14 50 -39 39 -61 43 -133 26 -36 -8 -38 -7 -21 6
26 19 116 18 142 -1 22 -16 139 -21 149 -5 3 5 -6 28 -21 50 -31 47 -57 49
-62 7 -3 -26 -5 -27 -20 -14 -27 24 -132 50 -199 50 -63 -1 -82 11 -42 25 18
7 17 10 -20 40 l-41 33 0 -60z"/>
<path d="M6283 1025 c0 -22 2 -30 4 -17 2 12 2 30 0 40 -3 9 -5 -1 -4 -23z"/>
<path d="M6688 863 c7 -3 16 -2 19 1 4 3 -2 6 -13 5 -11 0 -14 -3 -6 -6z"/>
<path d="M6755 830 c3 -5 11 -10 16 -10 6 0 7 5 4 10 -3 6 -11 10 -16 10 -6 0
-7 -4 -4 -10z"/>
<path d="M6540 727 c0 -19 93 -33 129 -19 21 7 16 10 -35 15 -32 3 -67 8 -76
12 -13 5 -18 2 -18 -8z"/>
<path d="M4540 662 c0 -15 27 -22 78 -21 l47 1 -51 8 c-29 4 -57 11 -63 14 -6
4 -11 3 -11 -2z"/>
<path d="M6935 657 c27 -16 150 -16 167 1 10 10 -8 12 -87 12 -82 -1 -96 -3
-80 -13z"/>
<path d="M5310 579 c0 -19 153 -27 179 -10 10 6 -19 11 -82 13 -53 2 -97 0
-97 -3z"/>
</g>
</svg>
