<svg xmlns="http://www.w3.org/2000/svg" xmlns:xlink="http://www.w3.org/1999/xlink" width="736.413" height="667.151" viewBox="0 0 736.413 667.151">
  <defs>
    <linearGradient id="linear-gradient" y1="0.5" x2="1" y2="0.5" gradientUnits="objectBoundingBox">
      <stop offset="0" stop-color="#184d47"/>
      <stop offset="0" stop-color="#d6efc7"/>
      <stop offset="1" stop-color="#184d47"/>
    </linearGradient>
  </defs>
  <g id="Group_13472" data-name="Group 13472" transform="translate(-229.036 -60.145)">
    <path id="Path_39748" data-name="Path 39748" d="M272.643,440.191c7.69,4.441,7.69,11.644,0,16.087s-20.157,4.441-27.848,0-7.689-11.646,0-16.087S264.953,435.748,272.643,440.191Z" transform="translate(5.984 225.572)" fill="#184d47"/>
    <path id="Path_39749" data-name="Path 39749" d="M610.321,422.4c8.664,5,8.664,13.118,0,18.124s-22.711,5-31.375,0-8.662-13.12,0-18.124S601.657,417.394,610.321,422.4Z" transform="translate(205.632 214.666)" fill="#184d47"/>
    <path id="Path_39750" data-name="Path 39750" d="M249.919,338.98c4.779,2.759,4.779,7.234,0,9.994s-12.523,2.761-17.3,0-4.777-7.235,0-9.994S245.142,336.221,249.919,338.98Z" transform="translate(0 165.724)" fill="#184d47"/>
    <path id="Path_39751" data-name="Path 39751" d="M420.93,425.838c3.313,1.914,3.313,5.017,0,6.931a13.249,13.249,0,0,1-12,0c-3.313-1.914-3.313-5.017,0-6.931A13.26,13.26,0,0,1,420.93,425.838Z" transform="translate(106.233 218.114)" fill="#184d47"/>
    <g id="Group_13440" data-name="Group 13440" transform="translate(355.531 360.054)">
      <g id="Group_13439" data-name="Group 13439" transform="translate(0 101.53)">
        <path id="Path_39752" data-name="Path 39752" d="M444.256,354.276,325.078,423.123a15.491,15.491,0,0,1-14.018,0h0c-3.872-2.237-3.872-5.863,0-8.1l119.177-68.845a15.485,15.485,0,0,1,14.02,0h0C448.127,348.413,448.127,352.039,444.256,354.276Z" transform="translate(-308.155 -291.315)" fill="#184d47"/>
        <path id="Path_39753" data-name="Path 39753" d="M480.794,321.01l-62.981,36.384a15.492,15.492,0,0,1-14.018,0h0c-3.872-2.237-3.872-5.863,0-8.1l62.981-36.382a15.481,15.481,0,0,1,14.018,0h0C484.666,315.147,484.666,318.773,480.794,321.01Z" transform="translate(-252.627 -311.235)" fill="#184d47"/>
      </g>
      <path id="Path_39754" data-name="Path 39754" d="M466.354,318.915,347.177,387.762a15.5,15.5,0,0,1-14.02,0h0c-3.871-2.237-3.871-5.863,0-8.1l119.178-68.845a15.481,15.481,0,0,1,14.018,0h0C470.226,313.052,470.226,316.678,466.354,318.915Z" transform="translate(-294.923 -210.959)" fill="#184d47"/>
      <path id="Path_39755" data-name="Path 39755" d="M561.673,263.851,442.495,332.7a15.482,15.482,0,0,1-14.018,0h0c-3.872-2.237-3.872-5.861,0-8.1l119.177-68.847a15.485,15.485,0,0,1,14.02,0h0C565.544,257.99,565.544,261.616,561.673,263.851Z" transform="translate(-237.848 -243.931)" fill="#184d47"/>
      <path id="Path_39756" data-name="Path 39756" d="M604.483,284.311,485.306,353.157a15.484,15.484,0,0,1-14.02,0h0c-3.871-2.235-3.871-5.861,0-8.1l119.178-68.847a15.492,15.492,0,0,1,14.018,0h0C608.355,278.449,608.355,282.075,604.483,284.311Z" transform="translate(-212.213 -231.68)" fill="#184d47"/>
      <path id="Path_39757" data-name="Path 39757" d="M432.241,365.573l-34.884,20.153a15.491,15.491,0,0,1-14.018,0h0c-3.871-2.237-3.871-5.863,0-8.1l34.884-20.151a15.482,15.482,0,0,1,14.018,0h0C436.114,359.712,436.114,363.338,432.241,365.573Z" transform="translate(-264.875 -183.021)" fill="#184d47"/>
      <path id="Path_39758" data-name="Path 39758" d="M619.315,257.506l-34.884,20.151a15.485,15.485,0,0,1-14.02,0h0c-3.871-2.237-3.871-5.863,0-8.1L605.3,249.407a15.5,15.5,0,0,1,14.02,0h0C623.186,251.644,623.186,255.27,619.315,257.506Z" transform="translate(-152.858 -247.73)" fill="#184d47"/>
      <path id="Path_39759" data-name="Path 39759" d="M481.183,287.754,362,356.6a15.492,15.492,0,0,1-14.018,0h0c-3.871-2.237-3.871-5.863,0-8.1l119.178-68.847a15.491,15.491,0,0,1,14.018,0h0C485.053,281.891,485.053,285.518,481.183,287.754Z" transform="translate(-286.044 -229.618)" fill="#184d47"/>
      <path id="Path_39760" data-name="Path 39760" d="M496.013,260.949,461.129,281.1a15.482,15.482,0,0,1-14.018,0h0c-3.871-2.237-3.871-5.861,0-8.1L482,252.851a15.482,15.482,0,0,1,14.018,0h0C499.884,255.086,499.884,258.712,496.013,260.949Z" transform="translate(-226.689 -245.669)" fill="#184d47"/>
    </g>
    <g id="Group_13442" data-name="Group 13442" transform="translate(547.35 497.786)">
      <g id="Group_13441" data-name="Group 13441" transform="translate(0 96.025)">
        <path id="Path_39761" data-name="Path 39761" d="M564.234,436.98,445.056,505.827a15.481,15.481,0,0,1-14.018,0h0c-3.872-2.237-3.872-5.861,0-8.1l119.177-68.847a15.485,15.485,0,0,1,14.02,0h0C568.1,431.119,568.1,434.745,564.234,436.98Z" transform="translate(-428.134 -374.019)" fill="#184d47"/>
        <path id="Path_39762" data-name="Path 39762" d="M600.772,403.714,537.791,440.1a15.482,15.482,0,0,1-14.018,0h0c-3.872-2.237-3.872-5.861,0-8.1l62.981-36.384a15.481,15.481,0,0,1,14.018,0h0C604.644,397.853,604.644,401.479,600.772,403.714Z" transform="translate(-372.605 -393.939)" fill="#184d47"/>
      </g>
      <path id="Path_39763" data-name="Path 39763" d="M586.332,401.619,467.155,470.466a15.484,15.484,0,0,1-14.02,0h0c-3.871-2.237-3.871-5.861,0-8.1l119.178-68.847a15.481,15.481,0,0,1,14.018,0h0C590.2,395.758,590.2,399.384,586.332,401.619Z" transform="translate(-414.901 -299.168)" fill="#184d47"/>
      <path id="Path_39764" data-name="Path 39764" d="M681.651,346.556,562.473,415.4a15.491,15.491,0,0,1-14.018,0h0c-3.872-2.237-3.872-5.863,0-8.1l119.177-68.847a15.485,15.485,0,0,1,14.02,0h0C685.522,340.693,685.522,344.319,681.651,346.556Z" transform="translate(-357.826 -332.139)" fill="#184d47"/>
      <path id="Path_39765" data-name="Path 39765" d="M724.461,367.015,605.284,435.862a15.484,15.484,0,0,1-14.02,0h0c-3.871-2.237-3.871-5.863,0-8.1l119.178-68.847a15.481,15.481,0,0,1,14.018,0h0C728.333,361.154,728.333,364.778,724.461,367.015Z" transform="translate(-332.191 -319.889)" fill="#184d47"/>
      <path id="Path_39766" data-name="Path 39766" d="M552.219,448.278l-34.884,20.151a15.482,15.482,0,0,1-14.018,0h0c-3.871-2.235-3.871-5.861,0-8.1L538.2,440.18a15.481,15.481,0,0,1,14.018,0h0C556.092,442.415,556.092,446.041,552.219,448.278Z" transform="translate(-384.853 -271.23)" fill="#184d47"/>
      <path id="Path_39767" data-name="Path 39767" d="M601.161,370.458,481.982,439.305a15.482,15.482,0,0,1-14.018,0h0c-3.871-2.237-3.871-5.863,0-8.1L587.143,362.36a15.482,15.482,0,0,1,14.018,0h0C605.031,364.6,605.031,368.223,601.161,370.458Z" transform="translate(-406.022 -317.827)" fill="#184d47"/>
      <path id="Path_39768" data-name="Path 39768" d="M615.991,343.653l-34.884,20.153a15.491,15.491,0,0,1-14.018,0h0c-3.871-2.237-3.871-5.863,0-8.1l34.884-20.151a15.481,15.481,0,0,1,14.018,0h0C619.862,337.792,619.862,341.418,615.991,343.653Z" transform="translate(-346.667 -333.878)" fill="#184d47"/>
    </g>
    <g id="Group_13444" data-name="Group 13444" transform="translate(465.595 401.377)">
      <g id="Group_13443" data-name="Group 13443" transform="translate(0 101.529)">
        <path id="Path_39769" data-name="Path 39769" d="M513.1,380.122,393.92,448.969a15.481,15.481,0,0,1-14.018,0h0c-3.872-2.237-3.872-5.863,0-8.1l119.177-68.847a15.485,15.485,0,0,1,14.02,0h0C516.969,374.261,516.969,377.885,513.1,380.122Z" transform="translate(-376.997 -317.161)" fill="#184d47"/>
        <path id="Path_39770" data-name="Path 39770" d="M549.636,346.856,486.655,383.24a15.485,15.485,0,0,1-14.02,0h0c-3.871-2.237-3.871-5.863,0-8.1l62.983-36.384a15.481,15.481,0,0,1,14.018,0h0C553.508,340.993,553.508,344.619,549.636,346.856Z" transform="translate(-321.469 -337.081)" fill="#184d47"/>
      </g>
      <path id="Path_39771" data-name="Path 39771" d="M535.2,344.761,416.017,413.608a15.492,15.492,0,0,1-14.018,0h0c-3.871-2.237-3.871-5.863,0-8.1l119.178-68.847a15.481,15.481,0,0,1,14.018,0h0C539.068,338.9,539.068,342.524,535.2,344.761Z" transform="translate(-363.765 -236.806)" fill="#184d47"/>
      <path id="Path_39772" data-name="Path 39772" d="M630.515,289.7,511.337,358.544a15.481,15.481,0,0,1-14.018,0h0c-3.871-2.235-3.871-5.861,0-8.1L616.5,281.6a15.5,15.5,0,0,1,14.02,0h0C634.386,283.836,634.386,287.462,630.515,289.7Z" transform="translate(-306.69 -269.777)" fill="#184d47"/>
      <path id="Path_39773" data-name="Path 39773" d="M673.325,310.157,554.148,379a15.5,15.5,0,0,1-14.02,0h0c-3.871-2.237-3.871-5.863,0-8.1l119.178-68.845a15.481,15.481,0,0,1,14.018,0h0C677.2,304.294,677.2,307.92,673.325,310.157Z" transform="translate(-281.055 -257.526)" fill="#184d47"/>
      <path id="Path_39774" data-name="Path 39774" d="M501.083,391.42,466.2,411.571a15.482,15.482,0,0,1-14.018,0h0c-3.871-2.237-3.871-5.863,0-8.1l34.884-20.153a15.491,15.491,0,0,1,14.018,0h0C504.956,385.558,504.956,389.184,501.083,391.42Z" transform="translate(-333.717 -208.867)" fill="#184d47"/>
      <path id="Path_39775" data-name="Path 39775" d="M688.157,283.352,653.272,303.5a15.482,15.482,0,0,1-14.018,0h0c-3.871-2.235-3.871-5.861,0-8.1l34.884-20.151a15.485,15.485,0,0,1,14.02,0h0C692.028,277.489,692.028,281.115,688.157,283.352Z" transform="translate(-221.7 -273.577)" fill="#184d47"/>
      <path id="Path_39776" data-name="Path 39776" d="M550.025,313.6,430.847,382.447a15.492,15.492,0,0,1-14.018,0h0c-3.872-2.237-3.872-5.863,0-8.1L536.005,305.5a15.485,15.485,0,0,1,14.02,0h0C553.9,307.737,553.9,311.363,550.025,313.6Z" transform="translate(-354.886 -255.465)" fill="#184d47"/>
      <path id="Path_39777" data-name="Path 39777" d="M564.856,286.8l-34.884,20.151a15.482,15.482,0,0,1-14.018,0h0c-3.872-2.235-3.872-5.861,0-8.1L550.838,278.7a15.481,15.481,0,0,1,14.018,0h0C568.727,280.932,568.727,284.558,564.856,286.8Z" transform="translate(-295.531 -271.515)" fill="#184d47"/>
    </g>
    <g id="Group_13446" data-name="Group 13446" transform="translate(248.58 328.489)">
      <g id="Group_13445" data-name="Group 13445" transform="translate(0 96.055)">
        <path id="Path_39778" data-name="Path 39778" d="M370.02,328.787,257.27,393.921a14.655,14.655,0,0,1-13.264,0h0c-3.661-2.117-3.661-5.546,0-7.661l112.751-65.135a14.652,14.652,0,0,1,13.262,0h0C373.682,323.24,373.682,326.671,370.02,328.787Z" transform="translate(-241.26 -269.222)" fill="#184d47"/>
        <path id="Path_39779" data-name="Path 39779" d="M404.59,297.315,345,331.736a14.655,14.655,0,0,1-13.263,0h0c-3.663-2.117-3.663-5.546,0-7.661l59.585-34.422a14.652,14.652,0,0,1,13.262,0h0C408.251,291.768,408.251,295.2,404.59,297.315Z" transform="translate(-188.727 -288.067)" fill="#184d47"/>
      </g>
      <path id="Path_39780" data-name="Path 39780" d="M390.928,295.332,278.177,360.467a14.655,14.655,0,0,1-13.264,0h0c-3.661-2.117-3.661-5.546,0-7.661l112.751-65.135a14.652,14.652,0,0,1,13.262,0h0C394.589,289.786,394.589,293.217,390.928,295.332Z" transform="translate(-228.742 -193.199)" fill="#184d47"/>
      <path id="Path_39781" data-name="Path 39781" d="M481.105,243.238,368.354,308.373a14.652,14.652,0,0,1-13.262,0h0c-3.663-2.117-3.663-5.546,0-7.661l112.751-65.135a14.652,14.652,0,0,1,13.262,0h0C484.768,237.692,484.768,241.123,481.105,243.238Z" transform="translate(-174.745 -224.392)" fill="#77008f"/>
      <path id="Path_39782" data-name="Path 39782" d="M521.607,262.595,408.856,327.729a14.652,14.652,0,0,1-13.262,0h0c-3.663-2.117-3.663-5.546,0-7.661l112.751-65.135a14.652,14.652,0,0,1,13.262,0h0C525.27,257.048,525.27,260.479,521.607,262.595Z" transform="translate(-150.493 -212.802)" fill="#77008f"/>
      <path id="Path_39783" data-name="Path 39783" d="M358.655,339.474l-33,19.066a14.652,14.652,0,0,1-13.262,0h0c-3.663-2.115-3.663-5.546,0-7.661l33-19.066a14.655,14.655,0,0,1,13.264,0h0C362.317,333.93,362.317,337.359,358.655,339.474Z" transform="translate(-200.314 -166.767)" fill="#184d47"/>
      <path id="Path_39784" data-name="Path 39784" d="M535.638,237.236l-33,19.064a14.645,14.645,0,0,1-13.264,0h0c-3.661-2.115-3.661-5.546,0-7.661l33-19.064a14.642,14.642,0,0,1,13.262,0h0C539.3,231.69,539.3,235.119,535.638,237.236Z" transform="translate(-94.339 -227.987)" fill="#77008f"/>
      <path id="Path_39785" data-name="Path 39785" d="M404.956,265.851,292.2,330.986a14.651,14.651,0,0,1-13.262,0h0c-3.663-2.115-3.663-5.546,0-7.661L391.694,258.19a14.651,14.651,0,0,1,13.262,0h0C408.619,260.307,408.619,263.736,404.956,265.851Z" transform="translate(-220.342 -210.852)" fill="#184d47"/>
      <path id="Path_39786" data-name="Path 39786" d="M418.987,240.493l-33,19.066a14.655,14.655,0,0,1-13.264,0h0c-3.661-2.117-3.661-5.546,0-7.661l33-19.066a14.652,14.652,0,0,1,13.262,0h0C422.65,234.946,422.65,238.377,418.987,240.493Z" transform="translate(-164.188 -226.036)" fill="#77008f"/>
    </g>
    <path id="Path_39787" data-name="Path 39787" d="M859.369,479.778,715.885,562.619c-17.79,10.271-46.633,10.271-64.423,0l-343.124-198.1c-17.79-10.271-17.79-26.924,0-37.194l143.485-82.841c17.79-10.271,46.632-10.271,64.422,0l343.125,198.1C877.159,452.854,877.159,469.507,859.369,479.778Z" transform="translate(39.496 105.766)" fill="#b0a7c2" style="mix-blend-mode: multiply;isolation: isolate"/>
    <g id="Group_13451" data-name="Group 13451" transform="translate(331.315 270.378)">
      <path id="Path_39788" data-name="Path 39788" d="M296.533,273.965a25.556,25.556,0,0,0,7.633,6.326L649.118,479.546a43.886,43.886,0,0,0,12.973,4.963A69.042,69.042,0,0,0,676.045,486c9.5.035,19.15-1.946,26.964-6.454l164.148-94.81c4.632-2.673,9.665-7.291,10.865-12.507a11.984,11.984,0,0,0,.289-2.654v24.471c.018,6.726-5.2,12.125-11.155,15.561L703.008,504.436a43.88,43.88,0,0,1-12.972,4.945c-13.32,2.854-29.181,1.835-40.918-4.945L304.165,305.163a35.384,35.384,0,0,1-4.325-2.945c-3.744-2.964-6.814-7.946-6.814-12.726h-.018V264.711h.018A16.363,16.363,0,0,0,296.533,273.965Z" transform="translate(-293.009 -147.886)" fill="#184d47"/>
      <path id="Path_39789" data-name="Path 39789" d="M621.387,369.4a2.931,2.931,0,0,1,2.724-.345,2.732,2.732,0,0,1,1.327,2.689v1.746a8.958,8.958,0,0,1-4.051,7.017l-27.765,16.036a2.468,2.468,0,0,1-4.051-2.328v-1.763a8.956,8.956,0,0,1,4.051-7Z" transform="translate(-115.432 -85.529)" fill="#fff"/>
      <path id="Path_39790" data-name="Path 39790" d="M572.281,392.032c3.869-3.927,7.577-2.363,7.468,1.691-.165,6.09-6.2,12.034-9.468,10a3.512,3.512,0,0,1-1.127-1.218,5.24,5.24,0,0,1-.435-3.218,12.2,12.2,0,0,1,1.145-3.835s0-.019.018-.019a13.466,13.466,0,0,0,.855-1.489A11.948,11.948,0,0,1,572.281,392.032Z" transform="translate(-127.957 -73.006)" fill="#fff"/>
      <path id="Path_39791" data-name="Path 39791" d="M303.237,316.192c2.835,3.418,5.106,4.326,15.025,10.127.182.109,336.159,194.254,337.9,195.11a46.41,46.41,0,0,0,19.914,4.181l-.037,4.146a69.037,69.037,0,0,1-13.954-1.492,43.881,43.881,0,0,1-12.973-4.963L304.164,324.045a25.556,25.556,0,0,1-7.633-6.326,16.364,16.364,0,0,1-3.506-9.254,10.748,10.748,0,0,1,.273-3.054c1.217-5.218,6.23-9.836,10.865-12.507l164.144-94.81c7.813-4.509,17.443-6.474,26.946-6.454l-.035,4.146a51.329,51.329,0,0,0-10.613,1.09c-7.1,1.509-10.538,3.672-15.825,6.836-5.361,3.218,12.192-7.145-61.614,35.487-12.01,6.945-23.966,14.017-35.976,20.944s-24.075,13.726-36.067,20.744c-5,2.926-9.975,5.89-14.99,8.725-5.868,3.31-11.339,6.2-14.135,8.437C299.749,303.066,298.113,310.03,303.237,316.192Z" transform="translate(-293.008 -191.64)" fill="#e1dfea"/>
      <g id="Group_13447" data-name="Group 13447" transform="translate(62.735 173.774)">
        <path id="Path_39792" data-name="Path 39792" d="M362.51,319.4l2.751-1.589L335,300.331l-2.751,1.589Z" transform="translate(-332.248 -300.331)" fill="#e1dfea"/>
        <path id="Path_39793" data-name="Path 39793" d="M353.927,315.088v-3.823l-2.751,1.589v3.823Z" transform="translate(-320.915 -293.784)" fill="#7c7ca0"/>
        <path id="Path_39794" data-name="Path 39794" d="M362.51,322.63v-3.823l-30.261-17.481v3.823Z" transform="translate(-332.248 -299.736)" fill="#7c7ca0"/>
      </g>
      <path id="Path_39795" data-name="Path 39795" d="M560.247,402.211h0a2.321,2.321,0,0,0,1.063-1.8h0c0-.651-.478-.907-1.063-.568h0a2.317,2.317,0,0,0-1.065,1.8h0C559.182,402.293,559.662,402.549,560.247,402.211Z" transform="translate(-133.628 -67.059)" fill="#1c1a2a"/>
      <g id="Group_13448" data-name="Group 13448" transform="translate(530.673 248.991)">
        <path id="Path_39796" data-name="Path 39796" d="M647.232,359.145h0a3.6,3.6,0,0,0,1.652-2.79v-7.864c0-1.009-.743-1.407-1.652-.883h0a3.6,3.6,0,0,0-1.65,2.79v7.864C645.582,359.273,646.324,359.67,647.232,359.145Z" transform="translate(-612.565 -347.377)" fill="#fff"/>
        <path id="Path_39797" data-name="Path 39797" d="M643.1,361.532h0a3.6,3.6,0,0,0,1.651-2.79v-7.865c0-1.01-.744-1.407-1.651-.882h0a3.6,3.6,0,0,0-1.65,2.79v7.864C641.452,361.658,642.194,362.056,643.1,361.532Z" transform="translate(-615.038 -345.949)" fill="#fff"/>
        <path id="Path_39798" data-name="Path 39798" d="M638.972,363.916h0a3.6,3.6,0,0,0,1.651-2.788v-7.866c0-1.009-.743-1.405-1.651-.881h0a3.6,3.6,0,0,0-1.65,2.79v7.864C637.322,364.044,638.064,364.44,638.972,363.916Z" transform="translate(-617.511 -344.52)" fill="#fff"/>
        <path id="Path_39799" data-name="Path 39799" d="M634.842,366.3h0a3.6,3.6,0,0,0,1.651-2.788v-7.866c0-1.009-.743-1.405-1.651-.881h0a3.6,3.6,0,0,0-1.65,2.788v7.866C633.192,366.43,633.934,366.826,634.842,366.3Z" transform="translate(-619.984 -343.091)" fill="#fff"/>
        <path id="Path_39800" data-name="Path 39800" d="M630.713,368.688h0a3.6,3.6,0,0,0,1.65-2.788v-7.866c0-1.009-.742-1.405-1.65-.881h0a3.6,3.6,0,0,0-1.652,2.788v7.866C629.061,368.816,629.8,369.212,630.713,368.688Z" transform="translate(-622.458 -341.663)" fill="#fff"/>
        <path id="Path_39801" data-name="Path 39801" d="M626.583,371.074h0a3.6,3.6,0,0,0,1.651-2.788V360.42c0-1.009-.743-1.405-1.651-.881h0a3.6,3.6,0,0,0-1.651,2.788v7.866C624.931,371.2,625.674,371.6,626.583,371.074Z" transform="translate(-624.931 -340.234)" fill="#fff"/>
      </g>
      <path id="Path_39802" data-name="Path 39802" d="M791.422,428.491,627.275,523.3c-7.813,4.509-17.46,6.489-26.963,6.454l.037-4.146a47.694,47.694,0,0,0,18.079-3.381,62.939,62.939,0,0,0,8.376-4.544c5.359-3.218-12.192,7.143,61.614-35.488,12.01-6.945,23.966-14.018,35.976-20.944,12.028-6.928,24.092-13.726,36.067-20.743,5-2.927,9.975-5.892,15.008-8.728,9.94-5.6,14.627-7.78,17.7-12.2,4.016-5.781,3.089-13.417-6.832-19.289-.38-.235-345.352-199.562-346.914-200.326a46.65,46.65,0,0,0-19.932-4.181l.035-4.146a69.148,69.148,0,0,1,13.973,1.492,44.247,44.247,0,0,1,12.992,4.963L791.422,397.348a25.684,25.684,0,0,1,7.649,6.326,16.241,16.241,0,0,1,3.506,9.655,11.991,11.991,0,0,1-.289,2.654C801.087,421.2,796.054,425.817,791.422,428.491Z" transform="translate(-217.276 -191.64)" fill="#e1dfea"/>
      <g id="Group_13449" data-name="Group 13449" transform="translate(7.172 4.146)">
        <path id="Path_39803" data-name="Path 39803" d="M518.815,202.072c-4.007-2.315-6.242-3.605-6.36-3.658a46.667,46.667,0,0,0-19.932-4.181,51.63,51.63,0,0,0-10.608,1.1c-7.105,1.506-10.546,3.666-15.82,6.833-4.975,2.994,9.861-5.765-47.506,27.323l-14.122,8.159c-12.007,6.953-23.969,14.018-35.96,20.946q-4.94,2.851-9.892,5.663c-8.729,5.007-17.489,9.981-26.19,15.077-4.99,2.934-9.965,5.895-14.985,8.726-5.855,3.313-11.337,6.2-14.138,8.442-6.242,5.017-7.895,11.98-2.771,18.141,2.846,3.417,5.11,4.328,15.032,10.128l145.9,84.283c90.99,52.563,191.054,110.35,192.021,110.823a46.236,46.236,0,0,0,19.9,4.182,47.644,47.644,0,0,0,18.07-3.381,60.222,60.222,0,0,0,8.371-4.544c5.364-3.218-12.184,7.142,61.63-35.482,12.007-6.953,23.969-14.018,35.976-20.954s24.087-13.727,36.08-20.739c4.975-2.927,9.965-5.895,14.985-8.726,9.952-5.594,14.629-7.78,17.7-12.2,3.872-5.559,3.158-12.822-5.72-18.587q-.537-.362-1.118-.7C859.016,398.529,566.024,229.222,518.815,202.072Z" transform="translate(-297.495 -194.233)" fill="#e1dfea"/>
        <path id="Path_39804" data-name="Path 39804" d="M860.476,399.442c8.878,5.765,9.593,13.029,5.72,18.587-3.07,4.424-7.746,6.609-17.7,12.2-5.02,2.831-10.01,5.8-14.985,8.726-11.993,7.012-24.059,13.812-36.08,20.739s-23.969,14-35.976,20.954c-73.814,42.624-56.266,32.263-61.63,35.482a60.222,60.222,0,0,1-8.371,4.544c-11.546,4.827-27.32,4.419-37.973-.8-1.6-.78-293.745-169.588-337.92-195.106-9.922-5.8-12.186-6.712-15.032-10.128-5.124-6.162-3.471-13.124,2.771-18.141,3.4-2.718,157.994-91.446,162.793-94.335,5.274-3.167,8.715-5.327,15.82-6.833,10.873-2.325,22.541-.809,30.54,3.081C512.674,198.51,503.315,193.117,860.476,399.442Z" transform="translate(-297.495 -194.233)" fill="url(#linear-gradient)"/>
      </g>
      <g id="Group_13450" data-name="Group 13450" transform="translate(82.99 47.997)">
        <path id="Path_39805" data-name="Path 39805" d="M382.49,224.642a5.854,5.854,0,0,1,5.38,0l2,1.146-36.539,21.106a5.943,5.943,0,0,1-5.4,0l-1.979-1.145Z" transform="translate(-344.298 -220.268)" fill="#fff"/>
        <path id="Path_39806" data-name="Path 39806" d="M388.489,222.308l2.525,1.455c1.508.871,1.471,2.253,0,3.108l-.528.31-2-1.146a5.853,5.853,0,0,0-5.38,0L346.57,247.142l-.526-.31a1.951,1.951,0,0,1-1.127-1.525v-.038a1.879,1.879,0,0,1,1.127-1.544l37.065-21.416A5.911,5.911,0,0,1,388.489,222.308Z" transform="translate(-344.917 -221.661)" fill="#1a2738"/>
      </g>
    </g>
    <g id="Group_13452" data-name="Group 13452" transform="translate(404.437 356.403)" opacity="0.27">
      <path id="Path_39807" data-name="Path 39807" d="M424.178,251.583,349.367,294.8a9.721,9.721,0,0,1-8.8,0h0c-2.43-1.4-2.43-3.68,0-5.084l74.81-43.217a9.721,9.721,0,0,1,8.8,0h0C426.608,247.9,426.608,250.18,424.178,251.583Z" transform="translate(-338.745 -245.447)" fill="#f2f8ff"/>
      <path id="Path_39808" data-name="Path 39808" d="M412.579,266.1l-52.21,30.161a9.72,9.72,0,0,1-8.8,0h0c-2.428-1.4-2.428-3.68,0-5.084l52.21-30.159a9.72,9.72,0,0,1,8.8,0h0C415.009,262.426,415.009,264.7,412.579,266.1Z" transform="translate(-332.157 -236.75)" fill="#f2f8ff"/>
      <path id="Path_39809" data-name="Path 39809" d="M423.582,272.461l-52.21,30.161a9.72,9.72,0,0,1-8.8,0h0c-2.43-1.4-2.43-3.68,0-5.084l52.21-30.159a9.72,9.72,0,0,1,8.8,0h0C426.012,268.782,426.012,271.057,423.582,272.461Z" transform="translate(-325.569 -232.944)" fill="#f2f8ff"/>
    </g>
    <g id="Group_13453" data-name="Group 13453" transform="translate(519.403 428.975)" opacity="0.27">
      <path id="Path_39810" data-name="Path 39810" d="M496.086,296.974l-74.81,43.217a9.72,9.72,0,0,1-8.8,0h0c-2.43-1.4-2.43-3.679,0-5.083l74.81-43.217a9.72,9.72,0,0,1,8.8,0h0C498.516,293.3,498.516,295.57,496.086,296.974Z" transform="translate(-410.653 -290.839)" fill="#f2f8ff"/>
      <path id="Path_39811" data-name="Path 39811" d="M484.488,311.5l-52.21,30.16a9.72,9.72,0,0,1-8.8,0h0c-2.43-1.4-2.43-3.679,0-5.083l52.21-30.161a9.72,9.72,0,0,1,8.8,0h0C486.918,307.817,486.918,310.094,484.488,311.5Z" transform="translate(-404.065 -282.143)" fill="#f2f8ff"/>
      <path id="Path_39812" data-name="Path 39812" d="M495.49,317.853l-52.208,30.16a9.72,9.72,0,0,1-8.8,0h0c-2.43-1.4-2.43-3.679,0-5.083l52.208-30.161a9.72,9.72,0,0,1,8.8,0h0C497.92,314.173,497.92,316.45,495.49,317.853Z" transform="translate(-397.476 -278.337)" fill="#f2f8ff"/>
    </g>
    <g id="Group_13454" data-name="Group 13454" transform="translate(672.575 408.18)" opacity="0.27">
      <path id="Path_39813" data-name="Path 39813" d="M591.891,283.968l-74.81,43.215a9.72,9.72,0,0,1-8.8,0h0c-2.43-1.4-2.43-3.679,0-5.082l74.81-43.217a9.72,9.72,0,0,1,8.8,0h0C594.321,280.288,594.321,282.565,591.891,283.968Z" transform="translate(-506.458 -277.831)" fill="#f2f8ff"/>
      <path id="Path_39814" data-name="Path 39814" d="M580.293,298.49l-52.21,30.16a9.72,9.72,0,0,1-8.8,0h0c-2.43-1.4-2.43-3.679,0-5.083l52.21-30.161a9.72,9.72,0,0,1,8.8,0h0C582.722,294.81,582.722,297.087,580.293,298.49Z" transform="translate(-499.869 -269.136)" fill="#f2f8ff"/>
      <path id="Path_39815" data-name="Path 39815" d="M591.295,304.846l-52.208,30.159a9.72,9.72,0,0,1-8.8,0h0c-2.43-1.4-2.43-3.679,0-5.082l52.208-30.161a9.721,9.721,0,0,1,8.8,0h0C593.725,301.166,593.725,303.443,591.295,304.846Z" transform="translate(-493.281 -265.33)" fill="#f2f8ff"/>
    </g>
    <g id="Group_13455" data-name="Group 13455" transform="translate(656.526 504.283)" opacity="0.27">
      <path id="Path_39816" data-name="Path 39816" d="M581.851,344.077l-74.81,43.217a9.72,9.72,0,0,1-8.8,0h0c-2.428-1.4-2.428-3.679,0-5.082l74.811-43.217a9.72,9.72,0,0,1,8.8,0h0C584.281,340.4,584.281,342.673,581.851,344.077Z" transform="translate(-496.42 -337.941)" fill="#f2f8ff"/>
      <path id="Path_39817" data-name="Path 39817" d="M570.254,358.6l-52.21,30.159a9.719,9.719,0,0,1-8.8,0h0c-2.43-1.4-2.43-3.679,0-5.082l52.21-30.161a9.72,9.72,0,0,1,8.8,0h0C572.684,354.92,572.684,357.2,570.254,358.6Z" transform="translate(-489.832 -329.246)" fill="#f2f8ff"/>
      <path id="Path_39818" data-name="Path 39818" d="M581.257,364.956l-52.21,30.16a9.72,9.72,0,0,1-8.8,0h0c-2.43-1.4-2.43-3.679,0-5.083l52.21-30.161a9.72,9.72,0,0,1,8.8,0h0C583.686,361.276,583.686,363.553,581.257,364.956Z" transform="translate(-483.243 -325.44)" fill="#f2f8ff"/>
    </g>
    <g id="Group_13456" data-name="Group 13456" transform="translate(550.378 335.078)" opacity="0.27">
      <path id="Path_39819" data-name="Path 39819" d="M515.46,238.244l-74.811,43.217a9.72,9.72,0,0,1-8.8,0h0c-2.43-1.4-2.43-3.679,0-5.083l74.81-43.217a9.721,9.721,0,0,1,8.8,0h0C517.89,234.565,517.89,236.84,515.46,238.244Z" transform="translate(-430.027 -232.108)" fill="#717f90"/>
      <path id="Path_39820" data-name="Path 39820" d="M503.862,252.767l-52.21,30.16a9.72,9.72,0,0,1-8.8,0h0c-2.43-1.4-2.43-3.679,0-5.083l52.21-30.161a9.72,9.72,0,0,1,8.8,0h0C506.293,249.087,506.293,251.364,503.862,252.767Z" transform="translate(-423.439 -223.413)" fill="#717f90"/>
      <path id="Path_39821" data-name="Path 39821" d="M514.865,259.123l-52.21,30.159a9.72,9.72,0,0,1-8.8,0h0c-2.43-1.4-2.43-3.679,0-5.083l52.208-30.161a9.723,9.723,0,0,1,8.8,0h0C517.294,255.443,517.294,257.72,514.865,259.123Z" transform="translate(-416.85 -219.607)" fill="#717f90"/>
    </g>
    <g id="Group_13457" data-name="Group 13457" transform="translate(312.952 141.73)">
      <path id="Path_39822" data-name="Path 39822" d="M374.585,134.126v41.52c0,14.538-10.2,32.216-22.783,39.485l-5.319,3.071-12.645,30.458-12.645-15.841q-2.664,1.525-5.321,3.071c-.513.3-1.026.572-1.53.82-5.685,2.854-10.8,2.963-14.589.771l-.3-.179c-3.949-2.449-6.378-7.486-6.378-14.578V181.217c0-14.549,10.207-32.227,22.792-39.5q17.96-10.37,35.93-20.751c6.17-3.565,11.767-3.97,15.863-1.738.078.04.168.09.246.139C372.038,121.75,374.585,126.856,374.585,134.126Z" transform="translate(-274.603 -107.175)" fill="#184d47"/>
      <path id="Path_39823" data-name="Path 39823" d="M288.195,230.8c-4.125-2.381-6.672-7.5-6.672-14.755V174.529c0-14.539,10.2-32.217,22.781-39.487q17.96-10.37,35.93-20.76c6.3-3.634,11.994-3.97,16.109-1.589q9.137,5.259,18.242,10.538c-4.1-2.232-9.693-1.827-15.863,1.738q-17.96,10.37-35.93,20.751c-12.586,7.27-22.792,24.947-22.792,39.5v41.509c0,7.092,2.429,12.128,6.378,14.578Q297.286,236.06,288.195,230.8Z" transform="translate(-281.523 -111.174)" fill="#d6efc7"/>
      <path id="Path_39824" data-name="Path 39824" d="M313.23,189.762,325.875,205.6l-18.488-10.675-1.007-1.274c.5-.248,1.017-.524,1.53-.82Q310.559,191.294,313.23,189.762Z" transform="translate(-266.64 -64.116)" fill="#96bb7c"/>
      <path id="Path_39825" data-name="Path 39825" d="M336.942,145.942c-4.817-4.315-14.234-.883-21.032,7.666S307.5,172.583,312.32,176.9c4.17,3.735,11.785,1.663,18.167-4.505l8.721,7.812c1,.894,3,.12,4.465-1.727s1.851-4.067.854-4.961l-8.721-7.812C340.465,157.992,341.111,149.677,336.942,145.942Zm-5.692,21.406c-5.159,6.488-12.307,9.092-15.962,5.818s-2.437-11.188,2.724-17.675,12.306-9.092,15.962-5.818S336.411,160.86,331.25,167.348Z" transform="translate(-264.745 -91.471)" fill="#d0b8ff"/>
    </g>
    <ellipse id="Ellipse_67" data-name="Ellipse 67" cx="13.783" cy="7.962" rx="13.783" ry="7.962" transform="translate(304.435 276.533)" fill="#184d47"/>
    <path id="Path_39826" data-name="Path 39826" d="M695.93,184.342c5.383,3.108,5.383,8.151,0,11.26s-14.109,3.11-19.492,0-5.382-8.152,0-11.26S690.547,181.233,695.93,184.342Z" transform="translate(265.482 72.972)" fill="#184d47"/>
    <g id="Group_13458" data-name="Group 13458" transform="translate(322.128 273.474)">
      <path id="Path_39827" data-name="Path 39827" d="M297.513,226.409l1.989,2.884a.65.65,0,0,0,.844.126l4.448-1.923c.919-.4,1.285.521.622,1.552l-3.22,5a1.736,1.736,0,0,0-.321,1.178l.759,3.994a2.134,2.134,0,0,1-1.624,2.12l-3.979.206a1.659,1.659,0,0,0-1.042.6l-3.979,4.392c-.822.908-1.781.764-1.624-.241l.759-4.873c.062-.4-.058-.7-.321-.806l-3.22-1.279c-.665-.265-.3-1.607.62-2.27l4.449-3.217a2.537,2.537,0,0,0,.843-1.1l1.991-5.183C295.916,226.5,297.1,225.815,297.513,226.409Z" transform="translate(-287.263 -174.048)" fill="#fad586"/>
      <path id="Path_39828" data-name="Path 39828" d="M311.627,218.257l1.989,2.884a.652.652,0,0,0,.844.126l4.448-1.923c.919-.4,1.285.52.62,1.552l-3.218,5a1.735,1.735,0,0,0-.321,1.178l.759,3.994a2.134,2.134,0,0,1-1.626,2.12l-3.978.206a1.659,1.659,0,0,0-1.042.6l-3.979,4.392c-.822.906-1.783.764-1.624-.243l.759-4.871c.062-.4-.058-.7-.323-.806l-3.218-1.281c-.665-.264-.3-1.605.62-2.27l4.449-3.217a2.518,2.518,0,0,0,.843-1.1l1.991-5.182C310.03,218.346,311.216,217.66,311.627,218.257Z" transform="translate(-278.811 -178.93)" fill="#fad586"/>
      <path id="Path_39829" data-name="Path 39829" d="M325.741,210.1l1.989,2.884c.163.237.478.283.844.125l4.448-1.922c.919-.4,1.285.52.62,1.552l-3.218,5a1.735,1.735,0,0,0-.323,1.177l.761,4a2.135,2.135,0,0,1-1.626,2.12l-3.978.2a1.666,1.666,0,0,0-1.042.6l-3.979,4.392c-.822.907-1.783.763-1.626-.243l.761-4.872c.062-.4-.059-.7-.323-.806l-3.218-1.281c-.665-.264-.3-1.605.62-2.27l4.449-3.217a2.527,2.527,0,0,0,.843-1.1l1.989-5.183C324.142,210.193,325.33,209.507,325.741,210.1Z" transform="translate(-270.36 -183.812)" fill="#fad586"/>
      <path id="Path_39830" data-name="Path 39830" d="M339.855,201.949l1.989,2.884a.648.648,0,0,0,.842.126l4.449-1.923c.918-.4,1.285.521.62,1.554l-3.218,5a1.739,1.739,0,0,0-.323,1.178l.761,3.994a2.137,2.137,0,0,1-1.626,2.122l-3.979.2a1.666,1.666,0,0,0-1.042.6l-3.978,4.39c-.822.908-1.783.764-1.626-.241l.761-4.873c.062-.4-.059-.7-.323-.806l-3.218-1.279c-.665-.265-.3-1.607.62-2.27l4.448-3.217a2.519,2.519,0,0,0,.844-1.1l1.989-5.183C338.256,202.041,339.444,201.355,339.855,201.949Z" transform="translate(-261.909 -188.694)" fill="#777d7d"/>
      <path id="Path_39831" data-name="Path 39831" d="M353.968,193.8l1.991,2.884a.649.649,0,0,0,.843.126l4.449-1.923c.918-.4,1.285.521.62,1.552l-3.22,5a1.735,1.735,0,0,0-.321,1.178l.759,3.994a2.132,2.132,0,0,1-1.624,2.12l-3.979.206a1.659,1.659,0,0,0-1.042.6l-3.978,4.392c-.822.906-1.783.764-1.626-.243l.759-4.872c.062-.4-.057-.7-.321-.806l-3.218-1.279c-.665-.265-.3-1.607.62-2.27l4.448-3.217a2.541,2.541,0,0,0,.844-1.1l1.989-5.183C352.37,193.888,353.557,193.2,353.968,193.8Z" transform="translate(-253.458 -193.576)" fill="#777d7d"/>
    </g>
    <g id="Group_13460" data-name="Group 13460" transform="translate(664.139 75.885)">
      <path id="Path_39832" data-name="Path 39832" d="M501.182,88.97V123.3c0,12.023,8.432,26.642,18.84,32.654,1.469.849,2.929,1.69,4.4,2.54l10.458,25.187,10.456-13.1q2.2,1.261,4.4,2.54c.424.245.849.473,1.265.678,4.7,2.36,8.929,2.449,12.064.636l.245-.147c3.265-2.024,5.273-6.19,5.273-12.055V127.912c0-12.031-8.44-26.65-18.846-32.662q-14.852-8.576-29.712-17.16c-5.1-2.948-9.73-3.282-13.118-1.437-.066.034-.139.074-.2.115C503.288,78.736,501.182,82.959,501.182,88.97Z" transform="translate(-501.182 -66.683)" fill="#184d47"/>
      <path id="Path_39833" data-name="Path 39833" d="M576.2,168.918c3.412-1.968,5.517-6.2,5.517-12.2V122.381c0-12.021-8.432-26.641-18.84-32.652q-14.852-8.576-29.712-17.168c-5.207-3.006-9.917-3.284-13.321-1.316q-7.554,4.35-15.084,8.715c3.388-1.845,8.016-1.511,13.118,1.437q14.852,8.576,29.712,17.16c10.407,6.011,18.846,20.631,18.846,32.662v34.326c0,5.864-2.008,10.031-5.273,12.055Q568.683,173.264,576.2,168.918Z" transform="translate(-499.039 -69.99)" fill="#d6efc7"/>
      <path id="Path_39834" data-name="Path 39834" d="M532.714,134.978l-10.456,13.1,15.288-8.829.833-1.054c-.416-.2-.841-.433-1.265-.678Q534.922,136.245,532.714,134.978Z" transform="translate(-488.562 -31.076)" fill="#96bb7c"/>
      <g id="Group_13459" data-name="Group 13459" transform="translate(17.574 42.322)">
        <path id="Path_39835" data-name="Path 39835" d="M525.815,99.564a1.007,1.007,0,0,0-.876-.144l-.876.371-4.777-2.759c-1.84-1.063-3.42-.6-3.68,1.073l-.432,2.756,2.505,1.447.38-2.437c.083-.558.615-.71,1.226-.358l5.29,3.057a1.011,1.011,0,0,0,.876.142l.876-.371,3.935,2.273.876,1.383a2.632,2.632,0,0,0,.878.87l5.289,3.057a2.679,2.679,0,0,1,1.231,1.776l.377,2.875,2.505,1.447-.432-3.255a8,8,0,0,0-3.682-5.324l-4.776-2.76-.878-1.385a2.643,2.643,0,0,0-.876-.87Zm-12.4,2.763c-.683-.395-1.241-.16-1.241.524v2.481a2.583,2.583,0,0,0,1.241,1.957l.208.12,1.928,12.688A5.347,5.347,0,0,0,518,123.586l20.6,11.9c1.215.7,2.248.421,2.451-.659l1.928-10.461.2.118c.684.395,1.241.158,1.241-.524v-2.481a2.579,2.579,0,0,0-1.241-1.959ZM534.5,120.708a2.581,2.581,0,0,1,1.239,1.957v6.2c0,.684-.556.919-1.239.524a2.578,2.578,0,0,1-1.241-1.957v-6.2c0-.683.556-.919,1.241-.524Zm-6.2-3.581a2.578,2.578,0,0,1,1.239,1.957v6.2c0,.683-.556.918-1.239.524a2.579,2.579,0,0,1-1.241-1.959v-6.2c0-.684.556-.919,1.241-.524Zm-6.2-3.581a2.573,2.573,0,0,1,1.241,1.957v6.2c0,.684-.556.919-1.241.524a2.578,2.578,0,0,1-1.239-1.957v-6.2c0-.684.556-.919,1.239-.524Z" transform="translate(-512.174 -96.461)" fill="#fbfafc"/>
      </g>
    </g>
    <path id="Path_39836" data-name="Path 39836" d="M663.7,361.314l-79.02,45.621c-7.807,4.509-20.466,4.509-28.273,0l-145.12-83.784c-7.808-4.509-7.808-11.817,0-16.324l79.02-45.623c7.807-4.509,20.466-4.509,28.273,0L663.7,344.989C671.508,349.5,671.508,356.806,663.7,361.314Z" transform="translate(105.622 118.367)" fill="#cdc3e2" style="mix-blend-mode: multiply;isolation: isolate"/>
    <g id="Group_13462" data-name="Group 13462" transform="translate(727.858 481.013)">
      <path id="Path_39837" data-name="Path 39837" d="M600.6,360.381c-1.859-3.311-7.012-5.577-10.821-6.322a19.939,19.939,0,0,0-13.489,1.959q-4.118,2.384-4.119,5.447v2.321c0,2.791,2.748,4.905,5.166,6.3a21.6,21.6,0,0,0,13.319,2.441c3.714-.512,8.426-2.373,10.1-5.684a4.169,4.169,0,0,0,.475-1.9v-2.326A4.565,4.565,0,0,0,600.6,360.381Zm-11.206-9.19,20.127,11.626L612,361.392v-2.326l-5.03-2.9,11.594,1.436,3.05-1.757v-2.326l-15.256-1.747c.128-4.849.105-3.418.105-6.354l-3.2,1.848c0,2.926-.011,1.42.051,6.788l-11.452-6.611-2.467,1.428ZM631.177,376.4c-14.549,9.607-36.964,11.238-54.057,6.737-8.248-2.174-17.521-6.416-22.826-13.128-5.831-7.386-5.449-15.515-.032-22.332,13.334-16.859,51.839-20.944,74.762-7.78l.027.016a32.059,32.059,0,0,1,9.316,7.711C646.5,357.9,642.343,369.029,631.177,376.4Z" transform="translate(-535.632 -318.175)" fill="#aa9bc3" style="mix-blend-mode: multiply;isolation: isolate"/>
      <g id="Group_13461" data-name="Group 13461">
        <path id="Path_39838" data-name="Path 39838" d="M545.276,351.3a32.063,32.063,0,0,0,9.343,7.721c15.75,9.044,39.188,10.053,56.613,3.97,6.707-2.342,13.735-6.179,18.143-11.743a17.792,17.792,0,0,0,4.2-11.144h.011v12.037h-.005c0,9.751-8.726,16.968-17.623,21.022-16.8,7.655-40.563,7.655-57.38-.037-8.873-4.069-17.545-11.27-17.545-20.986v-11.98h.011A18.04,18.04,0,0,0,545.276,351.3Z" transform="translate(-541.036 -313.379)" fill="#b4aad1"/>
        <path id="Path_39839" data-name="Path 39839" d="M586.937,336.785v2.327l-3.051,1.758v-2.321Z" transform="translate(-515.378 -315.365)" fill="#d6efc7"/>
        <path id="Path_39840" data-name="Path 39840" d="M588.485,338.46v2.321l-11.594-1.437-.684-.395v-2.016Z" transform="translate(-519.976 -315.276)" fill="#d6efc7"/>
        <path id="Path_39841" data-name="Path 39841" d="M580.706,340.258v2.326l-2.472,1.426v-2.327Z" transform="translate(-518.763 -313.285)" fill="#d6efc7"/>
        <path id="Path_39842" data-name="Path 39842" d="M585.771,345.5v2.327L565.645,336.2v-2.327Z" transform="translate(-526.301 -317.105)" fill="#184d47"/>
        <path id="Path_39843" data-name="Path 39843" d="M588.244,345.372,585.77,346.8l-20.125-11.626,2.467-1.426,11.452,6.611c.053.026.038.54-.053-6.79l3.2-1.848-.163,6.349c1.236.112-4.3-.494,15.313,1.752l-3.05,1.763-12.279-1.527-.067,1.974C582.565,342.092,582.961,342.32,588.244,345.372Z" transform="translate(-526.3 -318.399)" fill="#184d47"/>
        <path id="Path_39844" data-name="Path 39844" d="M591.583,351.676c-1.859-3.311-7.012-5.575-10.821-6.322a19.942,19.942,0,0,0-13.489,1.958q-4.117,2.384-4.118,5.447v2.322c0,2.793,2.75,4.9,5.166,6.3a21.6,21.6,0,0,0,13.32,2.443c3.714-.513,8.427-2.374,10.1-5.685a4.188,4.188,0,0,0,.473-1.9v-2.328A4.571,4.571,0,0,0,591.583,351.676Zm-11.2-9.19L600.5,354.114l2.474-1.428V350.36l-5.03-2.9,11.594,1.437,3.05-1.759v-2.326l-15.254-1.748c.126-4.849.1-3.418.1-6.354l-3.2,1.848c0,2.926-.011,1.42.053,6.79l-11.452-6.611-2.467,1.426Zm41.778,25.206c-14.549,9.607-36.962,11.24-54.057,6.737-8.248-2.174-17.521-6.414-22.826-13.126-5.831-7.388-5.449-15.516-.03-22.333,13.332-16.859,51.839-20.943,74.761-7.78l.027.016a32.057,32.057,0,0,1,9.316,7.711C637.476,349.195,633.324,360.324,622.156,367.693Z" transform="translate(-541.034 -323.387)" fill="#ece7f2"/>
        <path id="Path_39845" data-name="Path 39845" d="M580.36,346.266c.094-2.19-2.17-3.874-4.067-4.967-5.445-3.154-11.283-2.884-14.992-.748q-2.832,1.636-2.926,3.938c-.085,2.051,2.668,3.9,4.446,4.926,5.1,2.94,10.95,2.713,14.7.553C578.975,349.129,580.285,347.946,580.36,346.266Zm3.572-.432c0,2.315-2.094,4.272-4.12,5.444-5.8,3.343-14.092,2.991-19.774-.3-2.422-1.4-5.166-3.509-5.166-6.3q0-3.062,4.118-5.447c5.572-3.221,13.66-3.213,20.065.484C581.327,341.031,583.932,343.2,583.932,345.834Z" transform="translate(-532.751 -315.309)" fill="#184d47"/>
        <path id="Path_39846" data-name="Path 39846" d="M574.889,341.981q3.132,1.808,3.852,3.679c-1.34,3.479-9.685,6.51-17.323,2.11q-3.424-1.981-4.2-3.773C558.6,340.4,566.859,337.33,574.889,341.981Z" transform="translate(-531.348 -313.665)" fill="#ece7f2"/>
        <path id="Path_39847" data-name="Path 39847" d="M579.042,345.116a3.261,3.261,0,0,1-.209,1.416q-.719-1.871-3.851-3.679c-8.008-4.638-16.281-1.6-17.674,2.016a2.506,2.506,0,0,1-.243-1.153q.1-2.3,2.926-3.938c3.714-2.137,9.548-2.4,14.992.748Q578.871,342.77,579.042,345.116Z" transform="translate(-531.44 -314.538)" fill="#d6efc7"/>
        <path id="Path_39848" data-name="Path 39848" d="M560.038,348.055c5.639,3.266,13.932,3.668,19.774.3,2.024-1.172,4.12-3.129,4.12-5.444v2.328a4.189,4.189,0,0,1-.473,1.9c-1.672,3.306-6.379,5.172-10.1,5.685a21.6,21.6,0,0,1-13.32-2.443c-2.416-1.4-5.166-3.508-5.166-6.3v-2.321C554.872,344.546,557.614,346.656,560.038,348.055Z" transform="translate(-532.751 -312.386)" fill="#184d47"/>
      </g>
    </g>
    <g id="Group_13470" data-name="Group 13470" transform="translate(413.946 60.145)">
      <path id="Path_39849" data-name="Path 39849" d="M475.439,250.244l45.59-27.586-5.227-2.323-46.17,26.715Z" transform="translate(-269.881 35.775)" fill="#d6efc7"/>
      <path id="Path_39850" data-name="Path 39850" d="M459.456,240.437l45.59-27.586-5.227-2.323-46.17,26.715Z" transform="translate(-279.451 29.903)" fill="#d6efc7"/>
      <path id="Path_39851" data-name="Path 39851" d="M431.867,198.118l3.62,27.176L458.56,213.6Z" transform="translate(-292.493 22.472)" fill="#96bb7c"/>
      <path id="Path_39852" data-name="Path 39852" d="M425.448,153.951v76.177c2.032,1.177,45.957,26.343,45.957,26.343l17.133-9.292,1.212-75.712V116.826Z" transform="translate(-296.337 -26.205)" fill="#96bb7c"/>
      <path id="Path_39853" data-name="Path 39853" d="M470.811,84.551v.006c6.817,4.953,12.87,14.119,15.061,23.187q4.389,17.938,8.766,35.872l7.259-4.187q-4.1-16.8-8.205-33.6c-2.584-10.669-9.6-21.571-18.132-27.774l-.006-.006q-6.888-5.031-13.775-10.064l-.013-.006c-12.044-8.936-32.329-10.534-44.758-3.215l-.013.006q-15.459,8.933-30.917,17.854t-30.911,17.847l-.013.006c-6.341,3.584-10.813,9.751-10.439,16.968.339,6.595,4.592,12.327,9.877,16.135a.057.057,0,0,1,.024.024h.007q6.9,5.031,13.781,10.069c6.74,4.9,12.846,14.023,15.061,23.189v.006q5.566,22.744,11.121,45.5c-.006-.054.259-.061.307-.067a16.217,16.217,0,0,1,3.391.507c1.316.313,2.329.652,2.987.435.978-.32,1.333-1.847,1.086-2.975-.192-.783-.379-1.568-.572-2.353q-5.25-21.485-10.5-42.961c-2.589-10.7-9.623-21.595-18.132-27.779h-.006q-6.895-5.034-13.78-10.071l-.006-.006c-3.976-2.854-7.458-7.422-6.445-12.17.7-3.252,3.367-5.847,6.251-7.482h.013q15.459-8.933,30.922-17.86t30.924-17.854l.013-.006c9.418-5.551,26.193-4.525,35.979,2.745l.006.006Q463.91,79.511,470.811,84.551Z" transform="translate(-344.692 -60.145)" fill="#fad586"/>
      <path id="Path_39854" data-name="Path 39854" d="M395.185,151.792q-2.4,1.386-4.79,2.771,1.384,11.936,2.78,23.875v.006q2.734,1.576,5.479,3.162Q396.918,166.7,395.185,151.792Z" transform="translate(-317.326 -5.267)" fill="#fad586"/>
      <path id="Path_39855" data-name="Path 39855" d="M401.441,202.518q-2.816-1.631-5.642-3.252a26.546,26.546,0,0,0,6.86,12.411Q402.053,207.1,401.441,202.518Z" transform="translate(-314.09 23.159)" fill="#fad586"/>
      <path id="Path_39856" data-name="Path 39856" d="M414.012,165.979q-8.053,4.643-16.1,9.3,4.643,2.686,9.3,5.369,3.4-1.964,6.806-3.927Z" transform="translate(-312.827 3.228)" fill="#d6efc7"/>
      <path id="Path_39857" data-name="Path 39857" d="M400.612,198.286q-1.259-9.458-2.521-18.909c-1.5.868-3,1.731-4.5,2.593q1.031,8.806,2.051,17.607,2.779,1.612,5.564,3.217Q400.91,200.54,400.612,198.286Z" transform="translate(-315.41 11.25)" fill="#fad586"/>
      <path id="Path_39858" data-name="Path 39858" d="M407.666,225.466l.006.006a4.772,4.772,0,0,0,1.159,2.75c1.031,1,2.63.743,3.957.2,7.121-4.007,5.207-2.921,8.792-4.99q-7.684-4.434-15.361-8.87Q406.941,220.011,407.666,225.466Zm39.522,6.891v.7l4.278,2.469q.372,2.8.742,5.594-12.77-7.377-25.547-14.754-2.887,1.667-5.775,3.337a40.5,40.5,0,0,1-8.115,4.031,9.037,9.037,0,0,1-.922.163c-4.881.633-8.557-2.595-9.214-7.759v-.006q-1.041-7.837-2.088-15.67-.607-4.581-1.218-9.159c1.851,1.068,3.7,2.142,5.551,3.2v.006c.157,1.151.307,2.3.459,3.457a13.418,13.418,0,0,0,1.8,1.268h.006q9.756,5.638,19.52,11.271c.99-.574,1.973-1.142,2.963-1.714q2.542,1.465,5.074,2.932c-.983.568-1.973,1.14-2.962,1.708Q439.455,227.895,447.188,232.356Z" transform="translate(-311.977 24.377)" fill="#fad586"/>
      <path id="Path_39859" data-name="Path 39859" d="M401.335,209.848c.983.326,2.406-.361,3.222-.964.416-.309.827-.689.755-1.081-.03-.229-.061-.452-.091-.681q-1.756-13.207-3.511-26.417-2.779-1.6-5.553-3.2c.133,1,.267,2,.4,3q1.257,9.456,2.521,18.909.3,2.254.6,4.509c.2,1.514.4,3.022.6,4.537.006.029.006.059.013.083A1.577,1.577,0,0,0,401.335,209.848Z" transform="translate(-313.876 10.127)" fill="#fad586"/>
      <path id="Path_39860" data-name="Path 39860" d="M407.981,184.328v24.383q13.967,8.065,27.926,16.122V200.45Q421.94,192.387,407.981,184.328Z" transform="translate(-306.796 14.215)" fill="#d6efc7"/>
      <path id="Path_39861" data-name="Path 39861" d="M407.981,198.286v7.855q13.957,8.065,27.926,16.122V146.085l-27.926-16.122v68.323Z" transform="translate(-306.796 -18.338)" fill="#d6efc7"/>
      <path id="Path_39862" data-name="Path 39862" d="M407.982,143.868l27.925,16.122,64.3-37.126-27.925-16.122L464,111.527l-7.259,4.188Z" transform="translate(-306.796 -32.243)" fill="#96bb7c"/>
      <path id="Path_39863" data-name="Path 39863" d="M409.981,143.177l33.975-19.616,27.13-15.664,24.727,14.276-61.105,35.28Z" transform="translate(-305.598 -31.551)" fill="#d6efc7"/>
      <path id="Path_39864" data-name="Path 39864" d="M413.261,305.8l.006.006q3.06-1.765,6.112-3.53a6.3,6.3,0,0,0,2.245-2.329c1.551-2.678,1.4-6.51.712-9.545q-3.4-1.964-6.8-3.928l.1,6.064v.006C417.563,299,416.308,303.867,413.261,305.8Z" transform="translate(-303.634 75.377)" fill="#1a293b"/>
      <path id="Path_39865" data-name="Path 39865" d="M400.543,286.891c0,7.191,4.844,15.946,11.065,19.99,3.706,2.408,6.988,2.612,9.268,1.17,3.047-1.931,4.3-6.793,2.377-13.256l.085,5-.935.561-21.077-12.163-.089-5.485A11.868,11.868,0,0,0,400.543,286.891Z" transform="translate(-311.25 73.124)" fill="#777d7d"/>
      <path id="Path_39866" data-name="Path 39866" d="M424.373,287.494a5.144,5.144,0,0,1,3.434-1.877,2.262,2.262,0,0,1,1.02.291l.011-.024Q418.3,279.8,407.762,273.712a2.7,2.7,0,0,0-2.3.03,4.821,4.821,0,0,0-.459.206,8.853,8.853,0,0,0-4.1,7.1l.006.488.115,6.7.09,5.485,21.077,12.163-.211-12.677A8.85,8.85,0,0,1,424.373,287.494Z" transform="translate(-311.036 67.591)" fill="#184d47"/>
      <path id="Path_39867" data-name="Path 39867" d="M419.913,281.068a5.144,5.144,0,0,0-3.434,1.877,8.85,8.85,0,0,0-2.4,5.72l.211,12.677.935-.561-.085-5v-.006l-.1-6.064-.037-2.336a5.348,5.348,0,0,1,.459-1.683,6.43,6.43,0,0,1,3.223-3.4,1.929,1.929,0,0,1,1.664.048l.013.006,1.719,1a2.9,2.9,0,0,0-.627-1.575,1.835,1.835,0,0,0-.524-.4A2.263,2.263,0,0,0,419.913,281.068Z" transform="translate(-303.142 72.14)" fill="#9b346c"/>
      <path id="Path_39868" data-name="Path 39868" d="M425.448,194.412V218.8q3.048,1.755,6.1,3.517V207.541q-.7-5.2-1.388-10.408Z" transform="translate(-296.337 20.253)" fill="#96bb7c"/>
      <path id="Path_39869" data-name="Path 39869" d="M429.263,202.624V217.4c.711.411,1.418.822,2.13,1.231h.006Q430.332,210.626,429.263,202.624Z" transform="translate(-294.053 25.17)" fill="#96bb7c"/>
      <path id="Path_39870" data-name="Path 39870" d="M451.843,258.808v5.629l21.077,12.172V263.744c-1.962-1.212-3.138-3.517-3.114-6.528V257.2q.009-3.24.019-6.48-5.566-3.214-11.121-6.421a2.677,2.677,0,0,0-2.3.03,3.713,3.713,0,0,0-.44.193,8.88,8.88,0,0,0-4.122,7.023v7.259Z" transform="translate(-280.532 49.979)" fill="#184d47"/>
      <path id="Path_39871" data-name="Path 39871" d="M441.075,246.837c1.3,1.255,3.53.544,5.081-.361l.006-.006c2.419-1.394,5.382-3.108,7.663-4.424l-15.369-8.869q.734,5.449,1.455,10.9v.006A4.717,4.717,0,0,0,441.075,246.837Zm23.526-4.429q8.7,5.022,17.39,10.04H482c-.006,1.955-.013,3.9-.019,5.858q-11.54-6.669-23.078-13.327-5.1,2.95-10.2,5.888c-6.7,3.922-12.944.863-13.825-6.119v-.006q-.986-7.384-1.973-14.77-.372-2.8-.742-5.594c-.2-1.49-.4-2.975-.6-4.465q2.78,1.6,5.551,3.2c.2,1.49.4,2.975.6,4.465L464,242.758Z" transform="translate(-292.674 35.523)" fill="#fad586"/>
      <path id="Path_39872" data-name="Path 39872" d="M470.29,272.955a6.258,6.258,0,0,0,2.154-2.16c1.684-2.752,1.5-6.8.755-9.925q-3.3-1.911-6.613-3.82v6.275c1.912,6.558.561,11.439-2.6,13.268l.006,0q3.149-1.818,6.306-3.637Z" transform="translate(-273.262 57.76)" fill="#1a293b"/>
      <path id="Path_39873" data-name="Path 39873" d="M465.961,256.842a6.657,6.657,0,0,1-.935-.472v12.865l.935-.544v-11.85Z" transform="translate(-272.638 57.352)" fill="#9b346c"/>
      <path id="Path_39874" data-name="Path 39874" d="M474.129,270.54l-.935.544-21.077-12.172v-5.629a11.8,11.8,0,0,0-.731,4.3c0,7.18,4.828,15.924,11.036,19.978,3.608,2.36,6.83,2.619,9.105,1.292,3.162-1.829,4.513-6.71,2.6-13.268Z" transform="translate(-280.806 55.504)" fill="#777d7d"/>
      <path id="Path_39875" data-name="Path 39875" d="M471.12,252.862c-1.616-.935-3.241-1.871-4.857-2.806,0,1.19-.006,2.373-.006,3.56v.15a5.106,5.106,0,0,0,.126,1.074,6.244,6.244,0,0,1,2.945-2.118A2.509,2.509,0,0,1,471.12,252.862Z" transform="translate(-271.902 53.572)" fill="#d2448d"/>
      <path id="Path_39876" data-name="Path 39876" d="M470.48,252.58a1.83,1.83,0,0,0-1.49-.181,5.015,5.015,0,0,0-2.462,1.8.86.86,0,0,0,.133.161,1.072,1.072,0,0,0,.8.3,7.1,7.1,0,0,0,3.608-1.14h.006c.174-.1.35-.206.524-.3l-1.116-.646Z" transform="translate(-271.739 54.928)" fill="#e1dfea"/>
      <path id="Path_39877" data-name="Path 39877" d="M501.513,338.946a8.874,8.874,0,0,1,4.1-7.1,4.435,4.435,0,0,1,.465-.2v-.006l-.006-.006q-42.167-24.346-84.33-48.686l-1.719-1-.013-.006a1.928,1.928,0,0,0-1.664-.048,6.429,6.429,0,0,0-3.223,3.4,5.347,5.347,0,0,0-.459,1.683l.037,2.336q3.4,1.964,6.8,3.928,40.006,23.1,80.021,46.2Z" transform="translate(-302.796 72.537)" fill="#fad586"/>
      <path id="Path_39878" data-name="Path 39878" d="M463.078,260.766v-.013q.01-3.24.019-6.48,0-3.439.011-6.873c.006-1.954.013-3.9.019-5.858,0-1.14,0-2.275,0-3.415q2.535,1.465,5.07,2.926c0,1.14-.006,2.275-.006,3.415q8.833,5.106,17.667,10.2c.99-.572,1.979-1.14,2.963-1.714a22.079,22.079,0,0,0,6.264,2.251c-1.388.8-2.764,1.592-4.152,2.395q11.351,6.545,22.693,13.1h.006c1.551.911,3.789,1.617,5.081.361a4.781,4.781,0,0,0,1.164-2.739v-.006q.6-4.453,1.2-8.907.806-6.017,1.616-12.031v-.006l5.557-3.2q-1,7.377-1.984,14.754l-1.357,10.064V269c-.907,7.047-7.206,9.98-13.825,6.106l-.006-.006q-12.617-7.276-25.221-14.56-3.566,2.055-7.126,4.111c-1.02.59-2.04,1.175-3.059,1.767h-.006c-3.306,1.931-6.306,2.245-8.544,1.353a6.66,6.66,0,0,1-.935-.472C464.231,266.082,463.054,263.776,463.078,260.766Zm11.006.705q3.35-1.926,6.7-3.867l-12.6-7.276c-.006,2.293-.011,4.579-.018,6.872,0,1.19-.006,2.373-.006,3.561v.15a5.112,5.112,0,0,0,.126,1.074,2.022,2.022,0,0,0,.309.713.865.865,0,0,0,.133.161,1.073,1.073,0,0,0,.8.3,7.1,7.1,0,0,0,3.608-1.14h.006c.174-.1.35-.206.525-.3C473.8,261.634,473.945,261.556,474.084,261.471Z" transform="translate(-273.805 46.429)" fill="#fad586"/>
      <path id="Path_39879" data-name="Path 39879" d="M466.644,254.593a5.015,5.015,0,0,1,2.462-1.8,1.83,1.83,0,0,1,1.49.181v-.006l1.116.646c.139-.085.283-.163.422-.248a2.472,2.472,0,0,0-1.031-1.447l-.03-.019a2.508,2.508,0,0,0-1.792-.139,6.244,6.244,0,0,0-2.945,2.118A2.02,2.02,0,0,0,466.644,254.593Z" transform="translate(-271.854 54.533)" fill="#9b346c"/>
      <path id="Path_39880" data-name="Path 39880" d="M474.482,133.213c-.946,8.187-6.633,62.863-7.575,71.05l4.646,2.9c.718-6.214,7-64.97,7.721-71.184Q476.875,134.6,474.482,133.213Z" transform="translate(-271.512 -16.392)" fill="#fad586"/>
      <path id="Path_39881" data-name="Path 39881" d="M481.545,345.551l0,0q3.151-1.818,6.3-3.637c2.584-1.492,3.458-4.676,3.458-7.639a21.248,21.248,0,0,0-1.285-6.915A18.185,18.185,0,0,1,483.5,325.7h0l.083,4.911a21.465,21.465,0,0,1,1.431,7.307C485.008,341.882,483.6,344.374,481.545,345.551Z" transform="translate(-262.747 98.866)" fill="#1a293b"/>
      <path id="Path_39882" data-name="Path 39882" d="M469.162,323.261c-1.466,7.784,4.507,19.261,12.2,23.267a10.152,10.152,0,0,0,4.489,1.285,6.333,6.333,0,0,0,3.241-.8c2.051-1.177,3.463-3.669,3.463-7.634a21.467,21.467,0,0,0-1.431-7.307l.109,6.293-.935.561-21.075-12.17Z" transform="translate(-270.295 97.406)" fill="#777d7d"/>
      <path id="Path_39883" data-name="Path 39883" d="M528.04,389.551a18.188,18.188,0,0,0,6.523,1.666c8.187.428,14.367-5.9,14.288-16.081v-.616c.042-10.077-5.888-21.673-13.54-28.414l-.006-.006Q481,297.943,426.7,249.794c-6.4-5.629-10.536-14.939-10.506-21.643v-9.087a40.5,40.5,0,0,1-8.115,4.031,9.028,9.028,0,0,1-.922.163v4.887c-.043,9.412,5.321,21.179,13.545,28.42v-.006q54.307,48.158,108.61,96.312c6.262,5.514,10.534,14.782,10.5,21.643v.633c.024,2.643-.7,6.258-3.349,6.921a4.964,4.964,0,0,1-1.725.085,8.847,8.847,0,0,1-1.986-.453l-.013-.018a7.555,7.555,0,0,0-4.6,5.262,4.454,4.454,0,0,0-.126,1.134l.024,1.473Z" transform="translate(-307.288 35.014)" fill="#fad586"/>
      <path id="Path_39884" data-name="Path 39884" d="M489.827,321.492a2.3,2.3,0,0,0-.8-.844,2.066,2.066,0,0,0-.357-.169,2.866,2.866,0,0,0-2.058.224,6.631,6.631,0,0,0-2.7,2.388,8.545,8.545,0,0,0-1.743,4.888l.216,12.677.935-.561-.109-6.293-.083-4.911-.024-1.473a4.459,4.459,0,0,1,.126-1.133,7.555,7.555,0,0,1,4.6-5.262l.013.018A8.846,8.846,0,0,0,489.827,321.492Z" transform="translate(-262.376 95.675)" fill="#9b346c"/>
      <path id="Path_39885" data-name="Path 39885" d="M496.56,325.027a2.071,2.071,0,0,1,.357.17l0-.006q-10.542-6.082-21.075-12.17a2.71,2.71,0,0,0-2.3.024v.006a4.428,4.428,0,0,0-.465.2,8.874,8.874,0,0,0-4.1,7.1l0,.494.146,8.689.061,3.493,21.075,12.17-.216-12.677a8.544,8.544,0,0,1,1.743-4.888,6.632,6.632,0,0,1,2.7-2.389A2.866,2.866,0,0,1,496.56,325.027Z" transform="translate(-270.268 91.126)" fill="#184d47"/>
      <path id="Path_39886" data-name="Path 39886" d="M520.175,186.441a1.414,1.414,0,0,1-.289-1.014.123.123,0,0,1,0-.042c.091-.785.182-1.575.272-2.36-2.16-1.249-47.826-25.555-49.986-26.805v6.969l40.654,22.65c2.593-.035,8.053,1.169,10.606,1.512l.042-.313A1.711,1.711,0,0,1,520.175,186.441Z" transform="translate(-269.554 -2.615)" fill="#e1dfea"/>
      <path id="Path_39887" data-name="Path 39887" d="M502.238,176.278a44.458,44.458,0,0,1,11.374,2.98q-3.921-2.271-7.856-4.542l-.018.174h-.006c0,.072-.054.145-.163.217a3.02,3.02,0,0,1-.531.272,6.641,6.641,0,0,1-2.758.585Z" transform="translate(-250.356 8.459)" fill="#e1dfea"/>
      <path id="Path_39888" data-name="Path 39888" d="M506.339,188.422q1.955-16.917,3.9-33.832-2.4-1.386-4.792-2.764-1.954,16.917-3.9,33.832c-.089.785-.181,1.575-.272,2.36a.123.123,0,0,0,0,.042,1.414,1.414,0,0,0,.289,1.014,1.712,1.712,0,0,0,1.3.6,6.641,6.641,0,0,0,2.758-.585,3.023,3.023,0,0,0,.531-.272c.109-.072.163-.146.163-.217h.006Z" transform="translate(-250.94 -5.247)" fill="#fad586"/>
      <path id="Path_39889" data-name="Path 39889" d="M517.553,226.33v3.234q2.261-1.3,4.525-2.614c.163-1.17.32-2.334.476-3.5Q520.058,224.885,517.553,226.33Z" transform="translate(-241.186 37.638)" fill="#e1dfea"/>
      <path id="Path_39890" data-name="Path 39890" d="M552.449,308.01a8.893,8.893,0,0,1,4.122-7.023,3.647,3.647,0,0,1,.441-.192l-.007-.013q-39.9-23.035-79.786-46.067c-1.02.59-2.04,1.175-3.059,1.767h-.006c-3.306,1.931-6.306,2.245-8.544,1.353v.616q3.3,1.909,6.613,3.82,40.114,23.159,80.226,46.322Z" transform="translate(-272.288 56.361)" fill="#fad586"/>
      <path id="Path_39891" data-name="Path 39891" d="M530.617,221.616a24.009,24.009,0,0,1-6.16,10.33q-.3,2.209-.6,4.429,3.458-2,6.921-3.994v-.006a27.6,27.6,0,0,0,4.759-9.527v-.006q2.561-10.235,5.118-20.484-3.06,1.755-6.112,3.524Q532.581,213.754,530.617,221.616Z" transform="translate(-237.41 25.01)" fill="#fad586"/>
      <path id="Path_39892" data-name="Path 39892" d="M538.685,312.6c2.558-1.46,3.463-4.627,3.463-7.639a19.791,19.791,0,0,0-.724-5.11c-.176-.646-.374-1.285-.6-1.907a18.443,18.443,0,0,1-6.354-1.664v5.146a21.465,21.465,0,0,1,1.377,7.174c0,3.965-1.418,6.456-3.464,7.633l.006.013,6.3-3.639Z" transform="translate(-232.305 81.251)" fill="#1a293b"/>
      <path id="Path_39893" data-name="Path 39893" d="M520.012,293.888c-1.5,7.844,4.556,19.4,12.285,23.345a9.977,9.977,0,0,0,4.472,1.236,6.293,6.293,0,0,0,3.161-.8c2.047-1.177,3.465-3.668,3.465-7.633a21.465,21.465,0,0,0-1.377-7.174v6.215l-.935.537-21.07-12.164Z" transform="translate(-239.85 79.818)" fill="#777d7d"/>
      <path id="Path_39894" data-name="Path 39894" d="M503.413,248.3c14.125,12.527,35.579,31.857,49.71,44.39,6.264,5.514,10.536,14.782,10.5,21.643v.635c.024,2.667-.712,6.256-3.348,6.92a5.008,5.008,0,0,1-1.732.085,9.182,9.182,0,0,1-2.029-.47l0,.011a7.882,7.882,0,0,0-3.706,3.138,6.452,6.452,0,0,0-.983,3.174v1.533a18.442,18.442,0,0,0,6.354,1.664c.217.013.422.024.635.024,7.959.187,13.932-6.069,13.853-16.092v-.616c.054-10.221-6.023-21.788-13.54-28.414l-.006-.006q-16.392-14.535-32.77-29.053c-2.491,1.081-5.677.833-8.942-1.068a.065.065,0,0,1-.03-.011l0-.006c-1.135-.651-9.922-14.082-11.049-14.741l-2.214,1.388C503.055,242.9,504.507,247.915,503.413,248.3Z" transform="translate(-249.652 48.173)" fill="#fad586"/>
      <path id="Path_39895" data-name="Path 39895" d="M535.984,207.269a8.2,8.2,0,0,0,2.083-.6c.138-.072.385-.2.422-.344l0,0,.054-.217q3.938-15.775,7.876-31.546c-1.527-.881-3.047-1.762-4.574-2.636q-3.938,15.766-7.874,31.539c-.163.663-.333,1.321-.5,1.984h.006a1.393,1.393,0,0,0,1.146,1.816A3.725,3.725,0,0,0,535.984,207.269Z" transform="translate(-231.688 6.787)" fill="#fad586"/>
      <path id="Path_39896" data-name="Path 39896" d="M575.064,215.514a8.194,8.194,0,0,1-2.083.6,3.723,3.723,0,0,1-1.351-.006,1.393,1.393,0,0,1-1.146-1.816h-.006c.163-.664.333-1.321.5-1.984q-15.922-9.187-31.841-18.38c4,3.21-66.2-40.449-66.34-36.521,0,1.044-1.162,5.925-1.162,6.969,7.543,4.357,88.5,52.415,96.038,56.765q4.65-2.679,9.3-5.37c-.477-.272-.947-.55-1.425-.82l-.054.217,0,0C575.449,215.316,575.2,215.442,575.064,215.514Z" transform="translate(-268.684 -2.056)" fill="#fad586"/>
      <path id="Path_39897" data-name="Path 39897" d="M537.577,291.278a6.5,6.5,0,0,0-2.7,2.366,8.567,8.567,0,0,0-1.775,4.833v12.888l.935-.537V297.934a6.451,6.451,0,0,1,.983-3.174,7.883,7.883,0,0,1,3.706-3.138l0-.011a9.188,9.188,0,0,0,2.029.47,2.154,2.154,0,0,0-.791-.838,1.6,1.6,0,0,0-.35-.17A2.827,2.827,0,0,0,537.577,291.278Z" transform="translate(-231.873 78.064)" fill="#9b346c"/>
      <path id="Path_39898" data-name="Path 39898" d="M547.863,295.78q-10.545-6.082-21.077-12.17a2.663,2.663,0,0,0-2.3.03,3.66,3.66,0,0,0-.441.192,8.893,8.893,0,0,0-4.122,7.024v12.9L541,315.915V303.027a8.567,8.567,0,0,1,1.775-4.833,6.5,6.5,0,0,1,2.7-2.366,2.828,2.828,0,0,1,2.045-.2,1.607,1.607,0,0,1,.35.169Z" transform="translate(-239.765 73.515)" fill="#184d47"/>
      <path id="Path_39899" data-name="Path 39899" d="M537.517,201.926c1.84,1.062,3.674,2.123,5.516,3.185q.46-3.449.929-6.9Q540.739,200.065,537.517,201.926Z" transform="translate(-229.231 22.526)" fill="#e1dfea"/>
      <path id="Path_39900" data-name="Path 39900" d="M537.664,297.322c.224.622.422,1.261.6,1.907h.006l.03-1.883C538.086,297.346,537.881,297.335,537.664,297.322Z" transform="translate(-229.143 81.874)" fill="#9b346c"/>
      <path id="Path_39901" data-name="Path 39901" d="M540.388,227.795c1.142.711,2.747,1.292,3.56.235a1.719,1.719,0,0,0,.337-.759,1.676,1.676,0,0,0,.03-.206c.2-1.5.4-2.993.6-4.489q.914-6.751,1.821-13.515.671-4.979,1.34-9.968c.133-.966.266-1.925.393-2.891q-2.78,1.6-5.557,3.21-.463,3.449-.929,6.9-1.314,9.729-2.625,19.465c-.03.261-.067.526-.1.785h0a1.1,1.1,0,0,0,.441.718A5.112,5.112,0,0,0,540.388,227.795Z" transform="translate(-228.187 21.324)" fill="#fad586"/>
      <g id="Group_13465" data-name="Group 13465" transform="translate(142.844 126.399)">
        <g id="Group_13463" data-name="Group 13463">
          <path id="Path_39902" data-name="Path 39902" d="M494.113,146.86l-12.122,6.991c0-2.913-.018-5.826-.018-8.758C486.013,145.677,490.072,146.259,494.113,146.86Z" transform="translate(-405.334 -135.678)" fill="#fac152"/>
          <path id="Path_39903" data-name="Path 39903" d="M481.855,156.737a2.219,2.219,0,0,1,1.034-.451,1.561,1.561,0,0,1,1.389.47,2.979,2.979,0,0,1,.377,2.443A10.457,10.457,0,0,0,481.855,156.737Z" transform="translate(-405.405 -128.998)" fill="#a23042"/>
          <path id="Path_39904" data-name="Path 39904" d="M480.357,140.709c1.727,3.987,2.656,6.143,3.046,7.009,0,2.932.018,5.845.018,8.758-1.277.751-2.555,1.485-3.834,2.217C480.12,146.254,480.181,145.2,480.357,140.709Z" transform="translate(-406.763 -138.303)" fill="#fde86b"/>
          <path id="Path_39905" data-name="Path 39905" d="M482.166,160.834a1.445,1.445,0,0,1-1.522-.827,2.717,2.717,0,0,0,.7-.245A5.833,5.833,0,0,1,482.166,160.834Z" transform="translate(-406.13 -126.894)" fill="#a23042"/>
          <path id="Path_39906" data-name="Path 39906" d="M480.735,160.324a2.658,2.658,0,0,1-.243-1.09,5.346,5.346,0,0,1,.938.846A2.715,2.715,0,0,1,480.735,160.324Z" transform="translate(-406.221 -127.21)" fill="#a23042"/>
          <path id="Path_39907" data-name="Path 39907" d="M480.77,158.384c1.631-2.988,5.143-4.641,6.371-1.485a6.387,6.387,0,0,1-.357,4.079l-.019.019a9.867,9.867,0,0,0-.807-1.165c.318-1.405-.061-2.884-1.524-2.951a.539.539,0,0,0-.243.038,2.218,2.218,0,0,0-1.034.451,4.957,4.957,0,0,0-1.578,1.842,4.827,4.827,0,0,0-.6,2.462c.078,1.492.956,2.022,1.765,1.9a10.58,10.58,0,0,1,.7,1.353C480.112,166.435,478.43,162.728,480.77,158.384Z" transform="translate(-406.706 -129.63)" fill="#ef4f25"/>
          <path id="Path_39908" data-name="Path 39908" d="M504.491,140.709c-.176,4.51-.24,5.625-.771,17.985q-24.636,14.207-49.275,28.434c-.846-1.955-2.857-6.616-3.026-7.011q-6.089-.873-12.14-1.747Q471.867,159.539,504.491,140.709Z" transform="translate(-430.898 -138.303)" fill="#184d47"/>
          <path id="Path_39909" data-name="Path 39909" d="M480.3,162.686a2.81,2.81,0,0,0,1.354,2.649c-.545-.264-1.071-.545-1.616-.807a2.1,2.1,0,0,1-.6-.489c-1.391-1.7-.681-4.411.507-6.408a6.015,6.015,0,0,1,2.443-2.5,2.926,2.926,0,0,1,2.574-.225c.489.225.94.489,1.429.734-1.183-.484-3.493.249-5.019,3.044A7.95,7.95,0,0,0,480.3,162.686Z" transform="translate(-407.31 -129.929)" fill="#fa7800"/>
          <path id="Path_39910" data-name="Path 39910" d="M462.672,167.6a1.668,1.668,0,0,1,1.353.432,2.916,2.916,0,0,1,.395,2.424,13.974,13.974,0,0,0-1.015-1.071c-.817-.726-.345-.184-.564-1.277A2.251,2.251,0,0,0,462.672,167.6Z" transform="translate(-416.891 -122.21)" fill="#a23042"/>
          <path id="Path_39911" data-name="Path 39911" d="M463.6,169.386A18.37,18.37,0,0,0,462,168.024a1.923,1.923,0,0,1,1.071-.432A5.335,5.335,0,0,1,463.6,169.386Z" transform="translate(-417.292 -122.206)" fill="#a23042"/>
          <path id="Path_39912" data-name="Path 39912" d="M462.819,174.632a12.128,12.128,0,0,1,3.514,3.289c.056.075.093.15.15.225,0,0,.018,0,0,.019,4.034,5.431,5.992,17.324,10.487,20.071a4.333,4.333,0,0,0,3.25.451,12.718,12.718,0,0,0,3.252-1.3.019.019,0,0,1,.019-.019,19.277,19.277,0,0,0,2.705-1.842c11.128-8.766,12.925-29.506,6.184-34.692a5.38,5.38,0,0,1,1.917-4.1c.323-.243.206-.208.393-.114,9.513,5.757,8.907,30.395-4.923,42.19-3.623,3.09-8.931,5.876-13.475,4.36-9.035-2.823-9.727-19.887-15.655-24.262A5.5,5.5,0,0,1,462.819,174.632Z" transform="translate(-418.109 -128.814)" fill="#d6efc7"/>
          <path id="Path_39913" data-name="Path 39913" d="M462.415,172.149a1.638,1.638,0,0,1-1.636-.827,1.69,1.69,0,0,0,.751-.264A11.409,11.409,0,0,1,462.415,172.149Z" transform="translate(-418.025 -120.13)" fill="#a23042"/>
          <path id="Path_39914" data-name="Path 39914" d="M461.615,171.369a1.762,1.762,0,0,1-.751.264,2.364,2.364,0,0,1-.226-1.09A6.146,6.146,0,0,1,461.615,171.369Z" transform="translate(-418.109 -120.439)" fill="#a23042"/>
          <path id="Path_39915" data-name="Path 39915" d="M518.6,145.775c-43.54,25.122-55.4,31.984-70.55,40.743l4.21,89.211L522.808,235Zm-17.742,55.834a26.236,26.236,0,0,1-7.2,6.258,17.47,17.47,0,0,1-5.976,2.142C476.8,211.188,475,195.46,470.844,188.549a2.98,2.98,0,0,1-2.349.318,1.129,1.129,0,0,1-.264-.131l-.018.019c-.189-.1-.771-.413-1.56-.807a2.677,2.677,0,0,1-1.354-2.707,8.082,8.082,0,0,1,3.29-6.427,2.683,2.683,0,0,1,2.988-.489c.544.281,1.071.545,1.615.827l-.018.058c1.7.616,1.6,3.572.846,5.393,0,0,.018,0,0,.019,3.026,4.075,4.881,11.812,7.7,16.894,1.76,2.971,3.6,4.489,6.859,3.4,2.728-.78,7.162-3.808,10.205-8.608,5.506-8.576,6.214-19.972,3.589-25.747-1.7.772-2.189.181-4-.694a2.1,2.1,0,0,1-.6-.489c-1.391-1.7-.681-4.411.507-6.408a6.015,6.015,0,0,1,2.443-2.5,2.926,2.926,0,0,1,2.574-.225c.489.225.94.489,1.429.734a2.725,2.725,0,0,1,1.353,1.559,6.389,6.389,0,0,1-.357,4.078l-.019.019a2.031,2.031,0,0,1,.17.245C511.006,175.295,508.83,192.042,500.857,201.609Z" transform="translate(-425.647 -135.269)" fill="#184d47"/>
          <path id="Path_39916" data-name="Path 39916" d="M464.341,166.621a2.758,2.758,0,0,1,2.331.468c1.178,1.065.969,3.514.32,5.075a7.778,7.778,0,0,0-.846-1.09,2.933,2.933,0,0,0-.395-2.424,1.668,1.668,0,0,0-1.353-.432,2.426,2.426,0,0,0-1.41.7c-1.794,1.594-2.144,4.115-1.616,5.111a1.64,1.64,0,0,0,1.636.827,9.081,9.081,0,0,1,.807,1.26c-2.707,1.463-4.7-.766-3.815-3.967C460.76,168.954,462.893,166.957,464.341,166.621Z" transform="translate(-418.618 -122.832)" fill="#ef4f25"/>
          <path id="Path_39917" data-name="Path 39917" d="M462.881,168.245a8.55,8.55,0,0,0-2.312,4.246,4.963,4.963,0,0,0-.019,2.406,2.89,2.89,0,0,0,1.221,1.747l-.019.019c-.187-.1-.8-.429-1.559-.807a2.674,2.674,0,0,1-1.353-2.707,8.076,8.076,0,0,1,3.289-6.427,2.683,2.683,0,0,1,2.988-.489c.544.281,1.071.545,1.615.827l-.018.058a2.955,2.955,0,0,0-1.805-.15A4.2,4.2,0,0,0,462.881,168.245Z" transform="translate(-419.186 -123.178)" fill="#fa7800"/>
          <path id="Path_39918" data-name="Path 39918" d="M449.414,174.412l4.21,89.211L445.768,252.8V165.993Z" transform="translate(-427.013 -123.163)" fill="#184d47"/>
          <path id="Path_39919" data-name="Path 39919" d="M451.216,182.034l-14.546-2.1L507.22,139.2l3.628,8.4,14.565,2.1c-43.54,25.122-55.4,31.984-70.55,40.743Zm-10.373-2.763q6.06.875,12.14,1.747c.17.395,2.181,5.055,3.026,7.011,11.484-6.635,58.031-33.491,65.23-37.643-4.04-.6-8.1-1.183-12.14-1.767-.382-.847-.963-2.2-3.046-7.009Q473.439,160.441,440.843,179.271Z" transform="translate(-432.461 -139.204)" fill="#ffec8e"/>
          <path id="Path_39920" data-name="Path 39920" d="M452.793,166.781v86.806l-18.756-4.529,4.21-84.381Z" transform="translate(-434.037 -123.951)" fill="#184d47"/>
        </g>
      </g>
      <g id="Group_13469" data-name="Group 13469" transform="translate(191.091 184.193)">
        <g id="Group_13468" data-name="Group 13468">
          <g id="Group_13466" data-name="Group 13466">
            <path id="Path_39924" data-name="Path 39924" d="M520.836,175.353v12.89l-6.7-6.453Z" transform="translate(-434.321 -175.353)" fill="#777d7d"/>
            <path id="Path_39925" data-name="Path 39925" d="M546.234,176.026c-.427.408-5.151,4.939-5.573,5.361,0,1.792.016,3.584.016,5.378H471.81c.016-1.794.016-3.586.016-5.378q-2.787-2.688-5.573-5.361Z" transform="translate(-462.994 -174.95)" fill="#777d7d"/>
            <path id="Path_39926" data-name="Path 39926" d="M518.366,184.757h-5.557c0-1.794-.016-3.586-.016-5.378Q515.58,182.067,518.366,184.757Z" transform="translate(-435.127 -172.942)" fill="#777d7d"/>
            <path id="Path_39927" data-name="Path 39927" d="M505.9,191.771c0-.507.034-.723.034-1.074,0-1.938.089-2.13-.131-2.608a1.758,1.758,0,0,0-.521-.668C507.414,188.435,507.457,190.622,505.9,191.771Z" transform="translate(-439.625 -168.126)" fill="#e95950"/>
            <path id="Path_39928" data-name="Path 39928" d="M501.469,190.337c.026-2.342,3-4.795,6.339-3.666a4.031,4.031,0,0,1,3.031,3.7,4.127,4.127,0,0,1-2.739,3.616c0-.059.081-1.065.081-1.6a2.779,2.779,0,0,0,.9-1.09c.986-2.3-1.971-4.331-4.286-3.292h-.016c-2.024,1.012-2.286,3.1-.766,4.285,0,.163-.037,1.094-.081,1.6A3.969,3.969,0,0,1,501.469,190.337Z" transform="translate(-441.907 -168.745)" fill="#f5b538"/>
            <path id="Path_39929" data-name="Path 39929" d="M504.093,187.2a4.284,4.284,0,0,0-2.624,3.519v-.994a3.946,3.946,0,0,1,1.548-2.966,5.343,5.343,0,0,1,6.307.034,3.954,3.954,0,0,1,1.516,2.916v1.044C510.764,187.576,506.838,185.943,504.093,187.2Z" transform="translate(-441.907 -169.129)" fill="#f8e150"/>
            <path id="Path_39930" data-name="Path 39930" d="M464.215,183.415v78.237H550.73V183.415Zm68.932,8.736a4.128,4.128,0,0,1-2.737,3.616c-.452,8.109-2.771,17.145-9.012,22.228-4.819,3.855-11.041,4.822-17.078,3.666-11.954-2.544-16.028-13.794-16.752-26.1a4.122,4.122,0,0,1-2.705-3.6v-1.042a4.01,4.01,0,0,1,1.532-2.934,5.369,5.369,0,0,1,6.323,0,3.992,3.992,0,0,1,1.516,2.934v1.042a3.974,3.974,0,0,1-2.494,3.521,45.083,45.083,0,0,0,1.076,7.919c1.353,5.952,4.529,11.789,10.347,13.641a18.1,18.1,0,0,0,13.184-.7c5.847-2.923,8.344-9.623,9.4-16.1.022-.163.489-3.335.489-4.563a3.985,3.985,0,0,1-2.461-3.5v-1.044a3.946,3.946,0,0,1,1.548-2.966,5.345,5.345,0,0,1,6.307.034,3.953,3.953,0,0,1,1.516,2.916Z" transform="translate(-464.215 -170.525)" fill="#777d7d"/>
            <path id="Path_39931" data-name="Path 39931" d="M481.628,188.653a1.74,1.74,0,0,0-.718-1.385,2.873,2.873,0,0,1,1.76,2.379,2.528,2.528,0,0,1-.993,1.939C481.66,191.369,481.628,188.881,481.628,188.653Z" transform="translate(-454.218 -168.218)" fill="#e95950"/>
            <path id="Path_39932" data-name="Path 39932" d="M517.66,190.779v-.129a.933.933,0,0,1-.016.211C517.644,191.624,517.639,190.968,517.66,190.779Zm-38.882-.1c0-1.962-.094-2.106.131-2.59a1.917,1.917,0,0,1,.472-.652,3.316,3.316,0,0,1,2.819-.066,1.713,1.713,0,0,1,.718,1.418,53.044,53.044,0,0,0,1.19,12.4c1.887,8.3,6.571,14.168,15.008,14.52,8.725.513,15.7-4.05,17.926-17.681.025-.192.414-2.724.489-4.529,0-.141.081-1.126.081-1.631a2.444,2.444,0,0,1-.977-1.939c.029-1.636,2.136-3.212,4.285-2.411l.245.1a1.758,1.758,0,0,1,.521.668c.227.492.131.684.131,2.608a48.686,48.686,0,0,1-2.249,14.324c-2.764,8.295-8.459,13.869-17.241,14.6C485.513,221.192,478.777,207.327,478.777,190.682Z" transform="translate(-455.507 -168.324)" fill="#fff"/>
            <path id="Path_39933" data-name="Path 39933" d="M479.765,187.309a1.82,1.82,0,0,0-.619,1.271c0,.959,0,2.118.048,3.031h-.016C477.658,190.487,477.7,188.316,479.765,187.309Z" transform="translate(-455.891 -168.194)" fill="#e95950"/>
            <path id="Path_39934" data-name="Path 39934" d="M477.129,190.247a4.113,4.113,0,0,1,3.063-3.732c3.458-1.06,6.307,1.449,6.307,3.732a3.972,3.972,0,0,1-2.494,3.521c-.016-.342-.032-.718-.048-1.06,0-.767-.153-.3.39-.911a2.524,2.524,0,0,0,.587-1.549,2.878,2.878,0,0,0-1.76-2.379c-2.3-1.055-5.255,1.014-4.285,3.276a2.635,2.635,0,0,0,.879,1.092h.016c0,1.2.049,1.442.049,1.613A4.12,4.12,0,0,1,477.129,190.247Z" transform="translate(-456.482 -168.818)" fill="#f5b538"/>
            <path id="Path_39935" data-name="Path 39935" d="M477.129,189.587a4.01,4.01,0,0,1,1.532-2.934,4.975,4.975,0,0,1,3.161-1.026c2.913,0,4.678,2.051,4.678,3.96v1.042a4.277,4.277,0,0,0-2.576-3.536c-2.8-1.321-6.721.371-6.795,3.536Z" transform="translate(-456.482 -169.201)" fill="#f8e150"/>
            <path id="Path_39936" data-name="Path 39936" d="M471.826,179.379c0,1.792,0,3.584-.016,5.378h-5.557C472.3,178.9,471.112,180.1,471.826,179.379Z" transform="translate(-462.994 -172.942)" fill="#777d7d"/>
            <path id="Path_39937" data-name="Path 39937" d="M470.9,181.79l-6.681,6.453v-12.89Z" transform="translate(-464.215 -175.353)" fill="#777d7d"/>
            <path id="Path_39938" data-name="Path 39938" d="M467.473,187.168h79.981q-2.787-2.691-5.573-5.378c.422-.422,5.147-4.953,5.573-5.361H467.473q2.787,2.664,5.573,5.361C472.282,182.554,473.63,181.206,467.473,187.168Zm-3.258,1.074,6.681-6.453-6.681-6.437H550.73l-6.7,6.437,6.7,6.453Z" transform="translate(-464.215 -175.353)" fill="#a482f4"/>
          </g>
          <g id="Group_13467" data-name="Group 13467" transform="translate(0.001 40.88)" style="mix-blend-mode: multiply;isolation: isolate">
            <path id="Path_39939" data-name="Path 39939" d="M464.224,217.348c.019-.547.021-7.917.022-16.426V219.4C464.224,218.71,464.2,218.04,464.224,217.348Z" transform="translate(-464.215 -200.922)" fill="#c6b3eb"/>
          </g>
        </g>
      </g>
      <path id="Path_39941" data-name="Path 39941" d="M433.572,228.462c.983.326,2.408-.363,3.223-.966.307-.229.759-.609.772-.99V226.5c-.037-.254-.074-.508-.1-.761q-1.755-13.2-3.517-26.417-2.777-1.6-5.551-3.2.7,5.2,1.388,10.408,1.067,8,2.136,16,.3,2.29.609,4.581v.024A1.594,1.594,0,0,0,433.572,228.462Z" transform="translate(-294.572 21.272)" fill="#fad586"/>
      <path id="Path_39942" data-name="Path 39942" d="M468.2,244.2v-.742q.017-5.912.029-11.826.01-6.264.03-12.52c-1.688-.978-3.385-1.955-5.074-2.927q-.026,9.2-.042,18.386c-.006,1.984-.006,3.976-.013,5.96,0,1.346,0,2.692-.011,4.037h.006a1.756,1.756,0,0,0,.168.772c.452.93,1.473,1,2.456.707.822-.241,2.451-1.068,2.451-1.84Z" transform="translate(-273.779 33.292)" fill="#fad586"/>
      <path id="Path_39943" data-name="Path 39943" d="M637.717,201.192c1.527.875,3.047,1.755,4.574,2.636q10.823,6.245,21.643,12.5l.006.006a5.474,5.474,0,0,1,1.586,1.285c.309.392.278.507.278.531a.171.171,0,0,1-.013.085,2.793,2.793,0,0,1-.748.959,6.55,6.55,0,0,1-1.1.779l-.006,0-28.094,16.22q-4.653,2.688-9.3,5.37-11.305,6.535-22.615,13.057-20.692,11.945-41.381,23.894l-.011.006c-4,2.353-11.5,2.413-15.6,0l-.011-.006q-3.106-1.792-6.216-3.591l-41.819-24.146q-18.058-10.418-36.113-20.847-3.051-1.765-6.1-3.525-13.967-8.063-27.926-16.122l-6.806-3.928q-4.65-2.686-9.3-5.369h-.006q-1.873-1.086-3.748-2.166-2.741-1.585-5.479-3.162v-.006q-9.459-5.456-18.909-10.915l-.013-.006a5.633,5.633,0,0,1-1.588-1.285c-.307-.392-.277-.507-.277-.531a.267.267,0,0,1,.018-.083,2.686,2.686,0,0,1,.742-.961,6.542,6.542,0,0,1,1.1-.777l.013-.006q8.063-4.652,16.129-9.31,2.389-1.386,4.79-2.771,11.658-6.734,23.326-13.467V144.8q-22.047,12.725-44.095,25.456c.193.785.38,1.57.572,2.353.248,1.129-.107,2.656-1.086,2.975-.657.217-1.671-.122-2.987-.435a16.215,16.215,0,0,0-3.391-.507c-.048.006-.313.013-.307.067a10.81,10.81,0,0,0-4.134,8.2c0,4.242,2.8,7.772,6.529,9.882l.006.006q11.737,6.78,23.483,13.558l6.5,3.754q2.779,1.6,5.553,3.2l13.352,7.711q13.967,8.065,27.926,16.122l4.712,2.721q2.779,1.6,5.551,3.2l31.95,18.445q9.041,5.223,18.082,10.445c1.69.972,3.386,1.949,5.075,2.927q5.413,3.122,10.825,6.251l7.837,4.525c.52.3,1.039.6,1.557.9l.013.006c6.956,4.091,18.071,4.024,24.925,0l.013-.006q7.185-4.144,14.367-8.3,2.777-1.6,5.551-3.2,8.4-4.851,16.8-9.7v0q4.036-2.326,8.079-4.659V260.7l5.557-3.2q3.566-2.062,7.132-4.12,3.05-1.765,6.112-3.524v-.006q2.516-1.448,5.038-2.908,3.223-1.856,6.445-3.717,2.777-1.612,5.557-3.21l20.732-11.972.013,0c3.681-2.088,6.521-5.612,6.521-9.877,0-4.237-2.793-7.767-6.521-9.884l-.013-.006q-73.8-42.611-147.606-85.222v10.745q4.78,2.76,9.558,5.516,2.4,1.384,4.792,2.769l46.75,26.989q2.4,1.376,4.792,2.764Q612.291,186.505,637.717,201.192Z" transform="translate(-327.555 -22.483)" fill="#fad586"/>
      <path id="Path_39944" data-name="Path 39944" d="M639.5,240.633c-.814,1.057-2.419.476-3.56-.235a5.11,5.11,0,0,1-.681-.513,1.1,1.1,0,0,1-.441-.718h0c.035-.259.072-.524.1-.785q-8.907,5.151-17.806,10.282v.006q-3.468,1.99-6.921,3.994c-.2,1.54-.411,3.084-.622,4.622a1.793,1.793,0,0,1-.35.833c-.814,1.057-2.419.472-3.559-.235a5.1,5.1,0,0,1-.683-.513,1.094,1.094,0,0,1-.44-.724h-.006c.037-.259.072-.518.1-.779q-2.261,1.3-4.525,2.614-10.173,5.883-20.346,11.748c-.2,1.49-.4,2.987-.6,4.477v.006a1.036,1.036,0,0,1-.031.2,1.777,1.777,0,0,1-.337.772c-.815,1.05-2.438.476-3.56-.235-.4-.254-1.127-.779-1.127-1.249,0-.019,0-.043,0-.061.03-.235.067-.47.1-.707q-7.766,4.482-15.526,8.968l-.011,0c-3.983,2.342-11.478,2.427-15.6,0l-.013,0q-3.086-1.784-6.166-3.56l-18.722-10.813v.748c0,.772-1.629,1.6-2.451,1.84-.983.289-2,.224-2.456-.707a1.755,1.755,0,0,1-.168-.772h-.006c.006-1.345.006-2.691.011-4.037q-2.578-1.492-5.158-2.974-6.437-3.72-12.87-7.434-14.219-8.209-28.433-16.412c.03.253.067.507.1.761v.011c-.013.381-.465.761-.772.99-.815.6-2.24,1.292-3.223.966a1.594,1.594,0,0,1-1.044-1.333v-.024q-.307-2.29-.609-4.581h-.006c-.711-.409-1.418-.82-2.13-1.231q-3.05-1.755-6.1-3.517-13.967-8.055-27.926-16.122-4.914-2.842-9.834-5.677h-.006c.03.229.061.452.091.681.072.392-.339.772-.755,1.081-.815.6-2.238,1.29-3.222.964a1.577,1.577,0,0,1-1.044-1.309c-.007-.024-.007-.054-.013-.083-.2-1.516-.4-3.023-.6-4.537q-2.779-1.612-5.564-3.217-6.552-3.784-13.112-7.567l-.011,0a5.544,5.544,0,0,1-1.581-1.285c-.309-.393-.278-.507-.278-.531a.169.169,0,0,1,.013-.085,2.632,2.632,0,0,1,.748-.959,6.387,6.387,0,0,1,1.1-.779l.011-.006q5.53-3.194,11.06-6.39c1.5-.862,3-1.725,4.5-2.593-.133-1-.267-2-.4-3l-6.5-3.754q-6.652,3.839-13.305,7.682c-3.668,2.082-6.521,5.605-6.521,9.877,0,4.235,2.8,7.759,6.51,9.877l.011.006.013,0q9.612,5.549,19.224,11.1,2.823,1.628,5.642,3.252c1.851,1.068,3.7,2.142,5.551,3.2v.006q12.372,7.139,24.744,14.282,2.542,1.465,5.074,2.932,6.245,3.6,12.49,7.211c1.231.705,2.456,1.418,3.68,2.123q2.78,1.6,5.551,3.2,13.442,7.765,26.882,15.519l3.565,2.064q7.223,4.163,14.439,8.333,2.535,1.465,5.07,2.926,10.128,5.847,20.249,11.693l.013.006c.12.072.241.139.361.2a22.081,22.081,0,0,0,6.264,2.251,28.265,28.265,0,0,0,4.368.544,25.706,25.706,0,0,0,13.938-3l.011-.006q4.645-2.688,9.292-5.364v-.006l5.557-3.2q10.962-6.326,21.916-12.653c.988-.572,1.973-1.14,2.963-1.707q2.777-1.612,5.551-3.2v-.006q12.363-7.139,24.732-14.276,2.779-1.6,5.553-3.2,7.827-4.525,15.663-9.044l.011-.006c3.676-2.088,6.523-5.612,6.523-9.884,0-4.235-2.793-7.765-6.523-9.884l-.011-.006q-5.468-3.158-10.934-6.31-.669,4.986-1.34,9.968,3.82,2.2,7.634,4.4l.011,0a5.519,5.519,0,0,1,1.581,1.285c.307.393.278.513.283.531a.275.275,0,0,1-.017.085,2.652,2.652,0,0,1-.742.959,6.728,6.728,0,0,1-1.1.779l-.011.006q-4.724,2.734-9.455,5.46c-.2,1.5-.4,2.993-.6,4.489a1.619,1.619,0,0,1-.03.206A1.718,1.718,0,0,1,639.5,240.633Z" transform="translate(-323.737 8.721)" fill="#fad586"/>
      <path id="Path_39945" data-name="Path 39945" d="M502.414,249.722c1.122.711,2.745,1.285,3.56.235a1.778,1.778,0,0,0,.337-.772c.013-.066.019-.139.03-.2v-.006c.2-1.49.4-2.987.6-4.477q1.772-13.188,3.548-26.369-2.779,1.6-5.551,3.2-1.784,13.188-3.554,26.374c-.03.237-.067.472-.1.707,0,.018,0,.042,0,.061C501.287,248.943,502.016,249.467,502.414,249.722Z" transform="translate(-250.926 34.454)" fill="#fad586"/>
      <path id="Path_39946" data-name="Path 39946" d="M520.325,237.494a1.094,1.094,0,0,0,.44.724,5.108,5.108,0,0,0,.683.513c1.14.707,2.745,1.292,3.559.235a1.792,1.792,0,0,0,.35-.833c.211-1.538.417-3.082.622-4.622q.3-2.216.6-4.429,1.475-10.979,2.956-21.945l-5.557,3.2v.006q-1.54,11.432-3.078,22.863c-.157,1.17-.314,2.334-.477,3.5-.03.261-.066.52-.1.779Z" transform="translate(-239.529 27.873)" fill="#fad586"/>
      <path id="Path_39947" data-name="Path 39947" d="M516.372,261.857c3.265,1.9,6.451,2.149,8.942,1.068,2.56-1.116,4.387-3.62,4.846-7.18v-.011q1.312-9.693,2.612-19.376c.241-1.81.489-3.626.731-5.436q-2.779,1.592-5.551,3.2-1.413,10.463-2.825,20.938v.011a4.714,4.714,0,0,1-1.158,2.734c-1.3,1.255-3.53.55-5.087-.357l-.006,0c-.27-.163-13.312-10.186-13.588-10.349-1.564,1.129,9.468,11.959,7.652,12.781q1.693.986,3.4,1.96l0,.006A.064.064,0,0,0,516.372,261.857Z" transform="translate(-248.622 42.115)" fill="#fad586"/>
      <path id="Path_39948" data-name="Path 39948" d="M523.152,237.471c-.241,1.81-.489,3.626-.731,5.436q6.923,4,13.847,8h.006c6.619,3.874,12.913.947,13.818-6.1v0q1.674-12.411,3.343-24.818-2.78,1.6-5.553,3.2-1.41,10.473-2.824,20.944v0a4.713,4.713,0,0,1-1.158,2.734c-1.3,1.255-3.53.555-5.087-.357v0Q530.978,241.992,523.152,237.471Z" transform="translate(-238.271 35.566)" fill="#fad586"/>
    </g>
    <g id="Group_13471" data-name="Group 13471" transform="translate(372.498 526.434)">
      <path id="Path_39949" data-name="Path 39949" d="M408.227,427.772v-2.531c51.794-29.889,49.124-28.2,49.766-29.05a2.787,2.787,0,0,0,.579-1.514v2.56a3.036,3.036,0,0,1-1.129,2.09C457.068,399.606,461.188,397.208,408.227,427.772Z" transform="translate(-265.201 -326.121)" fill="#fad586"/>
      <path id="Path_39950" data-name="Path 39950" d="M437.411,398.165l-6.6,3.824-19.862-11.472,6.63-3.824Z" transform="translate(-263.573 -330.901)" fill="#fff"/>
      <path id="Path_39951" data-name="Path 39951" d="M421.219,388.794l-6.6,3.824-19.863-11.472,6.6-3.8Z" transform="translate(-273.269 -336.496)" fill="#fff"/>
      <path id="Path_39952" data-name="Path 39952" d="M411.3,407.028a6.255,6.255,0,0,1-3.632-.742,2,2,0,0,1-1.237-2.118c.11-.881,1.018-1.816,2.668-2.779a10.8,10.8,0,0,1,4.76-1.6,6.468,6.468,0,0,1,3.631.715,2.076,2.076,0,0,1,1.293,2.173c-.165.881-1.1,1.843-2.889,2.862A9.969,9.969,0,0,1,411.3,407.028Z" transform="translate(-266.293 -323.066)" fill="#d6efc7"/>
      <path id="Path_39953" data-name="Path 39953" d="M414.842,413.794v2.558l-17.662,10.18V424Z" transform="translate(-271.816 -314.674)" fill="#184d47"/>
      <path id="Path_39954" data-name="Path 39954" d="M338.921,369.985q60.66,35.035,121.348,70.041l-17.662,10.207q-60.66-35.035-121.292-70.068Z" transform="translate(-317.243 -340.906)" fill="#184d47"/>
      <path id="Path_39955" data-name="Path 39955" d="M408.756,406.921a6.254,6.254,0,0,0,3.633.742,9.97,9.97,0,0,0,4.593-1.485c1.789-1.018,2.724-1.981,2.889-2.862a2.076,2.076,0,0,0-1.293-2.173,6.468,6.468,0,0,0-3.631-.715,10.8,10.8,0,0,0-4.76,1.6c-1.65.963-2.558,1.9-2.668,2.779A2,2,0,0,0,408.756,406.921Zm-3.631-3.743c1.268-2.029,4.6-3.53,6.96-4.1a11.162,11.162,0,0,1,8.115.906c1.21.692,2.144,1.735,1.789,3.081l6.41-3.712,2.2,1.265-17.91,10.344-2.035-1.183c3.909-2.216.158.457-3.907-1.925C404.85,406.756,403.921,405.044,405.125,403.178Z" transform="translate(-267.382 -323.701)" fill="#184d47"/>
      <path id="Path_39956" data-name="Path 39956" d="M397.9,402.383,410.86,394.9l1.981,1.156-1.954,1.127a12.254,12.254,0,0,1,3.218-.248,3.884,3.884,0,0,1,3.385,2.283l-2.806.744c-.619-1.591-3.052-2.067-4.87-1.485-2.155.641-2.485,1.03-9.711,5.172Z" transform="translate(-271.383 -325.987)" fill="#184d47"/>
      <path id="Path_39957" data-name="Path 39957" d="M405.027,379.461l-6.63,3.824-19.835-11.472,6.6-3.824Z" transform="translate(-282.964 -342.101)" fill="#fff"/>
      <path id="Path_39958" data-name="Path 39958" d="M396.082,397.736c-1.27-.2-4.04-1.177-4.182-2.448-.109-.932,1.1-1.541,2.147-1.65,2.509-.265,4.373,1.557,8.363,2.531C400.14,397.529,398.667,398.156,396.082,397.736Z" transform="translate(-274.982 -326.759)" fill="#d6efc7"/>
      <path id="Path_39959" data-name="Path 39959" d="M396.787,395.507c-2.731-.576-5.4,1.265-2.365,3.026a8.651,8.651,0,0,0,5.8.963,12.73,12.73,0,0,0,3.357-1.54C400.79,397.275,398.229,395.8,396.787,395.507Zm-6.849,1.237c-.109-1.687,1.991-2.678,3.687-2.971,4.5-.75,7.3,2.021,11.663,3.191.679-.369,1.918-.994,1.871-1.787-.19-1.4-3.164-2.75-4.593-2.889a8.117,8.117,0,0,0-3.027.5l-1.843-1.4a9.783,9.783,0,0,1,6.438-.385c1.757.5,4.745,1.954,5.693,3.218.771.964.817,1.724-.246,2.724-1.111.908-6.72,3.829-8.584,5.255a3.45,3.45,0,0,0-1.017,1.21l-2.285-1.321a3.6,3.6,0,0,1,1.156-1.183,14.141,14.141,0,0,1-6.657-1.679C390.762,398.4,390.019,397.571,389.938,396.744Z" transform="translate(-276.155 -328.546)" fill="#184d47"/>
      <path id="Path_39960" data-name="Path 39960" d="M385.107,385.569a18.517,18.517,0,0,1,12.159-2.283c5.765,1.014,11.374,4.763,7.263,8.969l-2.862-1.018c1.592-1.791,1.538-3.423-1.046-4.924a11.91,11.91,0,0,0-9.051-1.018c-2.556.758-5.821,2.371-7.318,4.347-1.433,1.947-.3,3.74,1.706,4.924a11.453,11.453,0,0,0,9.794.385l1.787,1.706a15.985,15.985,0,0,1-13.4-.827c-1.925-1.1-3.108-2.227-3.521-3.383C379.568,389.679,382.545,387.057,385.107,385.569Z" transform="translate(-281.861 -333.078)" fill="#184d47"/>
      <path id="Path_39961" data-name="Path 39961" d="M388.846,370.09l-6.63,3.824-19.862-11.444,6.63-3.824Z" transform="translate(-292.67 -347.696)" fill="#fff"/>
      <path id="Path_39962" data-name="Path 39962" d="M502.2,417.795c.87.515,1.973,1.615,1.816,2.558a3.2,3.2,0,0,1-1.816,2.56l-48.528,28q-60.66-35.035-121.348-70.041c52.864-30.538,48.934-28.458,50.674-28.831a9.862,9.862,0,0,1,6.685.8Zm-44.181-6.382,19.862,11.471,6.6-3.824-19.836-11.471ZM451.2,428.827c-4.4,2.566-4.095,5.439-1.183,7.126,4.051,2.373,7.8-.28,3.907,1.925l2.035,1.183,17.91-10.344-2.2-1.265-6.41,3.712C466.121,427.88,458.53,424.615,451.2,428.827Zm-1.073-8.115-12.957,7.482,2.2,1.266c7.329-4.2,7.593-4.542,9.711-5.172,1.85-.593,4.259-.086,4.87,1.485l2.806-.743a3.884,3.884,0,0,0-3.385-2.283,12.248,12.248,0,0,0-3.218.248l1.954-1.127Zm-17.991-24.265L452,407.919l6.6-3.824-19.863-11.444Zm-6.19,21.321c-2.078,1.225-2.221,2.995.743,4.7a14.179,14.179,0,0,0,6.657,1.679,3.6,3.6,0,0,0-1.156,1.183l2.285,1.321c.54-1.082,1.468-1.628,4.731-3.549.881-.491,4.083-2.273,4.87-2.916,1.065-1,1.017-1.762.246-2.724-.966-1.287-3.963-2.723-5.693-3.218a9.789,9.789,0,0,0-6.438.385l1.844,1.4a8.118,8.118,0,0,1,3.026-.5c1.428.138,4.4,1.487,4.593,2.889.048.8-1.218,1.432-1.871,1.787-2.44-.654-5.089-2.123-6.959-2.779C429.813,416.546,427.506,416.885,425.944,417.768Zm.385-2.393-1.787-1.706a11.455,11.455,0,0,1-9.794-.385c-2-1.177-3.146-2.966-1.706-4.924,1.488-1.965,4.732-3.58,7.318-4.347a11.914,11.914,0,0,1,9.051,1.018c2.572,1.495,2.648,3.122,1.046,4.924l2.862,1.018c4.114-4.21-1.511-7.959-7.263-8.969a18.517,18.517,0,0,0-12.159,2.283c-2.563,1.488-5.54,4.11-4.485,6.878.412,1.156,1.6,2.283,3.521,3.383A15.985,15.985,0,0,0,426.329,415.374Zm-34.113-34.03c-.387-1.293-1.653-1.923-2.777-2.56-2.323-1.289-3.188-1.907-6.686-3.851-1.237-.687-2.475-1.375-3.714-2.117a16.855,16.855,0,0,0-3.025-1.624,10.4,10.4,0,0,0-5.091-.357c-2.341.513-4.609,1.986-6.878,3.41-2.958,1.85-2.95,1.711-4.483,2.587-2.259,1.389-2.283,3.153-.8,4.539.67.569,10.311,5.957,12.215,7.124,2.162,1.261,3,1.927,5.556,2.091,4.827.3,7.5-2.68,12.765-5.5,1.034-.516,2.438-1.2,2.862-2.477A2.194,2.194,0,0,0,392.216,381.344Zm7.978-3.329,6.63-3.824-19.862-11.444-6.63,3.823Zm32.518,11.14L412.85,377.685l-6.6,3.824,19.835,11.471Z" transform="translate(-310.649 -351.797)" fill="#fad586"/>
      <path id="Path_39963" data-name="Path 39963" d="M357.744,379.309c-6.394-3.695-5.6-3.292-6.686-3.88-1.132-.592-2.428-1.271-2.75-2.558a2.344,2.344,0,0,1,.715-2.337,9.362,9.362,0,0,1,2.174-1.4c5.161-2.7,7.911-5.815,12.765-5.5,2.445.158,3.521.875,5.556,2.12,1.258.753,11.375,6.41,12.215,7.124a2.4,2.4,0,0,1,.908,2.668c-.417,1.25-1.794,1.943-2.862,2.477-5.241,2.812-7.935,5.8-12.765,5.5C363.989,383.322,363.835,382.692,357.744,379.309Z" transform="translate(-301.128 -344.727)" fill="#fff"/>
      <path id="Path_39964" data-name="Path 39964" d="M320.609,382.734c-2.576-1.516-2.32-3.848,0-5.09l2.2-1.292c.277,0-1.3-.753,121.321,70.068l-2.2,1.265a9.818,9.818,0,0,1-6.712.8C433.405,448.082,441.009,452.253,320.609,382.734Z" transform="translate(-318.766 -337.094)" fill="#fad586"/>
      <path id="Path_39965" data-name="Path 39965" d="M318.768,381.3v-2.56a2.641,2.641,0,0,0,.577,1.514c.614.819-6.737-3.577,113.755,66a9.817,9.817,0,0,0,6.712.8c1.575-.349,2.158-.82,4.32-2.062v2.531l-2.2,1.265a9.682,9.682,0,0,1-6.712.827c-1.708-.381,5.632,3.65-114.607-65.777A3.083,3.083,0,0,1,318.768,381.3Z" transform="translate(-318.768 -335.662)" fill="#fad586"/>
    </g>
  </g>
</svg>
