<svg xmlns="http://www.w3.org/2000/svg" width="32.914" height="29.613" viewBox="0 0 32.914 29.613">
  <path id="Icon_awesome-leaf" data-name="Icon awesome-leaf" d="M28.267.5A.805.805,0,0,0,26.8.439a8.874,8.874,0,0,1-7.757,4.528h-4.14A9.939,9.939,0,0,0,4.969,14.9a10.232,10.232,0,0,0,.078,1.061,24.759,24.759,0,0,1,14.826-4.373.828.828,0,1,1,0,1.656c-13.01,0-18.527,7.975-19.748,10.971a1.658,1.658,0,0,0,3.069,1.258,13.615,13.615,0,0,1,3.721-4.689,9.914,9.914,0,0,0,9.051,4c8.125-.59,13.843-7.876,13.843-16.8A18.819,18.819,0,0,0,28.267.5Z" transform="translate(1.604 1.502)" fill="none" stroke="#184d47" stroke-width="3"/>
</svg>
