<?xml version="1.0" standalone="no"?>
<!DOCTYPE svg PUBLIC "-//W3C//DTD SVG 20010904//EN"
 "http://www.w3.org/TR/2001/REC-SVG-20010904/DTD/svg10.dtd">
<svg version="1.0" xmlns="http://www.w3.org/2000/svg"
 width="500.000000pt" height="252.000000pt" viewBox="0 0 500.000000 252.000000"
 preserveAspectRatio="xMidYMid meet">

<g transform="translate(0.000000,252.000000) scale(0.100000,-0.100000)"
fill="#000000" stroke="none">
<path d="M2875 2211 c-3 -5 -1 -12 5 -16 5 -3 10 1 10 9 0 18 -6 21 -15 7z"/>
<path d="M3565 2040 c-9 -27 -24 -59 -33 -72 -42 -57 -43 -64 -13 -92 l28 -27
22 27 c11 14 30 58 42 97 11 38 23 75 25 82 3 7 -7 17 -25 23 -30 10 -30 10
-46 -38z"/>
<path d="M2960 2071 c0 -10 42 -23 49 -15 7 6 -20 24 -36 24 -7 0 -13 -4 -13
-9z"/>
<path d="M4270 2066 c0 -2 8 -10 18 -17 15 -13 16 -12 3 4 -13 16 -21 21 -21
13z"/>
<path d="M2212 2035 c0 -16 2 -22 5 -12 2 9 2 23 0 30 -3 6 -5 -1 -5 -18z"/>
<path d="M3929 2033 c-28 -24 -30 -30 -24 -67 6 -43 25 -74 25 -42 0 9 4 15 8
12 4 -2 14 -1 22 5 11 6 8 9 -12 9 -21 0 -28 5 -28 19 0 25 20 40 56 43 39 3
50 -5 59 -44 l9 -33 3 33 c5 39 -14 66 -58 81 -25 8 -33 6 -60 -16z"/>
<path d="M4218 2038 c-2 -31 1 -60 8 -78 4 -11 9 -8 21 13 13 26 13 30 -3 41
-9 7 -14 18 -10 24 3 6 2 13 -4 17 -5 3 -11 -4 -12 -17z"/>
<path d="M2930 2040 c0 -5 5 -10 10 -10 6 0 10 5 10 10 0 6 -4 10 -10 10 -5 0
-10 -4 -10 -10z"/>
<path d="M2330 2033 c0 -5 4 -14 9 -21 7 -11 9 -11 14 1 3 8 3 18 0 21 -9 8
-23 7 -23 -1z"/>
<path d="M3640 1985 c-17 -20 3 -86 39 -128 l25 -29 13 38 c12 35 9 134 -5
134 -2 0 -10 -7 -17 -17 -13 -17 -51 -11 -40 7 10 15 -1 12 -15 -5z"/>
<path d="M2998 1943 c-15 -32 -15 -38 -2 -58 22 -33 44 -39 44 -13 0 21 0 21
15 2 8 -10 15 -27 15 -36 0 -17 127 -148 143 -148 4 0 3 -9 -3 -19 -5 -11 -10
-28 -9 -38 0 -10 3 -13 6 -5 2 6 9 10 14 6 5 -3 9 0 9 5 0 6 -6 11 -12 11 -10
0 -10 2 0 9 8 4 12 19 10 32 -2 20 1 24 24 24 14 -1 24 3 22 7 -3 4 -14 8 -25
8 -14 0 -18 4 -12 13 18 27 30 77 21 83 -5 3 -1 15 9 26 18 20 17 21 -6 13
-13 -4 -21 -3 -18 1 2 5 1 19 -4 31 -6 16 -13 21 -25 16 -12 -4 -15 -3 -10 5
4 7 2 12 -3 12 -17 0 -13 21 7 37 15 13 14 13 -7 1 -41 -24 -47 -41 -30 -95 8
-26 21 -48 27 -48 15 0 33 -26 25 -38 -2 -4 -11 -3 -19 4 -8 6 -24 12 -36 13
-21 1 -57 42 -116 133 -15 23 -29 42 -32 42 -3 0 -13 -16 -22 -36z m235 -75
c7 -25 3 -33 -12 -23 -13 8 -15 45 -2 45 5 0 11 -10 14 -22z"/>
<path d="M2195 1960 c4 -6 11 -8 16 -5 14 9 11 15 -7 15 -8 0 -12 -5 -9 -10z"/>
<path d="M2593 1947 c-24 -23 -28 -53 -16 -97 6 -22 9 -19 18 25 l11 50 45 0
c43 0 44 -1 53 -37 13 -52 30 -49 22 5 -9 52 -21 65 -71 71 -33 5 -44 2 -62
-17z"/>
<path d="M4288 1940 c-4 -14 -8 -34 -8 -45 1 -19 1 -19 11 -2 6 10 9 30 7 45
l-3 27 -7 -25z"/>
<path d="M2128 1873 c-25 -43 -49 -89 -53 -103 -11 -34 -48 -77 -63 -72 -7 2
-12 -1 -12 -8 0 -6 5 -8 10 -5 17 11 23 -24 7 -40 -9 -8 -19 -15 -24 -15 -5 0
-9 -8 -9 -17 -1 -10 -4 -25 -8 -34 -5 -11 2 -26 18 -44 31 -33 43 -88 28 -127
-8 -22 -7 -35 4 -56 7 -16 18 -58 23 -93 10 -71 1 -89 -47 -89 -20 0 -23 4
-18 28 5 27 9 136 7 203 -1 33 -7 41 -49 68 -69 44 -116 105 -108 139 l6 27
-21 -25 c-29 -34 -46 -34 -46 1 0 34 -9 47 -23 33 -11 -11 8 -74 22 -74 15 0
8 -29 -12 -48 -17 -16 -21 -35 -25 -118 -4 -102 -12 -195 -18 -200 -1 -2 -21
-7 -43 -12 l-40 -9 7 56 c3 31 3 65 0 76 -4 11 -6 36 -5 55 0 19 -4 41 -10 49
-8 11 -8 13 2 7 8 -5 12 -1 12 11 0 11 6 25 13 33 10 12 9 12 -5 1 -19 -14
-20 -12 -22 69 -1 18 -7 26 -24 28 -18 3 -21 8 -16 27 3 12 1 26 -5 29 -6 4
-11 0 -11 -9 0 -11 -5 -15 -15 -11 -50 20 -48 20 -36 -2 6 -12 20 -26 31 -32
11 -6 20 -17 20 -25 0 -8 4 -15 9 -15 5 0 3 -26 -3 -57 -7 -32 -11 -72 -9 -90
2 -17 -1 -34 -7 -38 -5 -3 -10 -28 -10 -55 0 -61 -7 -80 -31 -80 -32 0 -41 46
-41 220 -1 177 -7 179 -28 5 -9 -75 -10 -125 -3 -155 11 -53 7 -80 -12 -80
-20 0 -30 -21 -14 -31 8 -5 9 -9 3 -9 -6 0 -17 7 -24 15 -7 8 -21 15 -31 15
-26 0 -24 -40 4 -110 l22 -55 -44 -132 c-24 -73 -47 -133 -51 -133 -11 0 -19
37 -10 47 4 4 17 41 28 82 20 73 20 75 1 240 -19 167 -27 209 -28 159 -1 -17
-7 -28 -15 -28 -11 0 -14 -25 -15 -125 -1 -116 -16 -304 -26 -313 -2 -3 -10 8
-17 24 -7 16 -22 43 -34 59 -11 17 -33 66 -49 110 -15 44 -36 92 -46 107 -11
14 -19 34 -19 43 0 15 -22 62 -79 170 -11 20 -16 53 -15 104 l2 74 45 38 c79
68 90 95 85 204 -4 97 -12 123 -29 92 -8 -13 -14 -15 -29 -7 -10 5 -21 10 -25
10 -3 0 -3 -33 1 -73 6 -73 6 -74 -26 -110 -34 -40 -59 -46 -84 -22 -8 8 -19
15 -24 15 -12 0 -36 -29 -38 -44 -3 -30 -18 -55 -39 -64 -29 -14 -39 -68 -30
-163 l7 -71 -28 15 c-16 8 -40 27 -53 41 -21 23 -23 29 -13 66 9 35 8 42 -7
50 -12 6 -22 5 -28 -1 -14 -14 -10 53 5 96 24 70 22 103 -8 135 -32 34 -59 38
-101 13 -30 -18 -69 -84 -69 -118 0 -10 -15 -33 -32 -51 -47 -46 -67 -72 -62
-76 7 -8 43 -156 48 -199 3 -23 8 -44 11 -47 11 -11 3 85 -10 123 -8 22 -15
47 -14 55 0 8 9 -10 19 -40 23 -62 26 -121 8 -150 -16 -25 -4 -36 25 -22 30
16 167 42 167 31 0 -4 -4 -11 -10 -14 -5 -3 -10 -14 -10 -24 0 -10 -7 -32 -15
-47 -12 -24 -20 -28 -45 -26 -19 2 -30 -1 -30 -9 0 -9 -4 -8 -12 3 -7 9 -24
19 -38 23 -14 4 -22 4 -18 0 3 -4 0 -25 -8 -47 -21 -60 -19 -68 20 -68 19 0
41 -3 50 -6 14 -6 14 -9 -1 -35 -16 -27 -10 -57 6 -30 6 9 11 10 15 2 4 -6 19
-9 33 -7 15 3 32 -1 41 -10 13 -14 9 -15 -44 -10 -33 3 -91 8 -130 11 l-71 6
-7 -31 c-3 -17 -11 -83 -17 -146 -11 -108 -11 -116 7 -132 10 -10 33 -18 49
-18 26 1 30 -2 27 -23 -2 -15 0 -21 7 -17 6 4 11 3 11 -2 0 -19 -33 -22 -57
-6 -14 8 -27 13 -30 11 -11 -11 -33 -130 -27 -151 4 -17 -1 -27 -20 -40 -14
-9 -26 -21 -26 -26 0 -5 20 -22 44 -38 l44 -30 22 23 c12 12 20 29 19 36 -2 8
2 30 9 50 l12 35 80 -39 c58 -29 86 -38 105 -33 21 5 25 11 19 29 -5 17 -4 19
6 10 9 -9 10 -19 0 -47 -6 -20 -9 -40 -5 -46 9 -14 32 -13 38 3 3 9 11 9 38 0
47 -18 59 -3 34 43 -10 20 -18 49 -17 65 1 16 -2 38 -8 49 -6 12 -6 20 0 22 5
2 12 26 15 53 l6 50 -20 -37 c-29 -51 -41 -55 -39 -15 1 19 -2 39 -6 45 -5 8
2 12 22 12 27 0 30 3 35 43 15 113 27 171 35 179 12 12 31 -117 31 -207 -1
-67 7 -362 10 -377 0 -4 9 -5 19 -2 14 5 14 4 2 -4 -8 -6 -17 -9 -21 -6 -4 2
-12 -3 -19 -10 -6 -8 -25 -18 -43 -22 -29 -6 -30 -7 -12 -20 28 -21 72 -18 85
6 13 24 30 26 30 5 0 -9 9 -15 25 -15 21 0 25 5 25 28 0 48 11 72 33 72 20 0
20 3 13 177 -4 108 -4 174 2 168 15 -16 102 -219 102 -236 0 -9 9 -19 20 -22
15 -4 20 0 20 15 0 10 4 16 10 13 5 -3 25 -3 44 1 27 4 37 13 45 36 9 25 14
28 33 23 13 -4 23 -8 24 -9 0 0 8 -13 17 -28 14 -22 15 -36 7 -79 -6 -28 -10
-53 -10 -55 0 -2 -7 -4 -15 -4 -8 0 -15 -9 -15 -20 0 -40 103 -18 114 24 3 11
21 31 40 44 47 32 51 60 21 131 l-25 59 19 44 c10 24 22 73 26 110 l6 67 66
31 c50 24 68 29 73 19 15 -23 21 -164 11 -229 -14 -82 -14 -177 -1 -185 6 -3
10 -17 10 -31 0 -15 6 -24 15 -24 8 0 15 -6 15 -14 0 -16 30 -26 82 -26 l37 0
-25 25 c-15 15 -36 25 -53 25 -20 0 -31 7 -39 26 -9 19 -9 24 -1 18 9 -5 10 0
6 15 -3 13 -3 20 0 17 4 -3 12 -1 19 5 9 7 14 2 19 -21 16 -72 101 -53 118 26
5 21 14 48 20 59 7 12 12 68 13 136 0 63 3 119 6 125 3 5 9 24 13 42 10 48 29
62 87 62 l50 0 -5 -150 c-4 -100 -2 -150 5 -150 7 0 8 -12 3 -32 -11 -50 -11
-83 0 -83 6 0 11 5 11 10 4 27 7 28 13 5 6 -22 9 -19 20 28 7 29 18 51 25 50
6 -1 26 6 44 15 25 14 32 24 32 47 0 17 -5 39 -12 50 -10 16 -8 27 10 65 23
48 28 90 12 115 -8 13 -10 12 -10 -2 0 -24 -15 -23 -40 2 -25 25 -17 44 16 37
29 -5 31 10 9 93 -9 36 -12 67 -7 80 18 48 125 -270 138 -408 6 -67 8 -72 34
-65 26 7 27 -25 1 -100 -40 -115 -126 -197 -189 -180 -30 7 -28 -11 4 -32 20
-13 45 -16 112 -15 129 3 139 6 146 41 l6 31 30 -22 c34 -24 95 -25 95 -1 0 8
-6 16 -14 19 -8 3 -11 0 -7 -7 5 -7 -2 -11 -21 -10 -17 1 -21 3 -10 6 26 7 20
26 -7 21 -19 -4 -22 -1 -19 13 5 18 19 19 53 6 25 -9 143 -27 149 -22 2 3 -6
16 -18 29 -26 27 -15 42 25 32 l24 -7 -15 36 c-8 19 -22 51 -30 71 -17 39 -10
58 26 69 19 6 20 14 15 138 -3 73 -5 164 -6 202 -1 50 -4 64 -10 49 -5 -12
-20 -24 -34 -26 -14 -3 -23 -1 -20 3 3 5 1 9 -5 9 -7 0 -7 8 -1 26 14 36 13
39 -10 19 -28 -25 -25 -5 4 26 13 14 29 35 36 48 10 19 17 22 43 17 17 -3 32
-8 34 -10 2 -2 10 -77 19 -167 8 -90 19 -180 24 -199 6 -19 10 -60 10 -90 0
-53 2 -56 30 -67 l31 -11 -21 -34 c-20 -34 -26 -63 -12 -71 4 -2 2 -3 -4 -1
-15 3 -36 -44 -27 -59 4 -7 8 -18 8 -26 0 -8 14 -18 30 -23 23 -6 33 -4 43 9
10 15 10 19 -5 25 -10 3 -13 7 -8 7 6 1 11 36 12 79 2 42 7 86 12 97 16 38 31
120 27 153 -2 17 1 32 6 32 5 0 2 10 -6 22 -23 33 -20 45 14 51 28 6 29 7 16
33 -12 23 -12 33 6 85 16 47 17 63 8 74 -10 11 -8 18 6 32 10 10 19 17 21 16
1 -1 12 1 24 4 16 4 17 8 7 14 -11 7 -11 9 0 9 26 0 -19 33 -48 35 -25 2 -28
-1 -28 -29 1 -32 -5 -70 -15 -96 -11 -31 -26 -141 -21 -158 5 -16 5 -16 -5 0
-6 9 -14 66 -18 126 l-6 109 -33 12 c-19 7 -34 16 -34 22 0 5 9 71 19 146 11
76 22 183 26 238 6 99 6 101 -19 124 -22 21 -26 22 -26 7 0 -9 6 -27 14 -39 7
-12 12 -33 11 -47 -1 -14 -2 -44 -3 -67 -1 -24 -7 -43 -13 -43 -7 0 -8 16 -3
45 7 49 -14 123 -42 145 -7 7 -14 29 -14 49 l1 36 17 -27 c26 -43 35 -33 10
11 -12 22 -26 38 -29 35 -4 -2 -10 3 -13 12 -8 22 -8 26 4 19 14 -9 12 8 -4
30 -17 24 -52 13 -40 -13 4 -9 9 -34 12 -54 5 -43 -9 -50 -32 -17 -14 21 -15
20 -42 -32 -74 -145 -97 -201 -115 -284 -10 -49 -19 -100 -19 -113 0 -17 -5
-22 -17 -20 -14 3 -18 13 -16 42 1 21 5 45 9 54 8 20 10 29 12 59 1 12 8 28
15 35 6 7 12 33 13 58 1 24 5 45 11 47 5 2 8 16 5 32 -2 15 2 34 10 42 11 12
14 35 9 71 -1 4 -12 3 -26 -2 -25 -10 -30 -4 -26 28 1 8 -5 22 -14 32 -9 10
-14 23 -10 29 3 6 -14 32 -40 57 -25 26 -48 57 -51 70 -3 13 -10 24 -15 24 -5
0 -9 7 -9 15 0 19 -5 19 -35 -1 -13 -9 -29 -13 -35 -9 -37 23 47 -139 104
-200 l47 -50 -30 -82 c-54 -146 -89 -247 -107 -305 -17 -58 -17 -58 -56 -58
-53 0 -110 24 -102 44 3 8 -2 50 -11 93 -14 66 -20 119 -25 245 -1 10 16 45
36 79 l38 61 19 -26 c11 -15 28 -26 40 -25 l22 0 -22 11 c-31 15 -46 63 -32
105 6 18 15 33 20 33 6 0 8 4 4 10 -8 13 44 112 55 105 6 -3 10 1 10 10 0 9
-4 14 -9 11 -4 -3 -17 1 -27 9 -10 8 -22 15 -25 15 -4 0 -27 -35 -51 -77z
m-1498 -161 l23 -19 -18 -50 c-10 -27 -23 -50 -29 -51 -6 -1 -25 -4 -42 -8
-61 -12 -68 55 -13 114 35 37 48 39 79 14z m1767 -24 c-3 -8 -6 -5 -6 6 -1 11
2 17 5 13 3 -3 4 -12 1 -19z m73 -90 c0 -2 -27 -84 -60 -183 -33 -99 -57 -160
-54 -135 8 59 94 320 105 320 5 0 9 -1 9 -2z m-1935 -88 c4 -6 11 -7 17 -4 7
4 8 2 4 -4 -5 -9 -13 -9 -27 -2 -10 6 -19 13 -19 15 0 9 19 5 25 -5z m1295
-176 c0 -8 -5 -12 -10 -9 -6 4 -8 11 -5 16 9 14 15 11 15 -7z m-18 -89 c-2
-14 -6 -25 -8 -25 -2 0 -4 11 -4 25 0 14 4 25 9 25 4 0 6 -11 3 -25z m533 -86
c4 -15 2 -45 -4 -66 -6 -21 -11 -72 -11 -113 0 -108 -19 -76 -27 46 -4 67 -10
102 -19 107 -8 4 -14 19 -14 32 0 20 5 23 35 22 29 -1 35 -5 40 -28z m-1593
-36 c15 -33 20 -67 20 -120 0 -41 -2 -77 -5 -79 -3 -3 -28 -2 -56 2 -41 5 -49
9 -40 20 6 7 8 17 5 23 -3 5 -2 21 3 34 7 18 7 27 -2 30 -7 3 0 8 16 12 15 4
27 11 27 15 0 5 -13 5 -30 0 -28 -8 -29 -7 -19 12 6 11 20 23 31 26 14 3 16 7
7 13 -10 6 -10 13 -1 33 6 14 14 26 17 26 4 0 15 -21 27 -47z m-238 -25 c-3
-4 -11 -5 -19 -1 -21 7 -19 12 4 10 11 0 18 -5 15 -9z m21 -48 l30 -8 -35 0
c-19 0 -44 3 -55 8 -18 8 -18 9 5 8 14 0 39 -4 55 -8z m38 -40 c-8 -30 -21
-34 -15 -5 2 14 8 25 12 25 5 0 6 -9 3 -20z m1204 -85 c1 -33 0 -36 -7 -15 -7
22 -8 22 -10 5 -2 -17 -3 -16 -10 5 -13 40 -11 52 8 48 12 -2 18 -14 19 -43z
m-1289 -2 c-10 -2 -26 -2 -35 0 -10 3 -2 5 17 5 19 0 27 -2 18 -5z m631 -243
c0 -30 -3 -63 -7 -72 -6 -16 -9 -15 -32 2 -20 16 -22 20 -7 20 29 0 22 48 -8
56 -30 7 -32 20 -5 27 20 5 28 27 10 27 -5 0 -10 12 -10 26 0 18 -12 37 -35
58 -27 24 -34 36 -29 53 5 19 14 12 65 -60 55 -77 59 -85 58 -137z m1404 95
c4 -61 3 -67 -9 -50 -14 19 -19 81 -8 110 9 23 11 18 17 -60z m-985 45 c-14
-22 -24 -19 -15 5 4 8 11 15 17 15 6 0 6 -7 -2 -20z m567 -45 c2 -14 -1 -25
-6 -25 -5 0 -9 14 -9 32 0 36 11 31 15 -7z m-595 15 c0 -5 -5 -10 -11 -10 -5
0 -7 5 -4 10 3 6 8 10 11 10 2 0 4 -4 4 -10z m232 -42 c-7 -7 -12 -8 -12 -2 0
14 12 26 19 19 2 -3 -1 -11 -7 -17z m16 -87 c-13 -36 -19 -79 -19 -122 1 -41
-5 -80 -15 -105 -19 -44 -21 -42 -27 38 -2 39 0 55 7 51 6 -4 4 2 -4 12 -14
17 -13 18 2 13 10 -4 19 -1 22 8 3 9 1 12 -4 9 -12 -8 -13 7 -1 21 16 17 30
94 18 101 -6 4 -7 1 -2 -8 7 -11 6 -12 -7 -2 -8 7 -18 11 -21 8 -4 -3 -4 -2
-1 3 3 4 10 8 15 8 5 1 13 2 18 3 5 0 11 11 15 24 5 17 8 19 15 8 6 -9 2 -34
-11 -70z m-1166 -41 c24 0 27 -3 19 -22 -4 -13 -6 -28 -4 -33 2 -6 -6 -21 -18
-34 -12 -12 -19 -30 -16 -41 8 -30 -33 -45 -77 -29 -40 14 -40 16 -25 91 16
83 15 81 57 74 20 -3 49 -6 64 -6z m1867 -170 c37 -88 37 -90 11 -90 -11 0
-20 -5 -20 -11 0 -5 -8 -9 -17 -7 -10 1 -24 -1 -31 -6 -7 -4 -15 -6 -17 -5 -3
4 17 123 30 178 7 29 6 31 44 -59z m-1039 -13 c0 -22 -29 -34 -40 -17 -11 17
22 63 32 46 4 -6 8 -19 8 -29z m227 -9 c-3 -8 -6 -5 -6 6 -1 11 2 17 5 13 3
-3 4 -12 1 -19z"/>
<path d="M555 1680 c3 -5 8 -10 11 -10 2 0 4 5 4 10 0 6 -5 10 -11 10 -5 0 -7
-4 -4 -10z"/>
<path d="M981 1925 c0 -5 6 -21 14 -35 8 -14 14 -20 14 -15 0 6 -6 21 -14 35
-8 14 -14 21 -14 15z"/>
<path d="M1306 1878 c4 -77 19 -94 19 -22 0 39 -4 64 -11 64 -6 0 -10 -17 -8
-42z"/>
<path d="M4100 1890 c-8 -5 -27 -10 -42 -10 -16 0 -27 -3 -27 -7 1 -5 1 -18 0
-29 -1 -21 -2 -21 -36 -5 -19 9 -37 25 -41 35 -6 19 -7 19 -19 2 -13 -17 -15
-17 -39 0 -24 15 -28 15 -44 1 -16 -15 -21 -15 -46 -1 -16 8 -30 13 -31 12 -1
-2 -7 -22 -12 -45 l-11 -42 44 -26 c44 -26 64 -26 64 -1 0 19 34 46 58 46 21
0 52 -24 52 -40 0 -5 -6 -7 -14 -4 -8 3 -17 1 -20 -5 -4 -5 2 -12 12 -15 14
-5 17 -13 14 -39 -3 -17 -9 -35 -15 -38 -5 -4 -6 -12 -3 -18 5 -8 16 -6 37 4
33 17 41 2 9 -17 -15 -10 -20 -24 -20 -60 0 -70 24 -121 67 -144 32 -17 38
-27 49 -74 12 -52 11 -60 -16 -145 -16 -49 -37 -117 -46 -149 -10 -38 -18 -55
-23 -47 -10 16 -7 -298 3 -320 4 -10 3 -20 -3 -24 -7 -3 -8 0 -5 9 4 9 1 16
-6 16 -8 0 -10 -9 -6 -26 4 -14 2 -31 -3 -38 -6 -8 1 -44 24 -111 19 -55 35
-91 36 -80 1 11 5 0 10 -24 5 -24 6 -48 3 -52 -9 -15 -24 -10 -18 5 3 8 1 17
-5 21 -7 4 -11 -3 -11 -16 0 -12 -6 -30 -14 -38 -13 -14 -13 -19 0 -35 8 -11
14 -15 14 -9 0 12 24 24 58 28 30 4 28 -9 -4 -24 -19 -8 -24 -16 -19 -29 4 -9
7 -25 7 -35 0 -9 5 -17 13 -17 23 0 28 -20 11 -39 -21 -23 -12 -31 36 -31 68
0 81 22 83 144 1 58 7 111 12 118 13 17 30 81 38 143 9 60 31 160 52 233 l15
53 28 -58 c15 -33 39 -77 52 -99 33 -52 46 -112 58 -278 6 -76 14 -144 17
-150 4 -5 6 -25 5 -43 -2 -29 0 -32 30 -37 18 -3 63 -10 101 -16 47 -7 73 -7
87 0 27 15 14 40 -21 40 -33 0 -68 33 -71 67 -8 110 -28 239 -48 313 -11 41
-27 116 -35 165 -9 50 -22 119 -31 155 -14 62 -34 241 -28 248 1 2 35 0 76 -6
75 -10 98 -4 98 24 0 8 7 14 15 14 9 0 15 -9 15 -21 0 -18 3 -19 15 -9 20 17
42 6 48 -22 4 -20 4 -20 6 5 0 15 6 27 12 27 6 0 8 -11 5 -28 -16 -85 -37
-245 -33 -256 7 -18 103 -5 99 13 -2 8 1 17 6 20 5 3 16 54 26 113 30 184 30
174 -9 242 -51 89 -58 96 -96 96 -48 0 -54 -8 -54 -65 0 -47 -2 -50 -24 -47
-13 1 -29 -2 -35 -7 -12 -10 -124 3 -137 16 -4 4 -9 46 -11 92 l-3 84 -58 40
c-32 22 -60 38 -62 35 -2 -2 1 -37 7 -78 5 -41 7 -101 4 -133 -4 -37 -2 -67 6
-80 18 -34 16 -81 -4 -85 -13 -3 -18 8 -23 55 -3 32 -11 96 -17 143 -6 47 -12
100 -13 117 -2 39 -13 53 -25 33 -11 -18 -16 -13 -26 24 -5 20 -3 27 4 22 6
-3 14 3 17 14 5 15 0 28 -19 45 -13 12 -28 20 -32 16 -11 -10 4 100 16 114 16
20 57 24 80 8 26 -18 28 4 3 23 -21 16 -73 18 -73 4 0 -5 -7 -10 -15 -10 -9 0
-20 -11 -24 -24 -12 -29 -5 -104 11 -123 10 -12 9 -18 -7 -29 -24 -18 -42 -3
-51 42 -3 19 -8 34 -11 34 -2 0 -24 -20 -49 -45 -24 -25 -46 -45 -49 -45 -3 0
-3 19 1 43 4 33 3 38 -6 25 -24 -39 -35 -19 -36 67 0 67 2 85 13 81 16 -6 17
6 2 21 -7 7 0 12 25 17 20 4 40 5 45 1 5 -3 18 11 30 31 23 39 26 48 12 39 -5
-3 -12 -1 -16 5 -8 13 -25 13 -45 0z m180 -656 c0 -8 -5 -12 -10 -9 -6 4 -8
11 -5 16 9 14 15 11 15 -7z m-15 -59 c3 -26 -18 -35 -31 -13 -4 7 -3 8 4 4 8
-5 12 2 12 20 0 33 12 25 15 -11z m-151 -342 c6 -110 11 -391 7 -445 -2 -36
-19 -16 -31 35 -6 28 -15 70 -21 92 -12 49 -19 120 -25 245 -2 52 -7 116 -10
141 -6 42 -4 48 22 68 25 20 30 20 40 7 6 -9 14 -73 18 -143z"/>
<path d="M848 1863 c-15 -16 -29 -39 -33 -53 -5 -23 -10 -25 -50 -22 -35 3
-45 0 -54 -15 -9 -17 -7 -19 18 -15 21 3 37 -4 63 -27 39 -34 48 -32 48 14 0
39 7 47 31 34 15 -7 19 -6 19 6 0 20 16 19 24 -1 5 -13 9 -14 20 -5 11 10 16
8 21 -9 4 -12 4 -32 1 -45 -5 -19 -3 -23 8 -19 33 13 27 145 -8 169 -33 24
-79 19 -108 -12z"/>
<path d="M1189 1846 c-11 -25 -19 -53 -17 -63 4 -15 7 -13 18 10 16 32 51 44
86 28 15 -6 24 -7 24 -1 0 6 -4 10 -8 10 -5 0 -17 7 -28 16 -19 15 -18 15 4
11 26 -6 28 1 5 19 -35 27 -61 17 -84 -30z"/>
<path d="M1725 1870 c-9 -10 -22 -18 -29 -17 -6 1 -10 -11 -9 -31 1 -31 0 -32
-16 -18 -23 21 -75 20 -106 0 -22 -14 -25 -23 -24 -73 1 -31 4 -46 6 -33 4 21
13 26 42 23 7 -2 10 2 6 8 -3 6 -13 11 -21 11 -17 0 -18 22 -2 38 16 16 73 15
85 0 6 -7 13 -30 17 -50 4 -21 12 -38 18 -38 6 0 8 9 5 20 -6 23 11 27 19 5 4
-8 12 -15 20 -15 8 0 14 -9 14 -21 0 -25 23 -20 28 6 2 10 0 15 -7 11 -11 -7
-31 24 -31 48 0 9 7 16 15 16 8 0 15 5 15 10 0 6 -7 10 -15 10 -18 0 -19 14
-5 41 14 24 42 24 64 0 16 -18 16 -21 -3 -60 -13 -24 -21 -58 -20 -83 l1 -43
8 42 c5 23 22 74 38 113 l30 70 -21 15 c-31 22 -100 19 -122 -5z"/>
<path d="M2445 1858 c-43 -22 -65 -44 -65 -66 0 -9 7 -13 20 -9 13 3 24 -1 30
-11 25 -45 26 -45 53 -27 25 16 26 16 44 -12 9 -15 23 -31 30 -36 7 -4 20 -15
29 -24 16 -16 16 -13 12 45 -3 49 -11 71 -35 105 -16 23 -36 41 -43 39 -6 -1
-17 2 -24 7 -7 6 -25 2 -51 -11z m142 -160 c-3 -8 -6 -5 -6 6 -1 11 2 17 5 13
3 -3 4 -12 1 -19z"/>
<path d="M3370 1820 c-8 -5 -25 -10 -37 -10 -26 0 -33 -37 -8 -46 11 -5 12
-10 2 -25 -16 -26 -26 -24 -20 4 3 12 2 19 -2 14 -5 -4 -9 -15 -10 -25 -1 -9
-7 -30 -14 -45 -6 -16 -11 -34 -11 -41 0 -17 61 -64 100 -78 17 -5 30 -14 30
-18 0 -5 10 -12 21 -15 20 -7 21 -11 14 -87 -3 -44 -9 -87 -12 -94 -3 -8 0
-14 6 -14 6 0 11 9 11 19 0 11 4 21 9 23 15 5 19 158 4 158 -7 0 -10 7 -7 15
4 9 -2 16 -18 20 -33 8 -72 79 -58 105 12 22 51 35 77 26 10 -4 14 -4 10 0 -4
4 -2 13 4 20 23 29 -13 103 -45 91 -7 -3 -18 -1 -22 3 -5 5 -15 5 -24 0z"/>
<path d="M1795 1799 c-4 -6 -5 -12 -2 -15 2 -3 7 2 10 11 7 17 1 20 -8 4z"/>
<path d="M1910 1779 c-27 -22 -26 -22 41 -3 18 5 19 4 10 -15 -7 -12 -8 -21
-4 -21 4 -1 -2 -9 -15 -20 -14 -12 -19 -21 -11 -25 6 -4 27 10 48 31 l37 39
-33 17 c-41 22 -42 22 -73 -3z"/>
<path d="M2798 1765 c2 -14 6 -25 8 -25 2 0 4 11 4 25 0 14 -4 25 -9 25 -4 0
-6 -11 -3 -25z"/>
<path d="M4080 1775 c-10 -13 -9 -15 9 -15 11 0 21 4 21 9 0 18 -18 21 -30 6z"/>
<path d="M1210 1769 c0 -5 5 -7 10 -4 6 3 10 8 10 11 0 2 -4 4 -10 4 -5 0 -10
-5 -10 -11z"/>
<path d="M2711 1753 c0 -27 1 -27 9 -5 8 19 13 21 29 13 11 -6 22 -16 24 -23
4 -9 6 -10 6 -1 1 14 -37 43 -56 43 -8 0 -13 -12 -12 -27z"/>
<path d="M1851 1748 c-12 -33 -12 -100 -1 -93 6 4 13 -1 16 -9 7 -19 21 -20
38 -3 9 9 9 17 1 34 -7 13 -14 22 -16 20 -3 -1 4 7 16 18 20 20 24 51 4 40 -5
-3 -18 -1 -29 5 -17 9 -21 7 -29 -12z"/>
<path d="M692 1720 c0 -14 2 -19 5 -12 2 6 2 18 0 25 -3 6 -5 1 -5 -13z"/>
<path d="M2150 1724 c0 -13 3 -14 15 -4 8 6 20 8 26 4 8 -4 9 -3 5 4 -11 18
-46 14 -46 -4z"/>
<path d="M1364 1675 c3 -33 14 -81 26 -105 11 -25 18 -34 15 -20 -3 14 -13 59
-21 100 -20 94 -27 103 -20 25z"/>
<path d="M2847 1713 c-13 -12 -7 -40 8 -40 8 0 15 5 15 11 0 17 -16 37 -23 29z"/>
<path d="M2210 1695 c-8 -9 -8 -15 -2 -15 12 0 26 19 19 26 -2 2 -10 -2 -17
-11z"/>
<path d="M718 1693 c7 -3 16 -2 19 1 4 3 -2 6 -13 5 -11 0 -14 -3 -6 -6z"/>
<path d="M3040 1693 c-22 -8 -39 -33 -33 -49 7 -20 33 -18 33 3 0 9 7 25 17
35 16 18 11 21 -17 11z"/>
<path d="M3135 1690 c4 -6 11 -8 16 -5 14 9 11 15 -7 15 -8 0 -12 -5 -9 -10z"/>
<path d="M4264 1689 c-5 -8 -3 -9 6 -4 7 4 16 2 22 -6 8 -12 9 -12 6 0 -6 20
-24 25 -34 10z"/>
<path d="M1180 1678 c0 -8 6 -23 14 -33 13 -18 14 -18 9 8 -6 29 -23 48 -23
25z"/>
<path d="M1585 1679 c-4 -6 -5 -12 -2 -15 2 -3 7 2 10 11 7 17 1 20 -8 4z"/>
<path d="M1244 1653 c-4 -10 -8 -20 -8 -23 -1 -3 -4 -10 -8 -16 -8 -12 13 -57
27 -56 5 0 11 6 14 13 2 8 -2 10 -13 6 -9 -4 -16 -2 -16 2 0 5 5 11 12 13 7 3
13 21 13 41 2 39 -8 48 -21 20z"/>
<path d="M2981 1654 c0 -11 3 -14 6 -6 3 7 2 16 -1 19 -3 4 -6 -2 -5 -13z"/>
<path d="M3164 1644 c4 -10 10 -34 13 -53 6 -31 7 -32 14 -13 9 24 -3 66 -22
78 -9 5 -10 2 -5 -12z"/>
<path d="M4286 1644 c-9 -23 -7 -34 5 -34 5 0 7 5 4 10 -4 6 -1 17 5 25 7 9 8
15 2 15 -5 0 -13 -7 -16 -16z"/>
<path d="M2877 1619 c4 -15 8 -17 14 -8 8 14 3 29 -11 29 -4 0 -6 -9 -3 -21z"/>
<path d="M3773 1623 c-13 -9 -23 -20 -23 -25 0 -5 7 -2 16 7 15 14 17 14 30
-2 14 -19 17 -9 6 18 -6 15 -9 15 -29 2z"/>
<path d="M3475 1610 c-10 -11 -13 -20 -8 -20 13 0 38 29 31 35 -3 3 -13 -4
-23 -15z"/>
<path d="M1856 1593 c-6 -14 -5 -15 5 -6 7 7 10 15 7 18 -3 3 -9 -2 -12 -12z"/>
<path d="M3010 1597 c0 -19 -24 -67 -33 -67 -5 0 -6 -4 -3 -8 3 -5 10 -47 16
-94 14 -118 -2 -155 -34 -80 -13 28 -15 30 -11 10 3 -16 1 -28 -4 -28 -6 0 1
-11 15 -25 21 -21 23 -27 12 -45 -9 -14 -23 -20 -50 -20 -21 0 -38 -5 -38 -11
0 -7 12 -9 35 -5 33 7 35 5 35 -20 0 -15 8 -32 17 -39 15 -11 13 -14 -16 -29
-26 -14 -35 -15 -47 -5 -18 15 -32 3 -16 -13 8 -8 24 -9 58 -1 42 10 51 9 76
-10 15 -11 28 -27 28 -34 0 -7 4 -13 10 -13 5 0 9 -10 7 -22 -1 -17 4 -24 22
-26 23 -4 23 -3 8 13 -10 9 -17 25 -17 36 0 14 7 19 29 19 17 0 42 10 58 24
l27 24 13 -25 c9 -17 10 -30 3 -43 -6 -10 -10 -39 -10 -64 l0 -46 68 0 69 0
11 39 c7 21 12 63 12 92 0 30 5 87 10 128 12 91 -2 189 -33 228 -12 15 -21 35
-19 43 3 18 -62 93 -72 83 -3 -4 -6 -14 -6 -24 0 -10 -6 -22 -14 -26 -7 -4
-19 -41 -26 -83 -7 -41 -17 -81 -22 -87 -6 -7 -8 -20 -4 -28 4 -11 -2 -15 -27
-16 l-32 -2 35 -6 c33 -6 35 -8 35 -46 l0 -40 -40 2 -40 2 43 -11 c37 -10 42
-14 42 -39 0 -58 -84 -88 -150 -54 -44 23 -63 67 -55 126 8 56 17 66 65 72 33
4 33 4 -7 5 -24 1 -43 4 -43 6 0 2 11 29 25 60 14 31 25 63 25 71 0 7 11 22
23 32 35 27 36 43 4 74 -34 35 -41 36 -32 8 4 -12 3 -24 -3 -28 -5 -3 -13 -17
-17 -31 l-7 -25 21 24 c11 13 21 19 21 12 0 -7 5 -9 10 -6 6 4 8 11 5 16 -4 5
-1 9 4 9 6 0 11 -4 11 -9 0 -9 -29 -36 -39 -36 -3 0 -5 -6 -3 -13 2 -9 -1 -11
-9 -6 -8 5 -11 1 -7 -13 3 -11 -1 -28 -8 -38 -13 -18 -14 -17 -15 6 0 13 -2
33 -4 44 -4 18 7 81 21 128 3 9 1 17 -5 17 -6 0 -11 -6 -11 -13z"/>
<path d="M3845 1601 c-3 -5 -1 -12 4 -16 6 -3 7 -15 2 -28 -10 -27 -18 -100
-26 -252 l-6 -110 30 -32 c16 -18 26 -33 20 -33 -5 0 -9 -17 -8 -37 0 -29 2
-33 8 -18 5 11 7 25 4 30 -2 6 13 15 32 21 21 7 35 7 35 1 0 -5 11 -6 24 -3
22 5 24 3 22 -24 -1 -17 1 -30 6 -30 4 0 8 23 8 51 0 39 -3 50 -14 46 -31 -12
-104 -18 -110 -9 -3 5 3 17 13 26 16 14 17 30 14 139 -2 67 -8 148 -14 179 -7
39 -7 64 0 76 6 11 7 22 4 26 -10 9 -41 7 -48 -3z"/>
<path d="M1939 1558 c5 -40 6 -41 9 -10 2 17 9 32 15 32 7 0 6 4 -3 10 -24 15
-26 12 -21 -32z"/>
<path d="M2902 1558 c2 -7 -3 -12 -9 -10 -8 1 -13 -8 -13 -22 0 -39 16 -39 27
-1 7 21 7 37 2 41 -5 3 -8 0 -7 -8z"/>
<path d="M3215 1560 c-3 -5 -1 -10 4 -10 6 0 11 5 11 10 0 6 -2 10 -4 10 -3 0
-8 -4 -11 -10z"/>
<path d="M3573 1563 c-15 -6 -17 -49 -3 -58 6 -3 10 3 10 14 0 14 6 21 20 21
11 0 20 -4 20 -8 0 -13 29 -48 30 -35 0 13 -48 73 -58 72 -4 0 -13 -3 -19 -6z"/>
<path d="M3158 1544 c6 -11 8 -33 5 -49 -3 -21 -2 -26 5 -16 8 11 11 10 16 -5
3 -10 3 -3 1 16 -7 54 -11 64 -24 68 -10 3 -10 0 -3 -14z"/>
<path d="M3905 1550 c-3 -5 -2 -10 4 -10 5 0 13 5 16 10 3 6 2 10 -4 10 -5 0
-13 -4 -16 -10z"/>
<path d="M731 1543 c0 -6 -4 -20 -7 -30 -5 -14 -4 -15 5 -7 7 7 11 20 8 30 -3
11 -5 14 -6 7z"/>
<path d="M1504 1445 c0 -55 1 -76 3 -47 2 29 2 74 0 100 -2 26 -3 2 -3 -53z"/>
<path d="M1145 1517 c-4 -10 -5 -21 -1 -24 10 -10 18 4 13 24 -4 17 -4 17 -12
0z"/>
<path d="M1432 1500 c0 -14 2 -19 5 -12 2 6 2 18 0 25 -3 6 -5 1 -5 -13z"/>
<path d="M1266 1455 c2 -33 6 -77 7 -97 1 -21 6 -38 11 -38 9 0 -2 128 -15
168 -6 19 -7 8 -3 -33z"/>
<path d="M3407 1479 c4 -13 8 -18 11 -10 2 7 -1 18 -6 23 -8 8 -9 4 -5 -13z"/>
<path d="M3160 1434 c0 -8 5 -12 10 -9 6 3 10 10 10 16 0 5 -4 9 -10 9 -5 0
-10 -7 -10 -16z"/>
<path d="M3450 1349 c0 -11 5 -17 10 -14 6 3 10 13 10 21 0 8 -4 14 -10 14 -5
0 -10 -9 -10 -21z"/>
<path d="M2880 1320 c0 -5 10 -10 23 -10 18 0 19 2 7 10 -19 13 -30 13 -30 0z"/>
<path d="M2999 1217 c8 -10 26 -17 45 -16 l31 1 -31 7 c-17 4 -37 12 -45 16
-12 8 -12 6 0 -8z"/>
<path d="M3726 1144 c-4 -14 -5 -28 -3 -31 3 -2 8 8 11 23 4 14 5 28 3 31 -3
2 -8 -8 -11 -23z"/>
<path d="M3781 1144 c0 -11 3 -14 6 -6 3 7 2 16 -1 19 -3 4 -6 -2 -5 -13z"/>
<path d="M3703 1075 c-3 -9 -3 -18 -1 -21 3 -3 8 4 11 16 6 23 -1 27 -10 5z"/>
<path d="M2981 1028 c-14 -64 -14 -71 3 -65 11 4 15 -13 20 -81 8 -97 4 -170
-18 -382 -8 -80 -12 -163 -8 -184 7 -37 10 -40 57 -52 31 -7 54 -9 59 -3 6 6
6 9 0 9 -5 0 -2 5 6 10 12 8 11 10 -8 10 -13 0 -33 10 -45 21 -22 21 -22 22
-1 17 12 -3 32 1 45 8 24 14 24 14 3 20 -21 5 -39 56 -25 69 3 3 6 11 7 18 2
7 12 55 24 108 20 91 20 99 5 135 -9 21 -12 40 -7 42 11 3 3 114 -10 130 -8 9
-5 12 13 12 13 0 20 4 14 8 -18 13 -55 89 -55 114 0 14 -9 33 -20 43 -11 10
-17 21 -15 25 3 4 -4 10 -14 13 -15 4 -20 -4 -30 -45z m62 -44 c-8 -21 -23
-17 -23 6 0 13 5 18 14 14 8 -3 12 -12 9 -20z m1 -40 c5 -14 4 -15 -9 -4 -17
14 -19 20 -6 20 5 0 12 -7 15 -16z"/>
<path d="M3692 1015 c0 -16 2 -22 5 -12 2 9 2 23 0 30 -3 6 -5 -1 -5 -18z"/>
<path d="M3507 898 c-9 -23 -15 -44 -12 -46 4 -5 15 19 29 66 12 38 0 24 -17
-20z"/>
<path d="M3816 905 c-8 -43 -20 -104 -41 -200 -7 -33 -13 -84 -14 -114 0 -38
-10 -74 -31 -119 -39 -84 -39 -107 1 -62 31 36 33 34 10 -12 -10 -20 -22 -28
-50 -30 l-36 -4 42 -18 c45 -19 49 -36 8 -36 -17 0 -26 -8 -34 -30 -6 -20 -17
-30 -30 -30 -25 0 -36 -16 -15 -24 26 -10 41 -7 94 16 49 21 59 31 41 42 -5 3
0 23 10 43 15 30 19 59 19 143 0 104 14 215 30 235 11 14 44 205 36 212 -3 4
-6 -7 -7 -23 -1 -27 -2 -26 -14 11 l-12 40 -7 -40z"/>
<path d="M2854 711 c3 -5 22 -12 41 -15 23 -5 33 -11 29 -18 -5 -8 -1 -9 10
-5 10 4 20 7 22 7 2 0 4 5 4 11 0 5 -4 7 -10 4 -5 -3 -20 1 -32 9 -24 17 -73
22 -64 7z"/>
<path d="M3461 544 c0 -11 3 -14 6 -6 3 7 2 16 -1 19 -3 4 -6 -2 -5 -13z"/>
<path d="M3457 500 c-6 -24 2 -60 14 -60 4 0 5 17 2 38 -7 46 -9 48 -16 22z"/>
<path d="M1944 437 c-3 -8 -1 -36 4 -63 6 -32 10 -39 11 -21 1 38 16 34 47
-13 26 -38 29 -40 80 -40 40 0 54 4 54 14 0 8 5 16 11 18 5 2 7 10 4 19 -8 20
-65 21 -65 1 0 -9 -6 -12 -16 -8 -9 3 -25 6 -36 6 -14 0 -18 5 -14 15 3 8 2
14 -2 14 -22 -4 -32 5 -43 36 -14 37 -26 44 -35 22z"/>
<path d="M3115 442 c-3 -3 -5 -11 -5 -19 0 -17 20 -16 43 1 16 13 16 14 -8 18
-13 3 -27 3 -30 0z"/>
<path d="M2065 380 c-3 -5 -1 -10 4 -10 6 0 11 5 11 10 0 6 -2 10 -4 10 -3 0
-8 -4 -11 -10z"/>
<path d="M1138 303 c6 -2 18 -2 25 0 6 3 1 5 -13 5 -14 0 -19 -2 -12 -5z"/>
<path d="M4017 276 c-3 -8 1 -17 9 -20 28 -11 35 -7 24 14 -13 23 -26 26 -33
6z"/>
<path d="M2760 256 c0 -2 7 -6 15 -10 8 -3 15 -1 15 4 0 6 -7 10 -15 10 -8 0
-15 -2 -15 -4z"/>
<path d="M3015 250 c3 -5 13 -10 21 -10 8 0 12 5 9 10 -3 6 -13 10 -21 10 -8
0 -12 -4 -9 -10z"/>
<path d="M713 233 c9 -2 25 -2 35 0 9 3 1 5 -18 5 -19 0 -27 -2 -17 -5z"/>
<path d="M3268 193 c6 -2 18 -2 25 0 6 3 1 5 -13 5 -14 0 -19 -2 -12 -5z"/>
</g>
</svg>
